<ttFont>
          <CharString index="0">
            90 211 87 -211 rlineto
            return
          </CharString>
          <CharString index="1">
            249 -174.833007812 78 -117.166992188 vhcurveto
            return
          </CharString>
          <CharString index="2">
            9 148 -22 0 rlineto
            return
          </CharString>
          <CharString index="3">
            -6 -55 -38 -71 -34 -2 rrcurveto
            -147 hlineto
            -26 -8 23 24 hvcurveto
            return
          </CharString>
          <CharString index="4">
            234 141 vlineto
            34 0 19 -29 3 -47 rrcurveto
            19 175 -23 hlineto
            -2 -36 -10 -41 -37 0 rrcurveto
            -144 266 153 hlineto
            66 0 27 -80 8 -36 rrcurveto
            19 0 rlineto
            return
          </CharString>
          <CharString index="5">
            3 202 -25 0 rlineto
            -3 -25 -14 -31 -20 -9 rrcurveto
            -25 16 -65 53 -79 0 rrcurveto
            return
          </CharString>
          <CharString index="6">
            0 13 39 8 29 2 rrcurveto
            return
          </CharString>
          <CharString index="7">
            2 21 35 0 29 2 rrcurveto
            return
          </CharString>
          <CharString index="8">
            450 0 16 151 -22 0 rlineto
            -7 -63 -38 -64 -47 0 rrcurveto
            0 -39 1 -87 vhcurveto
            -26 -9 20 24 hvcurveto
            return
          </CharString>
          <CharString index="9">
            -117 0 -41 73 -20 95 rrcurveto
            -20 0 -2 -178 21 0 rlineto
            11 21 6 10 19 9 rrcurveto
            return
          </CharString>
          <CharString index="10">
            26 -37 -5 -29 8 -52 rrcurveto
            19 0 3 189 -14 0 rlineto
            -10 -25 -14 -14 -15 -2 rrcurveto
            -18 19 -46 37 -64 0 rrcurveto
            return
          </CharString>
          <CharString index="11">
            14 -8 118 101 110 -101 13 11 -120 145 rlineto
            return
          </CharString>
          <CharString index="12">
            159 -122 22 15 -153 140 rlineto
            return
          </CharString>
          <CharString index="13">
            -8 -37 -8 -19 -26 0 -28 0 -2 36 0 29 0 52 4 59.966796875 0 61.033203125 rrcurveto
            return
          </CharString>
          <CharString index="14">
            91 -80.5 50 -76.5 vhcurveto
            -24 0 -43 -1 -36 -27 -20 -15 -26 -24 0 -31 rrcurveto
            -28 23 -27 25 16.1904296875 35.8134765625 9.7158203125 38.8662109375 13.6640625 -0.875 29.75390625 -27.12890625 vhcurveto
            return
          </CharString>
          <CharString index="15">
            5 20 21 23 42 0 rrcurveto
            63 22 -40 -53 -39 -3 -33 0 hvcurveto
            -36 -2 -204 12 0 -126 0 -85 62 -29 57 0 61 1 43 52 21 23 rrcurveto
            return
          </CharString>
          <CharString index="16">
            3 -33 17 -41 49 0 54 0 32 30 8 49 rrcurveto
            return
          </CharString>
          <CharString index="17">
            -13 -24 -27.8046875 -33 -41.1953125 0 -39 0 -35 20.5 0 60.5 0 85 64 -4 92 10 rrcurveto
            return
          </CharString>
          <CharString index="18">
            -75 -126 -51 -149 -148 80 -72 119 hvcurveto
            95 0 47 79 13 32 rrcurveto
            -27 19 rlineto
            -11 -30 -20 -67 -88 0 rrcurveto
            -71 -49 86 82 115 48 87 63 hvcurveto
            89 0 19 -54 7 -28 -9 8 -6.8828125 5 -17.1171875 0 rrcurveto
            -20.5 -20.5 -22 -29 -50 37 -3 18 20 38 21 56 67 -83 46 -69 hvcurveto
            return
          </CharString>
          <CharString index="19">
            -40 -14 -68 -5 -45 0 rrcurveto
            -1 -17 rlineto
            32 0 35 -4 3 -16 rrcurveto
            -243 vlineto
            0 -24 60 -77 -113 -81 -87 -125 -116.276367188 71.1123046875 -79.732421875 101.98046875 vhcurveto
            49.90234375 0 49.2099609375 37.2470703125 24.794921875 30.76171875 rrcurveto
            8 -72 rlineto
            return
          </CharString>
          <CharString index="20">
            28 8 68 1 29 1 rrcurveto
            12 vlineto
            -10 2 -42 -1 -1 19 -2.361328125 56.28125 -0.9677734375 82.3037109375 0 88.57421875 rrcurveto
            0 136.477539062 2.296875 151.3671875 3.0322265625 93.99609375 rrcurveto
            return
          </CharString>
          <CharString index="21">
            -39 -41 -63 -50 -90 -9 111 62 89 20 93 76 71 25 -75 0 vhcurveto
            4 -88 rlineto
            return
          </CharString>
          <CharString index="22">
            5 91 28 61 49 0 48 0 32 -32 10 -39 3.8037109375 -13.947265625 1.392578125 -17.1630859375 0 -17.830078125 0 -10.294921875 -0.4638671875 -10.515625 -0.732421875 -10.2490234375 rrcurveto
            return
          </CharString>
          <CharString index="23">
            264 1 rlineto
            0.87890625 9.6650390625 0.3642578125 8.29296875 0 7.2470703125 0 17.49609375 -2.1220703125 11.3984375 -2.12109375 9.900390625 -19 94 -80 26 -58 0 rrcurveto
            -83 -117 -48 -163 -138 89 -65 104 hvcurveto
            106 0 48 75 13 32 rrcurveto
            -27 19 rlineto
            -11 -30 -37 -72 -88 0 -71 0 -30 101 0 82 rrcurveto
            return
          </CharString>
          <CharString index="24">
            18.5 10 17.5 22.5 18 -9.5625 19 -36.4375 hvcurveto
            -28 0 -33 -25 -17 -15 rrcurveto
            return
          </CharString>
          <CharString index="25">
            0 -40 28 -71 -94 -61 -72 -69 vhcurveto
            0 -63 51 -43 12 -12 rrcurveto
            return
          </CharString>
          <CharString index="26">
            -28 -14 -42 -21.5 0 -44.5 0 -54.5458984375 48.7607421875 -23.1396484375 31.404296875 0 3.140625 0 2.9677734375 -0.7685546875 2.7265625 0.4541015625 rrcurveto
            return
          </CharString>
          <CharString index="27">
            -63 -24.5 -50 -27.5 0 -51 rrcurveto
            -51 43 -53 117 123 101 58 101 vhcurveto
            0 84 -56 21 -70 13 -23.607421875 4.7216796875 -49.2138671875 2.2138671875 -48.546875 0 rrcurveto
            return
          </CharString>
          <CharString index="28">
            -27.673828125 0 -35.1044921875 2.1865234375 -0.853515625 29.8779296875 2 23 39 16 0 0 rrcurveto
            0 38 -17 42 63 93 49 99 67 -41 28 0 vhcurveto
            12 14 13.955078125 1 11.044921875 0 rrcurveto
            11 0 13 -37 22.5 0 rrcurveto
            return
          </CharString>
          <CharString index="29">
            -93.849609375 -41 -35.150390625 -43 vhcurveto
            return
          </CharString>
          <CharString index="30">
            -54 -31 60 71 72 46 49 36 39 48 -39 -84 hvcurveto
            return
          </CharString>
          <CharString index="31">
            -48 -45 -49 -97 -80 -27 55 39 73 71 21 0 vhcurveto
            131 47 -14 -77 hvcurveto
            return
          </CharString>
          <CharString index="32">
            -16 vlineto
            33 -4 14 -1 15 -15 rrcurveto
            2.0224609375 -55.42578125 0.7138671875 -77.849609375 0 -82.12890625 0 -120.875 -2.736328125 -130.137695312 -81.5830078125 flex1
            -13 -43 -7 -19 vhcurveto
            -16 vlineto
            25.302734375 2.8642578125 36.470703125 1.26953125 36.9755859375 0 40.474609375 0 41.0791015625 -1.5205078125 27.697265625 flex1
            16 vlineto
            return
          </CharString>
          <CharString index="33">
            -24 1 -44 -2 0 21 rrcurveto
            239 vlineto
            35 52 24 32 58 0 rrcurveto
            48 19 -37 -53 hvcurveto
            -233 vlineto
            0.0107421875 -0.212890625 0.005859375 -0.2109375 0 -0.2080078125 0 -18.3681640625 -43.251953125 -0.0107421875 -20.7646484375 -0.9892578125 rrcurveto
            -16 vlineto
            return
          </CharString>
          <CharString index="34">
            24.0390625 2.61328125 39.87890625 1.5205078125 41.1611328125 0 37.6025390625 0 38.673828125 -1.26953125 28.64453125 flex1
            16 vlineto
            return
          </CharString>
          <CharString index="35">
            -26 1 -39 0 -1 19 -0.0869140625 1.6474609375 -0.033203125 9.03125 0 13.7685546875 0 44.1005859375 0.3388671875 92.701171875 0 54.3359375 0 40.2138671875 -29.318359375 104.201171875 -100.900390625 0 -75 0 -32 -54 -27 -42 rrcurveto
            2 342 rlineto
            -60.13671875 -21.4765625 -74.2568359375 -0.5244140625 -7.0615234375 0 rrcurveto
            return
          </CharString>
          <CharString index="36">
            -26 -28 -27 -33 -32 30 -22 24 32 28 25 35 hvcurveto
            30 -32 24 -28 vhcurveto
            return
          </CharString>
          <CharString index="37">
            -38 -13 -55 -7 -49 -2 rrcurveto
            -16 vlineto
            28 0 10 -2 24 -8 rrcurveto
            -328 vlineto
            -3 -19 -33 0 -26 -1 rrcurveto
            -16 vlineto
            27.4033203125 2.3623046875 37.44921875 1.0234375 36.841796875 0 41.134765625 0 40.376953125 -1.275390625 24.7939453125 flex1
            16 vlineto
            -17 0 -47 1 -4 19 0 278 0 -71 2 169 rrcurveto
            return
          </CharString>
          <CharString index="38">
            -40.5 -9.5 -52.5 -12.5 -49 0 rrcurveto
            -16 vlineto
            25 -4 15 2 22 -8 rrcurveto
            -378 vlineto
            0 -24 -1 -98 -6 -11 -14 -26 -23 -2 -17 0 -15 0 -22 8 -5 16 23 6 8 23 0 17 rrcurveto
            21 -17 23 -25 -27 -28 -19 -55 -44 61 -25 36 56 94 70 120 vhcurveto
            0 278 0 -21 2 169 rrcurveto
            return
          </CharString>
          <CharString index="39">
            -27 -39 -20 -34 -43 27 -19 37 26.5 25.5 38 24 23 -23 31 -27 hvcurveto
            return
          </CharString>
          <CharString index="40">
            50 -56 86 -92 26 -48 rrcurveto
            135 2 0 14 rlineto
            -1.6943359375 -0.1259765625 -1.689453125 -0.06640625 -1.693359375 0 -25.306640625 0 -26.1923828125 14.8310546875 -53.423828125 54.361328125 -73 74 2 7 -68 70 rrcurveto
            78 96 rlineto
            30 28 64 9 20 2 rrcurveto
            19 -164 vlineto
            0 -5.3330078125 -1 -9.333984375 0 -6.3330078125 16.8046875 -2.2109375 5.4619140625 -8.078125 0 -9.3623046875 0 -11.806640625 -8.6884765625 -13.8486328125 -5.578125 -6.693359375 rrcurveto
            -98 -112 rlineto
            0 0 2 346 1 105 -67.5791015625 -16.005859375 -58.64453125 -6.1630859375 -20.83203125 0 -2.0078125 0 -1.6572265625 0.0576171875 -1.279296875 0.111328125 rrcurveto
            -16 vlineto
            33 -1 28 -2 11 -17 2.3623046875 -66.146484375 1.0224609375 -96.9521484375 0 -98.6484375 0 -110.142578125 -0.6494140625 -112.27734375 -2.7353515625 -73.8330078125 -0.5 -13.5 -51.5 -5.5 -20 -1 rrcurveto
            -16 vlineto
            29.013671875 2.1103515625 43.763671875 1.275390625 42.9501953125 0 38.46875 0 37.8173828125 -1.0234375 25.986328125 flex1
            16 vlineto
            -44 2.5 -4.84375 1.490234375 -11.15625 10.9267578125 -5.0439453125 4.9404296875 -3.318359375 6.5302734375 -0.6376953125 8.6123046875 -0.419921875 13.162109375 -0.244140625 17.232421875 0 18.337890625 0 26.0224609375 0.4912109375 28.2470703125 1.1728515625 21.998046875 rrcurveto
            return
          </CharString>
          <CharString index="41">
            -51 -9.6669921875 -41.6669921875 -8.666015625 -57.3330078125 -3.6669921875 rrcurveto
            -16 vlineto
            31 0 18 -6 17 -14 2.1103515625 -72.271484375 1.275390625 -110.395507812 0 -108.296875 0 -96.9951171875 -1.0234375 -95.3125 -2.3623046875 -64.728515625 -2 -16 -41 -3 -23 -1 rrcurveto
            -16 vlineto
            23.2685546875 2.837890625 43.2373046875 2.515625 46.20703125 0 35.2119140625 0 36.9365234375 -1.4609375 31.138671875 flex1
            16 vlineto
            -23 4 -42 0 -3 16 0 166.799804688 -2.16015625 119.640625 0 108.119140625 0 72.080078125 0.9599609375 66.9599609375 3.2001953125 72.400390625 rrcurveto
            return
          </CharString>
          <CharString index="42">
            -16 vlineto
            30 -2 11 0 21 -11 1.4951171875 -39.8720703125 0.740234375 -55.26171875 0 -58.3173828125 0 -58.689453125 -0.75 -57.7470703125 -1.4853515625 -40.1123046875 -0.5 -13.5 -37 -11.5 -24.5 0 rrcurveto
            -16 vlineto
            27.4033203125 2.3623046875 37.44921875 1.0234375 36.841796875 0 41.134765625 0 40.376953125 -1.275390625 24.7939453125 flex1
            16 vlineto
            -29 2 -39 7 0 12 rrcurveto
            218 vlineto
            return
          </CharString>
          <CharString index="43">
            19 62 59 42 39 0 rrcurveto
            52 24 -51 -69 -34 -1 -164 0 hvcurveto
            -0.0673828125 -13.4970703125 -40.9326171875 -10.5029296875 -23 -1 rrcurveto
            -16 vlineto
            28.654296875 3.349609375 30.314453125 1.1328125 29.0400390625 0 48.998046875 0 45.3671875 -3.2265625 27.6259765625 flex1
            16 vlineto
            -21 -43 11.5 14.5 hvcurveto
            200 vlineto
            59 -24 95 -116 vhcurveto
            -64.0078125 0 -48.9921875 -65 -19 -29 rrcurveto
            -8 96 rlineto
            -33.8720703125 -10.421875 -40.6611328125 -8.1591796875 -40.8984375 0 rrcurveto
            -6.19140625 0 -6.197265625 0.1875 -6.1796875 0.3935546875 rrcurveto
            return
          </CharString>
          <CharString index="44">
            -76 -42 77 105 82 19 116 97 72 41 -96 -95 -123 -41 -66 -70 hvcurveto
            return
          </CharString>
          <CharString index="45">
            -95 -102 -79 -121 -149 69 -75 136 140 60 109 116 102 -90 97 -118 hvcurveto
            return
          </CharString>
          <CharString index="46">
            -73.0068359375 0 -39.9931640625 -75 -15 -39 rrcurveto
            -11 117 rlineto
            return
          </CharString>
          <CharString index="47">
            -44 -11 -36 -8 -52 0 rrcurveto
            2 -16 rlineto
            26 -1 20 1 16 -10 rrcurveto
            -323 vlineto
            0 -11 -46 -13 -16 -1 rrcurveto
            -16 vlineto
            27.4033203125 2.3623046875 37.2255859375 1.0234375 36.7119140625 0 40.9892578125 0 40.3486328125 -1.275390625 25.3212890625 flex1
            16 vlineto
            -13 1 -54 4 -1 20 rrcurveto
            -2 209 rlineto
            return
          </CharString>
          <CharString index="48">
            0 38 119 61 vhcurveto
            24 0 2 -14 7 -12 -21 -15 -7 -12 0 -14 1 -27 29 -19 20 0 rrcurveto
            29 25 34 31 hvcurveto
            54 -28 31 -49 vhcurveto
            return
          </CharString>
          <CharString index="49">
            111 51 38 94 hvcurveto
            0 60 -60 36 -47 21 rrcurveto
            return
          </CharString>
          <CharString index="50">
            -47.353515625 21.158203125 -67.646484375 8.833984375 0 60.0078125 0 38.5 27.5 29.5 40.5 0 93 0 7 -79 4 -37 rrcurveto
            17 0 2 123 -18 0 -3 -29 rlineto
            0 -30 38 -62 -87 -59 -46 -80 vhcurveto
            0 -62 49 -26 55 -20 rrcurveto
            return
          </CharString>
          <CharString index="51">
            53.8310546875 -19.5751953125 62.1689453125 -32.4248046875 0 -44 0 -46 -30 -28 -62 0 -77 0 -35 74 -6 53 rrcurveto
            return
          </CharString>
          <CharString index="52">
            -16 2 rlineto
            1 -52.5 1 -84.5 0 0 rrcurveto
            18 0 5 28 rlineto
            0 64 -39 45 vhcurveto
            return
          </CharString>
          <CharString index="53">
            6 25 -111 -2 rlineto
            0 15.142578125 -0.08203125 14.857421875 0 14.373046875 0 35.9326171875 0.5107421875 32.908203125 3.5712890625 26.7861328125 rrcurveto
            -23 hlineto
            0 -45 -24.2451171875 -45.8466796875 -13.2548828125 -17.1533203125 rrcurveto
            return
          </CharString>
          <CharString index="54">
            -17 -22 -58 -20 -28.5 0 rrcurveto
            -13 vlineto
            return
          </CharString>
          <CharString index="55">
            82 -231 hlineto
            0 -67 5.5 -32.5 19 -21 19 -21 32.5 -11.5 37 0 73 0 20 49 18 48 rrcurveto
            -21 11 rlineto
            -18 -49 -20 -33 -36 0 -32 0 -17 37.9169921875 0 54.0830078125 rrcurveto
            266 vlineto
            return
          </CharString>
          <CharString index="56">
            -16 vlineto
            22.6669921875 0 20.666015625 -1.3330078125 13.6669921875 -6.6669921875 rrcurveto
            return
          </CharString>
          <CharString index="57">
            1 -235 rlineto
            0.353515625 -82.9990234375 26.646484375 -55.0009765625 95 0 rrcurveto
            78 66 103 0 hvcurveto
            return
          </CharString>
          <CharString index="58">
            35 9 59 8 39 2 rrcurveto
            12 vlineto
            -27.3330078125 0.6669921875 -22.6669921875 2.666015625 -9 7.6669921875 0 0 -1.396484375 64.9453125 0 60.9599609375 rrcurveto
            return
          </CharString>
          <CharString index="59">
            0 17.197265625 0.111328125 16.8818359375 0.28515625 15.015625 1.435546875 75.7109375 6.564453125 118.2890625 0 0 rrcurveto
            return
          </CharString>
          <CharString index="60">
            -31 -6 -71 -4 -42 0 rrcurveto
            -16 vlineto
            26 0 17.3330078125 -2.6669921875 14.6669921875 -9.3330078125 rrcurveto
            -214 vlineto
            0 -54 -127 -80 vhcurveto
            -43 0 -9 65 -1 47 rrcurveto
            return
          </CharString>
          <CharString index="61">
            2 267 rlineto
            -44 -8 -59.6669921875 -2 -37.3330078125 0 rrcurveto
            return
          </CharString>
          <CharString index="62">
            -49 0 -22 -71 -96 -246 -76 260 rlineto
            -0.5908203125 2.0283203125 -0.2783203125 1.9912109375 0 1.947265625 0 20.51953125 30.7880859375 15.5517578125 18.53515625 0 0.5263671875 0 0.5146484375 -0.0126953125 0.5048828125 -0.025390625 rrcurveto
            2 14 rlineto
            -27.404296875 -2.3623046875 -35.6630859375 -1.0224609375 -38.12109375 0 -42.5634765625 0 -45.62890625 1.2744140625 -40.619140625 flex1
            -2 -16 rlineto
            38 -2 44 -15 13 -39 rrcurveto
            return
          </CharString>
          <CharString index="63">
            113 -324 45 0 113 292 107 -292 46 0 114 331 rlineto
            9.3994140625 27.255859375 29.6005859375 23.744140625 38 3 rrcurveto
            2 14 rlineto
            -19.728515625 -3.115234375 -28.3515625 -1.7666015625 -29.2802734375 0 -27.1220703125 0 -27.91796875 1.515625 -22.599609375 flex1
            -2 -14 rlineto
            18.0791015625 -0.904296875 39.3251953125 -10.7099609375 0 -24.2080078125 0 -2.5712890625 -0.4443359375 -2.7255859375 -0.9599609375 -2.880859375 rrcurveto
            -90 -261 -77 244 rlineto
            return
          </CharString>
          <CharString index="64">
            -21.939453125 -1.732421875 -45.939453125 -1.7314453125 -48.76953125 0 -35.7021484375 0 -37.21875 0.927734375 -30.4306640625 flex1
            -14 vlineto
            11 -1 29 -3 16 -6 10 -4 16 -11 8 -19 rrcurveto
            149 -345 rlineto
            -11 -33 -31 -85 -34 -32 -9 -8 -23 -21 -17 0 -13.1533203125 0 -17.8466796875 3 -10 8 24 10 15 20 0 20 rrcurveto
            35 -36 13 -27 vhcurveto
            return
          </CharString>
          <CharString index="65">
            -25 -28 -17 -44 -46 55 -30 40 hvcurveto
            32 0 31 10 26 22 24 21 20 32 12 29 rrcurveto
            175 418 rlineto
            7 18 16 32 9 8 6 6 22 2 18 0 rrcurveto
            2 14 rlineto
            -16.833984375 -3.84765625 -30.0185546875 -1.5341796875 -30.9677734375 0 -33.4169921875 0 -34.5205078125 1.787109375 -20.2421875 2.5947265625 rrcurveto
            -2 -14 rlineto
            34.267578125 36.1083984375 -0.0078125 -30.189453125 hvcurveto
            0 -7.5537109375 -2.259765625 -9.443359375 -5.1162109375 -11.8056640625 rrcurveto
            -106 -244 -98 250 rlineto
            -3.166015625 9.4990234375 -2.7265625 9.5712890625 0 8.3037109375 rrcurveto
            19.701171875 12.892578125 4.9248046875 29 vhcurveto
            return
          </CharString>
          <CharString index="66">
            -5 -133 21 0 rlineto
            4 39 -0.2392578125 68.35546875 41.2392578125 0.64453125 rrcurveto
            192 3 rlineto
            return
          </CharString>
          <CharString index="67">
            -0.6708984375 -1.2451171875 -215.329101562 -258.754882812 -59 -68 rrcurveto
            3 -40 342 0 rlineto
            return
          </CharString>
          <CharString index="68">
            11 153 -18 0 rlineto
            -4 -81 -37.0068359375 -41.2451171875 -39.9931640625 -0.7548828125 rrcurveto
            -159 -3 rlineto
            return
          </CharString>
          <CharString index="69">
            15 44 214 254 40 47 rrcurveto
            -4 20 rlineto
            return
          </CharString>
          <CharString index="70">
            -19 14 -14 17 16 14 14 20 19 -14 14 -17 -16 -14 -14 -20 vhcurveto
            return
          </CharString>
          <CharString index="71">
            -129 -105 -105 -129 -129 105 -105 129 129 105 105 129 129 -105 105 -129 hvcurveto
            return
          </CharString>
          <CharString index="72">
            116 94 -94 -116 -116 -94 -94 -116 -116 -94 94 116 116 94 94 116 hvcurveto
            return
          </CharString>
          <CharString index="73">
            11 -18 185 113 -31 46 rlineto
            return
          </CharString>
          <CharString index="74">
            65 -174 rlineto
            0 10.6416015625 -22.8037109375 -20.3564453125 hvcurveto
            0 -8.2392578125 -1.7431640625 -7.837890625 -4.8984375 -5.7626953125 -11.611328125 -13.4443359375 -22.0673828125 -2.6142578125 -15.408203125 0 rrcurveto
            -9.8046875 -7.1083984375 1.05859375 0 hvcurveto
            -1 -19 rlineto
            33.4541015625 2.201171875 43.3359375 0.8447265625 43.494140625 0 55.3154296875 0 55.572265625 -1.3662109375 35.828125 flex1
            2 24 rlineto
            -10 2 -19 -4 -20 10 -14 7 -18.771484375 9.4921875 -27.228515625 64.5078125 rrcurveto
            -214 507 -32 0 rlineto
            0 0 -232 -539 -27 -32 -18.3046875 -21.6943359375 -33.1923828125 -9.322265625 -22.841796875 0 -0.5595703125 0 -0.5546875 0.005859375 -0.546875 0.0107421875 rrcurveto
            0 -20 192 1 -1 16 rlineto
            -20.7001953125 -42.810546875 8.146484375 22.1025390625 hvcurveto
            0 2.990234375 0.783203125 3.2451171875 1.7275390625 3.515625 rrcurveto
            93 218 rlineto
            return
          </CharString>
          <CharString index="75">
            20.5322265625 22.880859375 29.1279296875 26.599609375 vhcurveto
            return
          </CharString>
          <CharString index="76">
            36.400390625 0 15.400390625 -64.59375 54.1181640625 0 63.4814453125 0 7 79.2998046875 0 25.8994140625 rrcurveto
            -15.28125 hlineto
            return
          </CharString>
          <CharString index="77">
            -27.5322265625 -3.9189453125 -30.6669921875 -45.28125 vhcurveto
            return
          </CharString>
          <CharString index="78">
            -47.1181640625 0 -17.681640625 59.736328125 -42.9189453125 0 rrcurveto
            -40.599609375 -25.2001953125 -61.9326171875 -29.400390625 hvcurveto
            return
          </CharString>
          <CharString index="79">
            -46.806640625 -34.79296875 -34.5859375 -46.814453125 -46.806640625 34.78515625 -35.79296875 46.814453125 46.8076171875 34.7919921875 36.78515625 46.814453125 46.8076171875 -34.78515625 33.5927734375 -46.814453125 hvcurveto
            return
          </CharString>
          <CharString index="80">
            36.400390625 19.599609375 20.400390625 28.7998046875 31.7001953125 17.5 -21.400390625 -35.400390625 -37.099609375 -17.5 -19.2998046875 -30.5 -26.5 -23.099609375 19.2998046875 37.099609375 vhcurveto
            return
          </CharString>
          <CharString index="81">
            81 55 45 40 30.6337890625 -12 20.3662109375 -76 hvcurveto
            19 50 rlineto
            return
          </CharString>
          <CharString index="82">
            -127 -205 -72 -255 -211 146 -110 190 hvcurveto
            142 0 65 95 37 89 -10 7 -13 11 0 0 -39 -92 -47 -80 -133 0 -170 0 -39 149 0 149 3.115234375 169.983398438 58.353515625 123.016601562 133.53125 0 137 0 69 -67 16 -101 rrcurveto
            19 0 3 202 -31 0 rlineto
            -5 -33 0 -12 -25 -16 -19 23 -74 31 -82 0 rrcurveto
            return
          </CharString>
          <CharString index="83">
            -53.5 -2 -75 -1 -78.875 0 -78.875 0 -82.75 1 -69 flex1
            -17 vlineto
            0 0 69 -9 3 -17 2.5146484375 -8.9814453125 1.095703125 -64.9912109375 0 -81.8720703125 rrcurveto
            return
          </CharString>
          <CharString index="84">
            0 -146.029296875 -3.484375 -199.728515625 -5.1259765625 -31.3974609375 -4.2861328125 -20.5712890625 -32.8828125 -2.4287109375 -15.8310546875 0 rrcurveto
            -2.638671875 -24.361328125 1 0 hvcurveto
            -16 vlineto
            return
          </CharString>
          <CharString index="85">
            19 vlineto
            -27.1748046875 -2.61328125 -44.92578125 -1.51953125 -46.2646484375 0 -42.265625 0 -43.3818359375 1.2685546875 -31.9873046875 flex1
            -14 vlineto
            0 72 -9 -17 hvcurveto
            0 -19 0 -488 -5 -29 -3.4287109375 -20.5712890625 -56.326171875 -1.4697265625 -16.0234375 0 rrcurveto
            -2.6708984375 -1.55078125 0.041015625 0 hvcurveto
            -16 vlineto
            49.3330078125 2.6669921875 69.7783203125 1.3330078125 59.4072265625 0 29.703125 0 27.111328125 -0.3330078125 20.6669921875 -0.6669921875 rrcurveto
            -1 16 rlineto
            -26 0 -47 4 -1 24 -1.6669921875 42.3330078125 -0.5546875 70.5556640625 0 75.8896484375 rrcurveto
            0 151.77734375 2.2216796875 173.111328125 0 11.3330078125 rrcurveto
            return
          </CharString>
          <CharString index="86">
            21 vlineto
            -36.8515625 -2.5947265625 -41.1611328125 -1.787109375 -39.6005859375 0 -36.6943359375 0 -35.353515625 1.5341796875 -29.3388671875 3.84765625 rrcurveto
            2 -22 rlineto
            4.6611328125 0.3251953125 4.744140625 0.1611328125 4.75390625 0 39.1044921875 0 39.8447265625 -10.87109375 0.8916015625 -19.615234375 rrcurveto
            -1 -371 rlineto
            0 0 -231 296 -92 128 rrcurveto
            -181 1 0 -17 rlineto
            0 0 87 -30 3 -17 1.3330078125 -69.6669921875 0.5556640625 -54 0 -49.8515625 0 -99.703125 -2.2216796875 -83.111328125 -2.6669921875 -158.666992188 -4.2861328125 -20.5712890625 -63.060546875 -1.4697265625 -17.9306640625 0 rrcurveto
            -2.98828125 -1.734375 0.041015625 0 hvcurveto
            -16 vlineto
            33.5 3 40.75 1.25 39.75 0 39.75 0 38.75 -1.25 29.5 -2 rrcurveto
            18 vlineto
            0.400390625 -50.525390625 1.599609375 -5.474609375 -26 -9 16 24 vhcurveto
            0.052734375 14.16796875 0.025390625 13.02734375 0 12.0166015625 0 172.155273438 -5.109375 -35.2333984375 0 139.44921875 0 33.5712890625 0.2958984375 43.6943359375 0.7353515625 59.1513671875 17 -18 366 -503 0 0 rrcurveto
            34 hlineto
            0 -2.2216796875 221.778320312 169.184570312 hvcurveto
            0 84.5927734375 0.5546875 71.4443359375 1.6669921875 24 1 22 70 7 16 1 rrcurveto
            return
          </CharString>
          <CharString index="87">
            -191 -51 190 106 259 115 56 119 136 80 -107 -207 -172.002929688 -85 -124.997070312 -123 hvcurveto
            return
          </CharString>
          <CharString index="88">
            -150 -208 -62 -277 -193 168 -116 188 142 180 107.978515625 209.021484375 271 -216 60 -104 hvcurveto
            return
          </CharString>
          <CharString index="89">
            0 0 -1.3330078125 94.6669921875 0 105.481445312 0 52.740234375 0.3330078125 55.4443359375 47.6669921875 flex1
            13 13 25 7 38 3 rrcurveto
            19 vlineto
            -27.1748046875 -2.61328125 -51.20703125 -1.51953125 -52.26171875 0 -47.744140625 0 -48.6259765625 1.2685546875 -31.986328125 flex1
            -14 vlineto
            0 0 79 -9 3 -17 1.2861328125 -42.857421875 0.5048828125 -40.423828125 0 -37.0634765625 0 -146.235351562 -6.833984375 -71.7099609375 0 -14.271484375 0 -188.401367188 151.078125 -49.037109375 105.96484375 0 151 5 73 93 0 154 0 0 -3.111328125 87.111328125 0 99.5556640625 rrcurveto
            0 49.77734375 0.7783203125 52.888671875 2.3330078125 46.6669921875 30 15 27 6 29 2 rrcurveto
            19 vlineto
            -27.1748046875 -2.61328125 -38.9169921875 -1.51953125 -40.5283203125 0 -37.0244140625 0 -38.3681640625 1.2685546875 -31.9873046875 flex1
            -14 vlineto
            0 0 79 -9 3 -17 3.599609375 -120 0.720703125 -99.1201171875 0 -60.095703125 0 -48.970703125 -0.279296875 6.9951171875 0 -27.9833984375 rrcurveto
            -171.930664062 -71.3310546875 -39.89453125 -93.7099609375 -77 -91 20 183 vhcurveto
            return
          </CharString>
          <CharString index="90">
            -1 -32 -2 -62 -2 -118 -0.919921875 -18.8662109375 -44.775390625 -3.197265625 -27.64453125 0 -2.3935546875 0 -6.234375 0.0234375 -2.0322265625 0.0400390625 rrcurveto
            -16 266 19 vlineto
            -30 -50 3 21 hvcurveto
            -3 158 -1 68 0 22 39 81 42 69 61 106 0 0 23 28 15 9 19 11 30 5 16 1 rrcurveto
            19 vlineto
            -27.1748046875 -2.61328125 -36.1865234375 -1.51953125 -37.9208984375 0 -34.6416015625 0 -36.0888671875 1.2685546875 -31.9873046875 flex1
            0 -14 59 -16 rlineto
            16.478515625 -4.8056640625 5.1640625 -8.107421875 0 -7.521484375 0 -11.49609375 -89.2333984375 -161.481445312 -52.4091796875 -93.587890625 -54 90 -30 54 -52 102 0 0 1 19 8 16 5 9 46 7 11 1 rrcurveto
            19 vlineto
            -27.1748046875 -2.61328125 -55.302734375 -1.51953125 -56.1748046875 0 -51.3173828125 0 -52.0439453125 1.2685546875 -31.986328125 flex1
            -14 vlineto
            9 -2 32 -10 14 -7 8 -4 19 -14 17 -24 63 -87 65 -116 39 -92 rrcurveto
            return
          </CharString>
          <CharString index="91">
            -36 -84 rlineto
            33.5 49.6015625 -2 -27.6572265625 -42.71875 -33.484375 -9.6240234375 -56.6171875 hvcurveto
            return
          </CharString>
          <CharString index="92">
            -12 13 -114 -104 -114 104 -13 -11 123 -145 rlineto
            return
          </CharString>
          <CharString index="93">
            -60 0 -102 -2 -105 0 rrcurveto
            -17 vlineto
            31 -4 40 -3 2 -38 rrcurveto
            -492 vlineto
            -5 -26 -33 -15 -48 -4 rrcurveto
            -16 vlineto
            153.0703125 0 76.53515625 -2.0048828125 25.51171875 0 rrcurveto
            221.483398438 95.3994140625 156.431640625 135.573242188 hvcurveto
            return
          </CharString>
          <CharString index="94">
            -2 -186 -39 -79 -191 0 -32 0 -21 24 0 24 -0.2109375 11.833984375 -0.078125 26.1689453125 0 34.7392578125 0 94.9072265625 0.578125 158.8671875 0 105.241210938 0 38.521484375 -0.078125 31.3359375 -0.2109375 18.384765625 rrcurveto
            return
          </CharString>
          <CharString index="95">
            21.7265625 2.2919921875 20.1474609375 1.1318359375 18.673828125 0 183.006835938 0 41.4599609375 -108.732421875 0 -191.357421875 0 -2.1015625 -0.0048828125 -2.111328125 -0.009765625 -2.12109375 rrcurveto
            return
          </CharString>
          <CharString index="96">
            -150 -193 -77 -261 -193 138 -118 188 hvcurveto
            75 0 78 41 27 41 rrcurveto
            52 13 -63 0 hvcurveto
            17 hlineto
            0 -2.16015625 75.240234375 63.6474609375 hvcurveto
            0 42.4326171875 0.9599609375 37.279296875 3.2001953125 6.400390625 13 16 29 6 27 3 rrcurveto
            22 -261 -22 vlineto
            32 -2 27 -4 33 -19 2.5361328125 -15.21484375 0.927734375 -20.7529296875 0 -21.3837890625 0 -29.2099609375 -1.7314453125 -30.3857421875 -1.732421875 -19.052734375 -32 -45 -68 -31 -63 0 rrcurveto
            -139 -60 137 141 235 84 76 128 hvcurveto
            134 0 51 -77 16 -101 rrcurveto
            30 0 rlineto
            return
          </CharString>
          <CharString index="97">
            1 -247 -272 0 0 246 rlineto
            1 17 46 4 29 2 rrcurveto
            19 vlineto
            -27.1748046875 -2.61328125 -44.37890625 -1.51953125 -45.744140625 0 -41.7890625 0 -42.92578125 1.2685546875 -31.9873046875 flex1
            -14 vlineto
            0 0 58 -9 4 -17 0.9453125 -4.490234375 0.38671875 -31.177734375 0 -45.2802734375 0 -146.348632812 -4.041015625 -293.665039062 -2.291015625 -16.0380859375 -3.4287109375 -20.5712890625 -48.9794921875 -1.4697265625 -13.923828125 0 rrcurveto
            -2.3212890625 -1.3466796875 0.041015625 0 hvcurveto
            -16 vlineto
            49.3330078125 2.6669921875 65.333984375 1.3330078125 56.4443359375 0 28.2216796875 0 26 -0.3330078125 20.6669921875 -0.6669921875 rrcurveto
            -1 16 rlineto
            -26 -48 4 24 hvcurveto
            258 272 -258 vlineto
            -24 -48 -4 -26 vhcurveto
            -1 -17 rlineto
            32.412109375 3.13671875 51.2685546875 1.4970703125 50.8388671875 0 46.41015625 0 46.05078125 -1.248046875 31.01953125 -2.3857421875 rrcurveto
            -2 13 rlineto
            0 -1.55078125 -0.041015625 -2.6708984375 vhcurveto
            -16.0234375 0 -56.326171875 1.4697265625 -3.4287109375 20.5712890625 -3.7080078125 20.0244140625 -2.0576171875 273.05078125 0 149.127929688 0 51.9453125 0.2490234375 36.9091796875 0.5166015625 5.9423828125 2 17 70 9 0 0 rrcurveto
            14 vlineto
            -29.3330078125 -2.6669921875 -63.5556640625 -2.2216796875 -59.8525390625 0 -29.92578125 0 -29 0.5556640625 -23.3330078125 1.3330078125 rrcurveto
            2 -14 rlineto
            21 -1 43 -5 0 -18 rrcurveto
            return
          </CharString>
          <CharString index="98">
            16.6669921875 0 7.3330078125 3 18 11 -2 -33 -38.6669921875 -47.9990234375 -30 -14 rrcurveto
            5.6669921875 -15.0009765625 rlineto
            41.326171875 4.919921875 59.7216796875 71.7236328125 0 73.748046875 rrcurveto
            50.0302734375 -41.3876953125 27.578125 -27.66015625 -26.0361328125 -39.052734375 -20.640625 -47.234375 -31.1845703125 26.0146484375 -32.9404296875 30.07421875 vhcurveto
            return
          </CharString>
          <CharString index="99">
            -0.447265625 128.349609375 -0.4462890625 50.1513671875 0 45.025390625 0 55.6533203125 0.6826171875 47.8232421875 2.2109375 177.997070312 3 21 38 6 30 2 rrcurveto
            0 15 -251 -1 0 -17 rlineto
            0 0 80 -5 2 -21 1.599609375 -22 0.80078125 -79.919921875 0 -91.759765625 0 -137.640625 -1.80078125 -164.279296875 -3.599609375 -35.400390625 -3 -24 -89 -3 0 0 rrcurveto
            -16 vlineto
            return
          </CharString>
          <CharString index="100">
            16 -13 136 169 -45 33 rlineto
            return
          </CharString>
          <CharString index="101">
            14 vlineto
            -19 1 -21 1 -21 30 -13 18 -9 29 -17 45 -30 82 -35 98 -105 10 88.8466796875 2.9619140625 72.1611328125 65.2958984375 0 64.2900390625 0 98.025390625 -94.37890625 54.4267578125 -70.62890625 0 -34.2861328125 0 -51.91796875 -0.6533203125 -57.982421875 0 rrcurveto
            -43.486328125 0 -46.8984375 0.3671875 -45.4287109375 1.2861328125 rrcurveto
            -17 vlineto
            0 0 67 -10 4 -17 1.7998046875 -9.599609375 2.5205078125 -110.760742188 0 -126.599609375 0 -84.400390625 -1.1201171875 -91.439453125 -3.2001953125 -73.2001953125 0 -23 -3 -7 -1 -4 -3.4384765625 -20.626953125 -54.5615234375 -1.373046875 -22 0 rrcurveto
            -17 vlineto
            27.18359375 1.75390625 40.83203125 0.79296875 42.513671875 0 54.4482421875 0 57.2060546875 -1.30078125 34.81640625 -2.24609375 rrcurveto
            1 19 rlineto
            0 0.400390625 -8.7841796875 1.0732421875 -34.2158203125 0.5263671875 rrcurveto
            -32 -2 24 24 hvcurveto
            -1 243 65 -1 rlineto
            66.984375 -1.03125 34.0166015625 -97.9716796875 17.9990234375 -65.9970703125 11.052734375 -41.4501953125 15.2958984375 -60.115234375 0 -33.4541015625 0 -2.865234375 -0.111328125 -2.669921875 -0.2373046875 -2.4453125 rrcurveto
            return
          </CharString>
          <CharString index="102">
            45.2841796875 -11.107421875 26.5869140625 -56.0498046875 0 -58.005859375 0 -64.27734375 -33.6572265625 -64.568359375 -78.6064453125 0 -6.66015625 0 -6.662109375 0.1884765625 -53.28515625 0.8203125 rrcurveto
            255 vlineto
            12.0107421875 1.5673828125 19.9208984375 1.5654296875 20.8505859375 0 19.076171875 0 19.8525390625 -1.310546875 15.2890625 -3.822265625 rrcurveto
            return
          </CharString>
          <CharString index="103">
            -150 -39 -86 -90 hvcurveto
            0 -75 63 -74 105 -36 85.8935546875 -29.44921875 59.1064453125 -43.55078125 0 -63 0 -57 -21 -75 -116 0 rrcurveto
            return
          </CharString>
          <CharString index="104">
            23 -16 46 -38 78 0 183 0 53 89 0 98 0 89 -84.4423828125 70.8203125 -112.557617188 41.1796875 -82 30 -60 50 0 57 0 46 45 63 65 0 64 0 44 -32 24 -35 rrcurveto
            return
          </CharString>
          <CharString index="105">
            -12.642578125 -16.857421875 -27.923828125 -1.1728515625 -25.3876953125 0 -4.1064453125 0 -4.0400390625 0.0302734375 -3.8994140625 0 rrcurveto
            -19 300 19 vlineto
            -30 0 -37 2 -13 16 -9 11 -8.951171875 20 -0.048828125 25 rrcurveto
            -1 499 114 -1 rlineto
            66.0048828125 -0.5791015625 11.9951171875 -101.420898438 3 -55 rrcurveto
            19 0 -2 181 rlineto
            -60.94921875 -2.3623046875 -91.5322265625 -1.0224609375 -93.2158203125 0 -104.077148438 0 -106.174804688 1.2744140625 -68.05078125 flex1
            -4 -181 19 0 rlineto
            2.986328125 50.7666015625 24.7861328125 108.240234375 65.326171875 0 10.1904296875 0 11.189453125 -0.2001953125 81.521484375 -0.806640625 rrcurveto
            -1 -499 rlineto
            -0.033203125 -17 -3.966796875 -17 -17 -22 rrcurveto
            return
          </CharString>
          <CharString index="106">
            -16 vlineto
            71.7001953125 0.607421875 80.560546875 0.9765625 99.96484375 0 64.5537109375 0 72.64453125 -0.4072265625 83.576171875 flex1
            23 157 -22 0 rlineto
            -6 -55 -52 -77 -34 -4 -46 -6 -126 0 -48 0 -5.7568359375 0 -2.3251953125 3.9716796875 0 6.4130859375 0 22.546875 28.7392578125 52.71875 9.3427734375 16.349609375 rrcurveto
            293 485 0 21 rlineto
            -51.6962890625 -1.8681640625 -95.9189453125 -4.197265625 -108.0078125 0 -65.4052734375 0 -69.8369140625 1.5390625 -67.134765625 flex1
            -3 -141 19 0 rlineto
            8 36 17 79 66 1 rrcurveto
            230 4 rlineto
            -118 -207 -114 -182 -132 -197 rrcurveto
            return
          </CharString>
          <CharString index="107">
            -19.1050109863 0 -6.89498901367 -5 -16 -10 3 36 58 39.5 21 8.5 0 0 -4.5 9 -3.5 6 -47 -6 -66 -59.5 0 -82.5 rrcurveto
            -54.0369873047 46 -28.9630126953 30 30 43 24.9580078125 48.0419921875 37 -28 37 -40 vhcurveto
            return
          </CharString>
          <CharString index="108">
            19.1049957275 0 6.89500427246 5 16 10 -3 -36 -58 -39.5 -21 -8.5 0 0 4.5 -9 3.5 -6 47 6 66 59.5 0 82.5 rrcurveto
            54.0369873047 -46 28.9630126953 -30 -30 -43 -24.9580078125 -48.0419921875 -37 28 -37 40 vhcurveto
            return
          </CharString>
          <CharString index="109">
            19.1049957275 0 6.89500427246 5 16 10 -3 -36 -58 -39.5 -21 -8.5 0 0 4.5 -9 3.5 -6 47 6 66 59.5 0 82.5 rrcurveto
            54.0370025635 -46 28.9629974365 -30 -30 -43 -24.9580078125 -48.0419921875 -37 28 -37 40 vhcurveto
            return
          </CharString>
          <CharString index="110">
            -30 -42 -24.9580078125 -48.0419921875 -38 29 -36 46 43 30 22 55 54.0370025635 -46 15.9629974365 -30 hvcurveto
            return
          </CharString>
        <CharString name=".notdef">
          0 50 400 50 hstem
          50 50 300 50 vstem
          50 hmoveto
          400 500 -400 hlineto
          50 -450 rmoveto
          400 300 -400 vlineto
          endchar
        </CharString>
        <CharString name="A">
          223 -5 19.9832000732 255.016799927 23 324 -20 hstem
          419 270 rmoveto
          65 -174 rlineto
          0 10.641998291 -22.8038024902 -20.3558959961 hvcurveto
          0 -8.23930358887 -1.74398803711 -7.8383026123 -4.89801025391 -5.7626953125 -11.6109924316 -13.4443969727 -22.0679931641 -2.61419677734 -15.4080200195 0 rrcurveto
          -9.80499267578 -7.10800170898 1.05859375 0 hvcurveto
          -1 -19 rlineto
          33.4540100098 2.20091247559 43.3359985352 0.844589233398 43.4939880371 0 55.3159790039 0 55.5720214844 -1.36605834961 35.8280029297 flex1
          2 24 rlineto
          -10 2 -19 -4 -20 10 -14 7 -18.7719726562 9.49220275879 -27.2280273438 64.5077972412 rrcurveto
          -214 507 -32 0 rlineto
          0 0 -232 -539 -27 -32 -18.3047943115 -21.6945953369 -33.1926116943 -9.32220458984 -22.8411865234 0 -0.560150146484 0 -0.553924560547 0.00559997558594 -0.547332763672 0.0111999511719 rrcurveto
          0 -20 192 1 -1 16 rlineto
          -20.6999969482 -42.8110046387 8.14660644531 22.1022949219 hvcurveto
          0 2.9900970459 0.783004760742 3.24560546875 1.72799682617 3.51539611816 rrcurveto
          93 218 rlineto
          11 23 rmoveto
          -107 callsubr
          endchar
        </CharString>
        <CharString name="AE">
          423 -5 20 -11.6167144775 22.6166992188 264 23 77 -20 219 20.31199646 hstemhm
          456 95 185 19 hintmask 00111110
          456 313 rmoveto
          -154 hlineto
          113 213 -28.5 -70 71 126 rrcurveto
          -89.5 -582 rmoveto
          80.816986084 1.22450256348 98.199005127 2.15878295898 94.4409790039 0 59.8110351562 0 58.3049926758 -0.865859985352 51.4270019531 flex1
          9 148 -22 0 rlineto
          -5 -49 -31 -63 -31 -14 -23.2540283203 -1.29190063477 -18.0379638672 -0.561706542969 -16.6970214844 0 -35.0020141602 0 -29.1069946289 2.46841430664 -58.9019775391 3.38519287109 rrcurveto
          1 265 129 0 rlineto
          34 0 19 -29 3 -47 rrcurveto
          19 175 -23 hlineto
          -2 -36 -10 -41 -37 0 rrcurveto
          -132 hlineto
          -2 115 0 -52 0 213 rrcurveto
          143 hlineto
          66 0 27 -80 8 -36 rrcurveto
          19 0 -3 141 rlineto
          -76.25 -3.125 -73.9060058594 -1.56298828125 -75.9569702148 0 -45.575012207 0 -46.3120117188 0.56298828125 -48 1.125 -87 -152 -221 -387 -22 -26 -25.4118041992 -30.1175994873 -44.899597168 -0.885894775391 -5.19439697266 0 rrcurveto
          hintmask 10111110
          -0.324600219727 -0.16960144043 0.00349426269531 0 hvcurveto
          0 -20 216 4 1 18 rlineto
          -27.8090057373 0.927001953125 -74.6399993896 2.64549255371 0 28.2600097656 0 2.22630310059 10.9630126953 18.3854980469 0.985992431641 2.55569458008 rrcurveto
          127.5 218 165 0 rlineto
          -2 -109 -2 -115 -4 -22 -5 -24 -75 -4 0 0 rrcurveto
          endchar
        </CharString>
        <CharString name="Aacute">
          250 -5 19.9832000732 255.016799927 23 304 20 32.5 159 hstem
          263 196 vstem
          263 667.5 rmoveto
          -34 callsubr
          -9 -538.5 rmoveto
          -33 callsubr
          11 23 rmoveto
          -107 callsubr
          endchar
        </CharString>
        <CharString name="Abreve">
          250 -5 19.9832000732 255.016799927 23 304 20 hstem
          419 270 rmoveto
          -33 callsubr
          11 23 rmoveto
          -107 callsubr
          endchar
        </CharString>
        <CharString name="Acircumflex">
          250 -5 19.9832000732 255.016799927 23 304 20 32 156 hstem
          228 255 vstem
          228 657 rmoveto
          -96 callsubr
          56 -535 rmoveto
          -33 callsubr
          11 23 rmoveto
          -107 callsubr
          endchar
        </CharString>
        <CharString name="Adieresis">
          250 -5 19.9832000732 255.016799927 23 304 20 38 67 hstem
          253.5 61 87.5 61 vstem
          253.5 688 rmoveto
          -37 callsubr
          148.5 hmoveto
          -37 callsubr
          17 -418 rmoveto
          -33 callsubr
          11 23 rmoveto
          -107 callsubr
          endchar
        </CharString>
        <CharString name="Agrave">
          250 -5 19.9832000732 255.016799927 23 304 20 34.5 155 hstem
          264.5 181 vstem
          264.5 773.5 rmoveto
          -95 callsubr
          126.5 -536.5 rmoveto
          -33 callsubr
          11 23 rmoveto
          -107 callsubr
          endchar
        </CharString>
        <CharString name="Amacron">
          250 -5 19.9832000732 255.016799927 23 304 20 hstem
          419 270 rmoveto
          -33 callsubr
          11 23 rmoveto
          -107 callsubr
          endchar
        </CharString>
        <CharString name="Aogonek">
          250 -5 19.9832000732 255.016799927 23 304 20 hstem
          419 270 rmoveto
          -33 callsubr
          11 23 rmoveto
          -107 callsubr
          endchar
        </CharString>
        <CharString name="Aring">
          250 -5 19.9832000732 255.016799927 23 304 20 77.5 25.1999969482 113.200012207 25.6000061035 hstem
          275.399993896 32 97.6000061035 33.6000061035 vstem
          357 858.5 rmoveto
          -28 callsubr
          -49.599609375 -82.400390625 rmoveto
          -27 callsubr
          111.599609375 -506.099609375 rmoveto
          -33 callsubr
          11 23 rmoveto
          -107 callsubr
          endchar
        </CharString>
        <CharString name="Atilde">
          250 -5 19.9832000732 255.016799927 23 304 20 26.4000244141 47 -47 105.199996948 -90.2660522461 91.8030090332 -42.1429443359 42.1430053711 hstemhm
          259 12.1190948486 210.599914551 15.2810058594 hintmask 0000010110000000
          271.119140625 658.333984375 rmoveto
          hintmask 0000001110000000
          -32 callsubr
          hintmask 0000100110000000
          -31 callsubr
          hintmask 0001000110000000
          -30 callsubr
          hintmask 0000010110000000
          -29 callsubr
          hintmask 1110000000000000
          160 -388.803710938 rmoveto
          -33 callsubr
          11 23 rmoveto
          -107 callsubr
          endchar
        </CharString>
        <CharString name="B">
          103 -1 18.9253997803 292.074584961 26 266 21 hstemhm
          128.444000244 101.555999756 162 88 -53.9400024414 97.9400024414 hintmask 11111000
          230 602 rmoveto
          16.2400054932 0 18.1209869385 2.19500732422 16.8430175781 0 13.233001709 0 12.4429931641 -1.35498046875 10.1199951172 -4.84002685547 49 -24 26 -58 0 -49 -1 -46 -7 -75 -90 -6 rrcurveto
          -64 -4 rlineto
          hintmask 11110100
          294 -178 rmoveto
          0 110 -74 48 -105 10 rrcurveto
          hintmask 11111000
          90 3 44 76 1 62 0.0050048828125 0.516998291016 0.00299072265625 0.515991210938 0 0.515014648438 0 98.0459899902 -94.3789978027 56.4060058594 -70.6289978027 0 -60 0 -84 1 -105 0 rrcurveto
          -17 vlineto
          0 0 59 -11 3 -17 0.332992553711 -27.6669921875 0.11100769043 -51.1110229492 0 -61.5919799805 0 -123.186004639 -0.444000244141 -165.11100769 0 -103.332992554 -5 -24 -70 -8 0 0 rrcurveto
          -16 vlineto
          152.694000244 0 76.3469848633 -2.00775146484 25.449005127 0 rrcurveto
          159.108001709 57.4020080566 95.3491516113 65.6585998535 hvcurveto
          -296 152 rmoveto
          65 -1 rlineto
          hintmask 11110100
          53.1969909668 -5.45599365234 79.8630065918 -26.5360107422 0 -127.970001221 rrcurveto
          -94.0914001465 -45.9710083008 -37.021194458 -108.502990723 -26.9989929199 -15.5870056152 0.964599609375 47.1100006104 vhcurveto
          endchar
        </CharString>
        <CharString name="C">
          213 -22 30 591 27 hstem
          54 129 408 31 vstem
          386 626 rmoveto
          -127 -205 -72 -255 -211 146 -110 190 hvcurveto
          142 0 65 95 37 89 -10 7 -13 11 0 0 -39 -92 -47 -80 -133 0 -170 0 -39 149 0 149 3.11500549316 169.983001709 58.3539886475 123.016998291 133.531005859 0 137 0 69 -67 16 -101 rrcurveto
          19 0 3 202 -31 0 rlineto
          -5 -33 0 -12 -25 -16 -19 23 -74 31 -82 0 rrcurveto
          endchar
        </CharString>
        <CharString name="Cacute">
          213 -22 30 591 27 18 159 hstem
          54 129 122 196 90 31 vstem
          305 662 rmoveto
          -34 callsubr
          -84 -177 rmoveto
          -25 callsubr
          endchar
        </CharString>
        <CharString name="Ccaron">
          213 -22 30 591 27 22 156 hstem
          54 129 75 253 80 31 vstem
          511 791 rmoveto
          -15 callsubr
          5 -22 rmoveto
          -25 callsubr
          endchar
        </CharString>
        <CharString name="Ccedilla">
          213 -188 187 -187 21 82 33 30 30 591 27 hstemhm
          54 129 148 136 -43.8980102539 43.8979949951 124 31 hintmask 1000110110000000
          376 -1 rmoveto
          hintmask 0110110110000000
          -36 -84 rlineto
          33.5 49.6019897461 -2 -27.657989502 -42.7180175781 -33.4849853516 -9.62399291992 -56.6170043945 hvcurveto
          hintmask 1000111010000000
          -2 -21 rlineto
          hintmask 0010110110000000
          -26 callsubr
          hintmask 0001110010000000
          -12 628 rmoveto
          -25 callsubr
          hintmask 0001110010000000
          0 vmoveto
          -25 callsubr
          endchar
        </CharString>
        <CharString name="Ccircumflex">
          213 -22 30 591 27 12 156 hstem
          54 129 83 255 70 31 vstem
          266 646 rmoveto
          -96 callsubr
          -15 -168 rmoveto
          -25 callsubr
          endchar
        </CharString>
        <CharString name="Cdotaccent">
          213 -22 30 591 27 hstem
          54 129 408 31 vstem
          386 626 rmoveto
          -25 callsubr
          endchar
        </CharString>
        <CharString name="D">
          189 -1 16 574.42401123 26.5760040283 -19 17 hstemhm
          134 95 285 106 hintmask 11011000
          620 289 rmoveto
          -106 callsubr
          hintmask 10111000
          -60 0 -102 -2 -105 0 rrcurveto
          -17 vlineto
          31 -4 40 -3 2 -38 rrcurveto
          -492 vlineto
          -5 -26 -33 -15 -48 -4 rrcurveto
          -16 vlineto
          153.070007324 0 76.5350036621 -2.0047454834 25.5119934082 0 rrcurveto
          221.484008789 95.3989868164 156.431747437 135.572998047 hvcurveto
          -106 -6 rmoveto
          -2 -186 -39 -79 -191 0 -32 0 -21 24 0 24 -0.210998535156 11.8341064453 -0.0780029296875 26.1688842773 0 34.7390136719 0 94.9069976807 0.578002929688 158.867996216 0 105.240997314 0 38.5209960938 -0.0780029296875 31.3359985352 -0.210998535156 18.3850097656 rrcurveto
          hintmask 11011000
          21.7270050049 2.2919921875 20.146987915 1.13201904297 18.6740112305 0 183.006988525 0 41.4600219727 -108.733001709 0 -191.356994629 0 -2.10202026367 -0.0050048828125 -2.11099243164 -0.010009765625 -2.12100219727 rrcurveto
          endchar
        </CharString>
        <CharString name="Dcaron">
          189 -1 16 574.42401123 26.5760040283 -19 17 29 156 hstemhm
          134 95 -48 253 80 106 hintmask 00010100
          434 786 rmoveto
          -15 callsubr
          hintmask 11001010
          316 -354 rmoveto
          -106 callsubr
          hintmask 10101010
          -14 callsubr
          -106 -6 rmoveto
          -13 callsubr
          hintmask 11001010
          -12 callsubr
          endchar
        </CharString>
        <CharString name="Dcroat">
          189 -1 16 574.42401123 26.5760040283 -19 17 hstemhm
          134 95 285 106 hintmask 11011000
          620 289 rmoveto
          -106 callsubr
          hintmask 10111000
          -14 callsubr
          -106 -6 rmoveto
          -13 callsubr
          hintmask 11011000
          -12 callsubr
          endchar
        </CharString>
        <CharString name="E">
          103 0 20 -20 148 153 22 77 -20 209 22 -14 17 hstemhm
          128 101 -92.3899993896 92.3899993896 197 19 hintmask 0111001010000000
          501 hmoveto
          -105 callsubr
          hintmask 1011101010000000
          -104 callsubr
          hintmask 0011100110000000
          -103 callsubr
          hintmask 0011010110000000
          -3 141 rlineto
          hintmask 1011010110000000
          -53.5 -2 -75 -1 -78.875 0 -78.875 0 -82.75 1 -69 flex1
          -17 vlineto
          0 0 69 -9 3 -17 2.51499938965 -8.98101806641 1.0950012207 -64.991973877 0 -81.8720092773 rrcurveto
          hintmask 1011001010000000
          0 -146.028991699 -3.48399353027 -199.729003906 -5.12600708008 -31.3970031738 -4.28601074219 -20.571395874 -32.8828887939 -2.42860412598 -15.8311004639 0 rrcurveto
          -2.63870239258 -24.3612976074 1 0 hvcurveto
          -16 vlineto
          endchar
        </CharString>
        <CharString name="Eacute">
          103 0 20 -20 148 153 22 57 20 189 22 -14 17 19.5 159 hstemhm
          128 101 -92.3899993896 92.3899993896 -47.5 196 48.5 19 hintmask 0000001001000000
          181.5 651.5 rmoveto
          -34 callsubr
          hintmask 0111000100100000
          154.5 -792.5 rmoveto
          -105 callsubr
          hintmask 1011100100100000
          -104 callsubr
          hintmask 0011100010100000
          -103 callsubr
          hintmask 0011010010100000
          -3 141 rlineto
          hintmask 1011010010100000
          -24 callsubr
          hintmask 1011000100100000
          -23 callsubr
          endchar
        </CharString>
        <CharString name="Ebreve">
          103 0 20 -20 148 153 22 57 20 189 22 -14 17 hstemhm
          128 101 -92.3899993896 92.3899993896 197 19 hintmask 0111001010000000
          501 hmoveto
          -105 callsubr
          hintmask 1011101010000000
          -104 callsubr
          hintmask 0011100110000000
          -103 callsubr
          hintmask 0011010110000000
          -3 141 rlineto
          hintmask 1011010110000000
          -24 callsubr
          hintmask 1011001010000000
          -23 callsubr
          endchar
        </CharString>
        <CharString name="Ecaron">
          103 0 20 -20 148 153 22 57 20 189 22 -14 17 hstemhm
          128 101 -92.3899993896 92.3899993896 197 19 hintmask 0111001010000000
          501 hmoveto
          -105 callsubr
          hintmask 1011101010000000
          -104 callsubr
          hintmask 0011100110000000
          -103 callsubr
          hintmask 0011010110000000
          -3 141 rlineto
          hintmask 1011010110000000
          -24 callsubr
          hintmask 1011001010000000
          -23 callsubr
          endchar
        </CharString>
        <CharString name="Ecircumflex">
          103 0 20 -20 148 153 22 57 20 189 22 -14 17 17.5 156 hstemhm
          128 101 -92.3899993896 92.3899993896 -51.5 255 -6.5 19 hintmask 0000001001000000
          177.5 639.5 rmoveto
          -96 callsubr
          hintmask 0111000100100000
          188.5 -787.5 rmoveto
          -105 callsubr
          hintmask 1011100100100000
          -104 callsubr
          hintmask 0011100010100000
          -103 callsubr
          hintmask 0011010010100000
          -3 141 rlineto
          hintmask 1011010010100000
          -24 callsubr
          hintmask 1011000100100000
          -23 callsubr
          endchar
        </CharString>
        <CharString name="Edieresis">
          103 0 20 -20 148 153 22 57 20 189 22 -14 17 40 67 hstemhm
          128 101 -92.3899993896 92.3899993896 -28.5 61 87.5 61 16 19 hintmask 0000001001100000
          200.5 687 rmoveto
          -37 callsubr
          148.5 hmoveto
          -37 callsubr
          hintmask 0111000100010000
          152 -687 rmoveto
          -105 callsubr
          hintmask 1011100100010000
          -104 callsubr
          hintmask 0011100010010000
          -103 callsubr
          hintmask 0011010010010000
          -3 141 rlineto
          hintmask 1011010010010000
          -24 callsubr
          hintmask 1011000100010000
          -23 callsubr
          endchar
        </CharString>
        <CharString name="Edotaccent">
          103 0 20 -20 148 153 22 57 20 189 22 -14 17 hstemhm
          128 101 -92.3899993896 92.3899993896 197 19 hintmask 0111001010000000
          501 hmoveto
          -105 callsubr
          hintmask 1011101010000000
          -104 callsubr
          hintmask 0011100110000000
          -103 callsubr
          hintmask 0011010110000000
          -3 141 rlineto
          hintmask 1011010110000000
          -24 callsubr
          hintmask 1011001010000000
          -23 callsubr
          endchar
        </CharString>
        <CharString name="Egrave">
          103 0 20 -20 148 153 22 57 20 189 22 -14 17 26.5 155 hstemhm
          128 101 -92.3899993896 92.3899993896 -40 181 56 19 hintmask 0000001001000000
          189 762.5 rmoveto
          -95 callsubr
          hintmask 0111000100100000
          284 -795.5 rmoveto
          -105 callsubr
          hintmask 1011100100100000
          -104 callsubr
          hintmask 0011100010100000
          -103 callsubr
          hintmask 0011010010100000
          -3 141 rlineto
          hintmask 1011010010100000
          -24 callsubr
          hintmask 1011000100100000
          -23 callsubr
          endchar
        </CharString>
        <CharString name="Emacron">
          103 0 20 -20 148 153 22 57 20 189 22 -14 17 hstemhm
          128 101 -92.3899993896 92.3899993896 197 19 hintmask 0111001010000000
          501 hmoveto
          -105 callsubr
          hintmask 1011101010000000
          -104 callsubr
          hintmask 0011100110000000
          -103 callsubr
          hintmask 0011010110000000
          -3 141 rlineto
          hintmask 1011010110000000
          -24 callsubr
          hintmask 1011001010000000
          -23 callsubr
          endchar
        </CharString>
        <CharString name="Eogonek">
          103 0 20 -20 148 153 22 57 20 189 22 -14 17 hstemhm
          128 101 -92.3899993896 92.3899993896 197 19 hintmask 0111001010000000
          501 hmoveto
          -105 callsubr
          hintmask 1011101010000000
          -104 callsubr
          hintmask 0011100110000000
          -103 callsubr
          hintmask 0011010110000000
          -3 141 rlineto
          hintmask 1011010110000000
          -24 callsubr
          hintmask 1011001010000000
          -23 callsubr
          endchar
        </CharString>
        <CharString name="Eth">
          189 endchar
        </CharString>
        <CharString name="F">
          83 -4 16 289 22 77 -20 209 20.5 -12.5 17 hstemhm
          48 454 -374 101 -92.8480072021 92.8479919434 187.000015259 19 hintmask 1111001000000000
          310 -4 rmoveto
          -0.0400085449219 1.26542663574 -0.0130004882812 2.32171630859 0 2.60359191895 0 5.20719909668 0.0530090332031 6.33476257324 1.2673034668 flex1
          0 -12.4440002441 -0.888900756836 -13.925994873 vhcurveto
          -6.96301269531 0 -7.333984375 0.222198486328 -6.3330078125 0.666702270508 -25.8569946289 2.72180175781 -8.14300537109 21.2781982422 0 24 rrcurveto
          hintmask 1111000110000000
          238 131 vlineto
          34 0 19 -29 3 -47 rrcurveto
          19 175 -23 hlineto
          -2 -36 -10 -41 -37 0 rrcurveto
          -134 266 153 hlineto
          66 0 27 -80 8 -36 rrcurveto
          hintmask 1110110000000000
          19 0 -3 141 rlineto
          hintmask 1110100100000000
          -53.5 -3 -75.5 -1.5 -79.125 0 -79.125 0 -82.75 1.5 -68 flex1
          -17 vlineto
          0 0 69 -9 3 -17 2.2440032959 -11.2219848633 0.907989501953 -55.4290161133 0 -71.3529968262 rrcurveto
          hintmask 1111001000000000
          0 -151.183990479 -6.03698730469 -222.435119629 -2.11500549316 -25.3768920898 rrcurveto
          hintmask 1111010000000000
          -1.5 -18 -59.5 -4 -19 0 rrcurveto
          -16 vlineto
          hintmask 1111001000000000
          41 2.5 49.25 1.25 47.125 0 47.125 0 45 -1.25 32.5 flex1
          endchar
        </CharString>
        <CharString name="G">
          263 -22 32 237 22 330 28 hstemhm
          50 128 365.463989258 92.3760070801 -36.8399658203 25 hintmask 11111000
          393 627 rmoveto
          -150 -193 -77 -261 -193 138 -118 188 hvcurveto
          75 0 78 41 27 41 rrcurveto
          52 13 -63 0 hvcurveto
          17 hlineto
          0 1.52587890625e-05 -2.15997314453 75.2399749756 0 63.6480102539 0 42.4320068359 0.9599609375 37.2799987793 3.20001220703 6.39999389648 13 16 29 6 27 3 rrcurveto
          22 -261 -22 vlineto
          32 -2 27 -4 33 -19 2.53601074219 -15.2149963379 0.927978515625 -20.7530059814 0 -21.3840026855 0 -29.2099914551 -1.73199462891 -30.3849945068 -1.73199462891 -19.0530090332 -32 -45 -68 -31 -63 0 rrcurveto
          -139 -60 137 141 235 84 76 128 hvcurveto
          134 0 51 -77 16 -101 rrcurveto
          30 0 rlineto
          hintmask 11110100
          -102 callsubr
          endchar
        </CharString>
        <CharString name="Gbreve">
          263 -22 32 237 22 330 28 hstemhm
          50 128 365.463989258 92.3760070801 -36.8399658203 25 hintmask 11111000
          393 627 rmoveto
          -11 callsubr
          hintmask 11110100
          -102 callsubr
          endchar
        </CharString>
        <CharString name="Gcircumflex">
          263 -22 32 237 22 330 28 hstemhm
          50 128 365.463989258 92.3760070801 -36.8399658203 25 hintmask 11111000
          393 627 rmoveto
          -11 callsubr
          hintmask 11110100
          -102 callsubr
          endchar
        </CharString>
        <CharString name="Gcommaaccent">
          263 -22 32 237 22 330 28 hstemhm
          50 128 365.463989258 92.3760070801 -36.8399658203 25 hintmask 11111000
          393 627 rmoveto
          -11 callsubr
          hintmask 11110100
          -102 callsubr
          endchar
        </CharString>
        <CharString name="Gdotaccent">
          263 -22 32 237 22 330 28 hstemhm
          50 128 365.463989258 92.3760070801 -36.8399658203 25 hintmask 11111000
          393 627 rmoveto
          -11 callsubr
          hintmask 11110100
          -102 callsubr
          endchar
        </CharString>
        <CharString name="H">
          271 -1 16 286 22 274 14 hstem
          134.332000732 94.6679992676 272 95.2340087891 vstem
          500 570 rmoveto
          1 -247 -272 0 0 246 rlineto
          1 17 46 4 29 2 rrcurveto
          19 vlineto
          -27.174987793 -2.61297607422 -44.3790130615 -1.52001953125 -45.7440032959 0 -41.7890014648 0 -42.925994873 1.26898193359 -31.9869995117 flex1
          -14 vlineto
          0 0 58 -9 4 -17 0.945007324219 -4.48999023438 0.386993408203 -31.1780395508 0 -45.2799682617 0 -146.348999023 -4.04100036621 -293.665100098 -2.29100036621 -16.037902832 -3.42900085449 -20.571395874 -48.9792022705 -1.46940612793 -13.9241943359 0 rrcurveto
          -2.32070922852 -1.34689331055 0.0408020019531 0 hvcurveto
          -16 vlineto
          49.3330078125 2.66667175293 65.3339996338 1.33332824707 56.4439849854 0 28.2220153809 0 26 -0.33332824707 20.6669921875 -0.66667175293 rrcurveto
          -1 16 rlineto
          -26 -48 4 24 hvcurveto
          258 272 -258 vlineto
          -24 -48 -4 -26 vhcurveto
          -1 -17 rlineto
          32.4119873047 3.13664245605 51.2690124512 1.49688720703 50.8390197754 0 46.4099731445 0 46.049987793 -1.24740600586 31.0200195312 -2.38612365723 rrcurveto
          -2 13 rlineto
          0 -1.55102539062 -0.0408020019531 -2.67095947266 vhcurveto
          -16.0230102539 0 -56.3259887695 1.46940612793 -3.42901611328 20.571395874 -3.7080078125 20.0247039795 -2.05798339844 273.050292969 0 149.127990723 0 51.9450073242 0.248962402344 36.9099731445 0.517028808594 5.94201660156 2 17 70 9 0 0 rrcurveto
          14 vlineto
          -29.3330078125 -2.6669921875 -63.5559692383 -2.22198486328 -59.8520507812 0 -29.9259643555 0 -29 0.555969238281 -23.3330078125 1.3330078125 rrcurveto
          2 -14 rlineto
          21 -1 43 -5 0 -18 rrcurveto
          endchar
        </CharString>
        <CharString name="Hbar">
          271 -1 16 286 22 274 14 hstem
          134.332000732 94.6679992676 272 95.2340087891 vstem
          500 570 rmoveto
          -10 callsubr
          endchar
        </CharString>
        <CharString name="Hcircumflex">
          271 -1 16 286 22 274 14 hstem
          134.332000732 94.6679992676 272 95.2340087891 vstem
          500 570 rmoveto
          -10 callsubr
          endchar
        </CharString>
        <CharString name="I">
          -99 -3 16 579 19 -14 14 hstemhm
          138 101 hintmask 11010000
          239 569 rmoveto
          -101 callsubr
          hintmask 10110000
          19 vlineto
          -27.174987793 -2.61297607422 -44.9260101318 -1.52001953125 -46.2640075684 0 -42.2659912109 0 -43.3820037842 1.26898193359 -31.9869995117 flex1
          -14 vlineto
          0 72 -9 -17 hvcurveto
          0 -19 0 -488 -5 -29 -3.42900085449 -20.571395874 -56.3260955811 -1.46940612793 -16.0233001709 0 rrcurveto
          -2.67060852051 -1.55099487305 0.0408020019531 0 hvcurveto
          -16 vlineto
          49.3330078125 2.66667175293 69.7779846191 1.33332824707 59.4080047607 0 29.7029876709 0 27.1110229492 -0.33332824707 20.6669921875 -0.66667175293 rrcurveto
          -1 16 rlineto
          -26 0 -47 4 -1 24 -1.66700744629 42.3332977295 -0.554992675781 70.5557098389 0 75.8889923096 rrcurveto
          0 151.777999878 2.22200012207 173.110992432 0 11.3330078125 rrcurveto
          endchar
        </CharString>
        <CharString name="IJ">
          113 -209 14.9190063477 191.080993652 16 579 19 -14 14 hstemhm
          119 101 -53.7769927979 128.444000244 95.3330078125 91.75 hintmask 10100010
          486 569 rmoveto
          -100 callsubr
          hintmask 10010010
          19 vlineto
          -27.1748046875 -2.61328125 -44.37890625 -1.51953125 -45.744140625 0 -41.7890625 0 -42.92578125 1.2685546875 -31.9873046875 flex1
          -14 vlineto
          0 0 69 -9 3 -17 2.5 -18.5 1.5 -117.75 0 -128.875 0 -128.875 -1.5 -140 -3.5 -63 -5 -76 -2 -28 -25 -38 -10.8330078125 -16.2490234375 -30.0859375 -9.83203125 -26.681640625 0 -12.7275390625 0 -11.9521484375 2.2373046875 -8.7197265625 4.84375 rrcurveto
          26.708984375 17.5888671875 11.9580078125 24.048828125 0 22.2392578125 rrcurveto
          31.9267578125 -24.64453125 28.1962890625 -41.0224609375 -37.1884765625 -25.5888671875 -31.212890625 -33.5625 -39.0244140625 34.595703125 -42.2001953125 91.181640625 vhcurveto
          55 0 48 14 40 55 41.662109375 56.8125 6.205078125 76.884765625 0 108.63671875 0 46.080078125 -1.1171875 51.7919921875 0 58.396484375 rrcurveto
          0 126.046875 1.1875 142.083007812 3.0625 42.267578125 rrcurveto
          hintmask 01101000
          -266 hmoveto
          -101 callsubr
          hintmask 01011000
          -22 callsubr
          endchar
        </CharString>
        <CharString name="Iacute">
          -99 -3 16 579 19 -14 14 20 159 hstemhm
          115 196 -173 101 hintmask 00011000
          115 649 rmoveto
          -34 callsubr
          hintmask 11000100
          -41 -221 rmoveto
          -101 callsubr
          hintmask 10100100
          -22 callsubr
          endchar
        </CharString>
        <CharString name="Ibreve">
          -99 -3 16 579 19 -14 14 hstemhm
          138 101 hintmask 11010000
          239 569 rmoveto
          -101 callsubr
          hintmask 10110000
          -22 callsubr
          endchar
        </CharString>
        <CharString name="Icircumflex">
          -99 -3 16 579 19 -14 14 15.5 156 hstemhm
          62.5 255 -179.5 101 hintmask 00011000
          62.5 634.5 rmoveto
          -96 callsubr
          hintmask 11000100
          41.5 -213.5 rmoveto
          -101 callsubr
          hintmask 10100100
          -22 callsubr
          endchar
        </CharString>
        <CharString name="Idieresis">
          -99 -3 16 579 19 -14 14 40.5 67 hstemhm
          92 61 -15 101 1.5 61 hintmask 00011010
          92 684.5 rmoveto
          -37 callsubr
          148.5 hmoveto
          -37 callsubr
          hintmask 11000100
          -1.5 -115.5 rmoveto
          -101 callsubr
          hintmask 10100100
          -22 callsubr
          endchar
        </CharString>
        <CharString name="Idotaccent">
          -99 -3 16 579 19 -14 14 hstemhm
          138 101 hintmask 11010000
          239 569 rmoveto
          -101 callsubr
          hintmask 10110000
          -22 callsubr
          endchar
        </CharString>
        <CharString name="Igrave">
          -99 -3 16 579 19 -14 14 21.5 155 hstemhm
          111.5 181 -154.5 101 hintmask 00011000
          111.5 754.5 rmoveto
          -95 callsubr
          hintmask 11000100
          99.5 -218.5 rmoveto
          -101 callsubr
          hintmask 10100100
          -22 callsubr
          endchar
        </CharString>
        <CharString name="Imacron">
          -99 -3 16 579 19 -14 14 hstemhm
          138 101 hintmask 11010000
          239 569 rmoveto
          -101 callsubr
          hintmask 10110000
          -22 callsubr
          endchar
        </CharString>
        <CharString name="Iogonek">
          -99 -3 16 579 19 -14 14 hstemhm
          138 101 hintmask 11010000
          239 569 rmoveto
          -101 callsubr
          hintmask 10110000
          -22 callsubr
          endchar
        </CharString>
        <CharString name="Itilde">
          -99 -3 16 579 19 -14 14 30.4000244141 47 -47 105.199996948 -90.2660522461 91.8030090332 -42.1429443359 42.1430053711 hstemhm
          74 12.1190948486 51.8809051514 101 57.7189941406 15.2810058594 hintmask 0000010101000000
          86.119140625 656.333984375 rmoveto
          hintmask 0000001101000000
          -32 callsubr
          hintmask 0000100101000000
          -31 callsubr
          hintmask 0001000101000000
          -30 callsubr
          hintmask 0000010101000000
          -29 callsubr
          hintmask 1100000010000000
          165 -87.8037109375 rmoveto
          -101 callsubr
          hintmask 1010000010000000
          -22 callsubr
          endchar
        </CharString>
        <CharString name="J">
          -91 -209 14.9190063477 786.080993652 19 -14 14 hstemhm
          -72.7772979736 128.444000244 95.3332977295 91.75 hintmask 11011000
          247 569 rmoveto
          -100 callsubr
          hintmask 10111000
          19 vlineto
          -27.174987793 -2.61297607422 -44.3790130615 -1.52001953125 -45.7440032959 0 -41.7890014648 0 -42.925994873 1.26898193359 -31.9869995117 flex1
          -14 vlineto
          0 0 69 -9 3 -17 2.5 -18.5 1.5 -117.75 0 -128.875 0 -128.875 -1.5 -140 -3.5 -63 -5 -76 -2 -28 -25 -38 -10.8330078125 -16.2489929199 -30.0857849121 -9.83200073242 -26.6820983887 0 -12.7270050049 0 -11.9526062012 2.23699951172 -8.71949768066 4.84399414062 rrcurveto
          26.7093048096 17.5890045166 11.9576873779 24.0489959717 0 22.2389984131 rrcurveto
          31.9263000488 -24.6443939209 28.1967010498 -41.0225982666 -37.1887969971 -25.5885009766 -31.2131958008 -33.5617980957 -39.0250091553 34.595703125 -42.1999969482 91.1815948486 vhcurveto
          55 0 48 14 40 55 41.6620025635 56.8125 6.20500183105 76.8844146729 0 108.637084961 0 46.0800018311 -1.11700439453 51.7919921875 0 58.3970031738 rrcurveto
          0 126.04598999 1.18699645996 142.083007812 3.06300354004 42.2680053711 rrcurveto
          endchar
        </CharString>
        <CharString name="Jcircumflex">
          -91 -209 14.9190063477 786.080993652 19 -14 14 10 156 hstemhm
          -72.7772979736 128.444000244 18.3332977295 255 -178 91.75 hintmask 00010100
          74 629 rmoveto
          -96 callsubr
          hintmask 11001010
          38 -208 rmoveto
          -100 callsubr
          hintmask 10101010
          19 vlineto
          -27.1748046875 -2.61328125 -44.37890625 -1.51953125 -45.744140625 0 -41.7890625 0 -42.92578125 1.2685546875 -31.9873046875 flex1
          -14 vlineto
          0 0 69 -9 3 -17 2.5 -18.5 1.5 -117.75 0 -128.875 0 -128.875 -1.5 -140 -3.5 -63 -5 -76 -2 -28 -25 -38 -10.8330078125 -16.2490234375 -30.0859375 -9.83203125 -26.681640625 0 -12.7275390625 0 -11.9521484375 2.2373046875 -8.7197265625 4.84375 rrcurveto
          26.708984375 17.5888671875 11.9580078125 24.048828125 0 22.2392578125 rrcurveto
          31.9267578125 -24.64453125 28.1962890625 -41.0224609375 -37.1884765625 -25.5888671875 -31.212890625 -33.5625 -39.0244140625 34.595703125 -42.2001953125 91.181640625 vhcurveto
          55 0 48 14 40 55 41.662109375 56.8125 6.205078125 76.884765625 0 108.63671875 0 46.080078125 -1.1171875 51.7919921875 0 58.396484375 rrcurveto
          0 126.046875 1.1865234375 142.083007812 3.0634765625 42.267578125 rrcurveto
          endchar
        </CharString>
        <CharString name="K">
          188 -1 16 582 14 hstemhm
          128 101 -93.9609985352 93.9609985352 hintmask 11010000
          460 532 rmoveto
          -9 -24 -222 -255 0 0 rrcurveto
          316 vlineto
          3 15 44 6 29 2 rrcurveto
          19 vlineto
          -27.174987793 -2.61297607422 -47.1100158691 -1.52001953125 -48.3509979248 0 -44.171005249 0 -45.2063903809 1.26898193359 -31.9866027832 flex1
          -14 vlineto
          0 0 68 -9 4 -17 1.37300109863 -6.52001953125 0.666000366211 -61.8619689941 0 -79.6270141602 rrcurveto
          hintmask 11100000
          0 -152.42300415 -2.4409942627 -217.519195557 -4.59800720215 -19.0487976074 -5.14300537109 -20.571395874 -47.7550048828 -1.46940612793 -13.5392913818 0 rrcurveto
          -2.25660705566 -1.30609130859 0.0408020019531 0 hvcurveto
          -16 vlineto
          49.3330078125 2.66667175293 65.3339996338 1.33332824707 56.4439849854 0 28.2220153809 0 26 -0.33332824707 20.6669921875 -0.66667175293 rrcurveto
          -1 16 rlineto
          -26 -48 4 24 hvcurveto
          1 183 50 64 rlineto
          74 -103 43 -71 71 -114 19.2260131836 1.86061096191 19.2269897461 0.706665039062 19.6430053711 0 43.7030029297 0 45.7689819336 -3.49758911133 52.4320068359 -2.06968688965 rrcurveto
          2 19 rlineto
          -45 4 -30 6 -32 36 -105 118 -8 30 -108 140 79 98 34 50 73 68 28 26 53 3 0 0 rrcurveto
          14 vlineto
          -29.3330078125 -2.6669921875 -44.4450073242 -2.22198486328 -47.1109924316 0 -23.5549926758 0 -24.2229919434 0.555969238281 -23.3330078125 1.3330078125 rrcurveto
          2 -14 rlineto
          17 -1 32 -9 1 -28 rrcurveto
          0 -5 -7 -12 -2 -7 rrcurveto
          endchar
        </CharString>
        <CharString name="Kcommaaccent">
          188 -1 16 582 14 hstemhm
          128 101 -93.9609985352 93.9609985352 hintmask 11010000
          460 532 rmoveto
          -9 -24 -222 -255 0 0 rrcurveto
          316 vlineto
          3 15 44 6 29 2 rrcurveto
          19 vlineto
          -27.1748046875 -2.61328125 -47.1103515625 -1.51953125 -48.3505859375 0 -44.1708984375 0 -45.20703125 1.2685546875 -31.986328125 flex1
          -14 vlineto
          0 0 68 -9 4 -17 1.373046875 -6.51953125 0.666015625 -61.8623046875 0 -79.626953125 rrcurveto
          hintmask 11100000
          0 -152.422851562 -2.44140625 -217.51953125 -4.59765625 -19.048828125 -5.142578125 -20.5712890625 -47.755859375 -1.4697265625 -13.5390625 0 rrcurveto
          -2.2568359375 -1.3056640625 0.041015625 0 hvcurveto
          -16 vlineto
          49.3330078125 2.6669921875 65.333984375 1.3330078125 56.4443359375 0 28.2216796875 0 26 -0.3330078125 20.6669921875 -0.6669921875 rrcurveto
          -1 16 rlineto
          -26 -48 4 24 hvcurveto
          1 183 50 64 rlineto
          74 -103 43 -71 71 -114 19.2255859375 1.8603515625 19.2275390625 0.70703125 19.642578125 0 43.703125 0 45.76953125 -3.498046875 52.431640625 -2.0693359375 rrcurveto
          2 19 rlineto
          -45 4 -30 6 -32 36 -105 118 -8 30 -108 140 79 98 34 50 73 68 28 26 53 3 0 0 rrcurveto
          14 vlineto
          -29.3330078125 -2.6669921875 -44.4453125 -2.2216796875 -47.1103515625 0 -23.5556640625 0 -24.22265625 0.5556640625 -23.3330078125 1.3330078125 rrcurveto
          2 -14 rlineto
          17 -1 32 -9 1 -28 rrcurveto
          0 -5 -7 -12 -2 -7 rrcurveto
          endchar
        </CharString>
        <CharString name="L">
          107 -3 16 -16 25 575 17 hstemhm
          145.399993896 95.6000061035 251 22 hintmask 10111000
          239 66 rmoveto
          -0.447006225586 128.350006104 -0.446990966797 50.1510009766 0 45.0249938965 0 55.6539916992 0.682998657227 47.8229980469 2.21099853516 177.997009277 3 21 38 6 30 2 rrcurveto
          0 15 -251 -1 0 -17 rlineto
          0 0 80 -5 2 -21 1.60000610352 -22 0.799987792969 -79.9200134277 0 -91.759979248 0 -137.640014648 -1.79998779297 -164.279998779 -3.60000610352 -35.3999938965 -3 -24 -89 -3 0 0 rrcurveto
          -16 vlineto
          hintmask 01111000
          -99 callsubr
          endchar
        </CharString>
        <CharString name="Lacute">
          107 -3 16 -16 25 575 17 hstemhm
          145.399993896 95.6000061035 251 22 hintmask 10111000
          239 66 rmoveto
          -8 callsubr
          hintmask 01111000
          -99 callsubr
          endchar
        </CharString>
        <CharString name="Lcaron">
          107 -3 16 -16 25 575 17 hstemhm
          145.399993896 95.6000061035 251 22 hintmask 10111000
          239 66 rmoveto
          -8 callsubr
          hintmask 01111000
          -99 callsubr
          endchar
        </CharString>
        <CharString name="Lcommaaccent">
          107 -3 16 -16 25 575 17 hstemhm
          145.399993896 95.6000061035 251 22 hintmask 10111000
          239 66 rmoveto
          -8 callsubr
          hintmask 01111000
          -99 callsubr
          endchar
        </CharString>
        <CharString name="Ldot">
          107 -3 16 -16 25 575 17 hstemhm
          145.399993896 95.6000061035 251 22 hintmask 10111000
          239 66 rmoveto
          -8 callsubr
          hintmask 01111000
          -99 callsubr
          endchar
        </CharString>
        <CharString name="Lslash">
          107 -3 16 -16 25 575 17 hstemhm
          145.399993896 95.6000061035 251 22 hintmask 10111000
          239 66 rmoveto
          -8 callsubr
          hintmask 01111000
          -99 callsubr
          endchar
        </CharString>
        <CharString name="M">
          394 -3 16 578 17 hstem
          131 26 502 89 vstem
          203 612 rmoveto
          -183 -4 0 -17 rlineto
          43 -3 63 -29 7 -41 0 -33 -2 -425 0 0 0 0 -2 -16 -12 -10 -19 -16 -71 -5 0 0 rrcurveto
          -16 vlineto
          33.5 3 38.25 1.25 37.25 0 37.25 0 36.25 -1.25 29.5 -2 rrcurveto
          18 vlineto
          -1.45500183105 0 -2.08200073242 -0.0330963134766 -2.57299804688 0 -11.5760040283 0 -21.4960021973 0.669494628906 -18.8179931641 7.36360168457 -16 17 -8 -11 0 38 0.332992553711 41.3330078125 0.11100769043 60.6669921875 0 62.5189971924 rrcurveto
          125.037002563 -0.444000244141 132.444000244 0 vhcurveto
          257 -504 16 0 229 510 0 -442 rlineto
          0 -11 -11 -14 -15 -7 -18 -8 -23 2 -15 -3 rrcurveto
          -16 vlineto
          32.5 2.5 48.75 1 49 0 49 0 49.25 -1 33.5 -1.5 rrcurveto
          18 vlineto
          0 -10.2399902344 -2.27560424805 -13.5020141602 vhcurveto
          -11.8140258789 0 -14.3109741211 1.74230957031 -12.1329956055 6.53329467773 -20 12 -9 24 0 0 rrcurveto
          503 vlineto
          1 25 78 9 14 1 rrcurveto
          0 19 -168 -7 -216 -490 rlineto
          -39 84 -185 352 -30 58 rrcurveto
          endchar
        </CharString>
        <CharString name="N">
          204 1.25 16.75 572 22 hstem
          110 41 376 37 vstem
          651 590 rmoveto
          21 vlineto
          -36.8519897461 -2.59497070312 -41.1610107422 -1.78704833984 -39.5999755859 0 -36.6950378418 0 -35.3529968262 1.53399658203 -29.3389892578 3.84802246094 rrcurveto
          2 -22 rlineto
          4.66101074219 0.325012207031 4.74398803711 0.161010742188 4.75399780273 0 39.1050109863 0 39.843963623 -10.8710327148 0.892028808594 -19.6149902344 rrcurveto
          -1 -371 rlineto
          0 0 -231 296 -92 128 rrcurveto
          -181 1 0 -17 rlineto
          0 0 87 -30 3 -17 1.3330078125 -69.6669921875 0.555999755859 -54 0 -49.8520202637 0 -99.7029724121 -2.22201538086 -83.1110076904 -2.6669921875 -158.667007446 -4.28601074219 -20.571395874 -63.0608825684 -1.46940612793 -17.9301147461 0 rrcurveto
          -2.98829650879 -1.73469543457 0.0408020019531 0 hvcurveto
          -16 vlineto
          33.5 3 40.75 1.25 39.75 0 39.75 0 38.75 -1.25 29.5 -2 rrcurveto
          18 vlineto
          0.399993896484 -50.5249938965 1.60000610352 -5.47500610352 -26 -9 16 24 vhcurveto
          0.0529937744141 14.1678009033 0.0250091552734 13.0272979736 0 12.0167999268 0 172.155105591 -5.10900878906 -35.233001709 0 139.449005127 0 33.5709838867 0.296005249023 43.6950073242 0.735000610352 59.1510009766 17 -18 366 -503 0 0 rrcurveto
          34 hlineto
          0 -2.22198486328 221.777999878 169.185012817 hvcurveto
          0 84.5929870605 0.554992675781 71.4440002441 1.6669921875 24 1 22 70 7 16 1 rrcurveto
          endchar
        </CharString>
        <CharString name="Nacute">
          204 1.25 16.75 572 22 -4 159 hstemhm
          110 41 112 196 68 37 hintmask 00101000
          263 626 rmoveto
          -34 callsubr
          hintmask 11010100
          223 -177 rmoveto
          -21 callsubr
          endchar
        </CharString>
        <CharString name="Ncaron">
          204 1.25 16.75 572 22 5 156 hstem
          110 41 62 253 61 37 vstem
          466 760 rmoveto
          -15 callsubr
          315 -27 rmoveto
          -21 callsubr
          endchar
        </CharString>
        <CharString name="Ncommaaccent">
          204 1.25 16.75 572 22 hstem
          110 41 376 37 vstem
          651 590 rmoveto
          -21 callsubr
          endchar
        </CharString>
        <CharString name="Ntilde">
          204 1.25 16.75 572 22 27.4000244141 47 -47 105.199996948 -90.2660522461 91.8030090332 -42.1429443359 42.1430053711 hstemhm
          110 41 63 12.1190948486 210.599899292 15.2810058594 75 37 hintmask 0000100110000000
          226.119140625 654.333984375 rmoveto
          hintmask 0000010110000000
          -32 callsubr
          hintmask 0001000110000000
          -31 callsubr
          hintmask 0010000110000000
          -30 callsubr
          hintmask 0000100110000000
          -29 callsubr
          hintmask 1100001001000000
          437 -64.8037109375 rmoveto
          -21 callsubr
          endchar
        </CharString>
        <CharString name="O">
          307 -12 20 611 17 hstem
          48 116 450 112 vstem
          406 8 rmoveto
          -191 -51 190 106 259 115 56 119 136 80 -107 -207 -172.003005981 -85 -124.996994019 -123 hvcurveto
          628 vmoveto
          -150 -208 -62 -277 -193 168 -116 188 142 180 107.978500366 209.021499634 271 -216 60 -104 hvcurveto
          endchar
        </CharString>
        <CharString name="OE">
          307 -12 20 611 17 hstem
          48 116 450 112 vstem
          406 8 rmoveto
          -20 callsubr
          628 vmoveto
          -19 callsubr
          endchar
        </CharString>
        <CharString name="Oacute">
          307 -12 20 611 17 11 159 hstem
          48 116 141 196 113 112 vstem
          305 665 rmoveto
          -34 callsubr
          -64 -798 rmoveto
          -20 callsubr
          628 vmoveto
          -19 callsubr
          endchar
        </CharString>
        <CharString name="Obreve">
          307 -12 20 611 17 hstem
          48 116 450 112 vstem
          406 8 rmoveto
          -20 callsubr
          628 vmoveto
          -19 callsubr
          endchar
        </CharString>
        <CharString name="Ocircumflex">
          307 -12 20 611 17 3 156 hstem
          48 116 103.5 255 91.5 112 vstem
          267.5 647 rmoveto
          -96 callsubr
          3.5 -787 rmoveto
          -20 callsubr
          628 vmoveto
          -19 callsubr
          endchar
        </CharString>
        <CharString name="Odieresis">
          307 -12 20 611 17 14 67 hstem
          48 116 132 61 87.5 61 108.5 112 vstem
          296 683 rmoveto
          -37 callsubr
          148.5 hmoveto
          -37 callsubr
          -38.5 -675 rmoveto
          -20 callsubr
          628 vmoveto
          -19 callsubr
          endchar
        </CharString>
        <CharString name="Ograve">
          307 -12 20 611 17 10 155 hstem
          48 116 162.5 181 106.5 112 vstem
          326.5 768 rmoveto
          -95 callsubr
          51.5 -793 rmoveto
          -20 callsubr
          628 vmoveto
          -19 callsubr
          endchar
        </CharString>
        <CharString name="Ohungarumlaut">
          307 -12 20 611 17 4 202 hstem
          48 116 156 268 26 112 vstem
          320 653 rmoveto
          -7 callsubr
          9 -189 rmoveto
          -7 callsubr
          -137 -834 rmoveto
          -20 callsubr
          628 vmoveto
          -19 callsubr
          endchar
        </CharString>
        <CharString name="Omacron">
          307 -12 20 611 17 hstem
          48 116 450 112 vstem
          406 8 rmoveto
          -20 callsubr
          628 vmoveto
          -19 callsubr
          endchar
        </CharString>
        <CharString name="Oslash">
          307 -12 20 611 17 hstem
          48 116 450 112 vstem
          406 8 rmoveto
          -20 callsubr
          628 vmoveto
          -19 callsubr
          endchar
        </CharString>
        <CharString name="Otilde">
          307 -12 20 611 17 1.40002441406 47 -47 105.199996948 -90.2660522461 91.8030090332 -42.1429443359 42.1430053711 hstemhm
          48 116 154 12.1190948486 210.599914551 15.2810058594 58 112 hintmask 0000100110000000
          330.119140625 652.333984375 rmoveto
          hintmask 0000010110000000
          -32 callsubr
          hintmask 0001000110000000
          -31 callsubr
          hintmask 0010000110000000
          -30 callsubr
          hintmask 0000100110000000
          -29 callsubr
          hintmask 1100001001000000
          88 -644.803710938 rmoveto
          -20 callsubr
          628 vmoveto
          -19 callsubr
          endchar
        </CharString>
        <CharString name="P">
          82 -1 16 262 21 291 23 -15 17 hstemhm
          142 98 183 98 hintmask 11101100
          521 437 rmoveto
          115 -108 60 -77 vhcurveto
          hintmask 11011100
          -60 0 -99 2 -105 0 rrcurveto
          -17 vlineto
          0 0 65.7850036621 -5.03497314453 1.21499633789 -20.9650268555 2 -34.5 1 -123.75 0 -120 0 -120 -1 -116.25 -2 -19.5 -2.57099914551 -20.571395874 -56.9391937256 -1.46940612793 -16.2156982422 0 rrcurveto
          -2.7027130127 -1.57139587402 0.0408020019531 0 hvcurveto
          -16 vlineto
          105 162 -2 0 hvcurveto
          15 vlineto
          -5.23199462891 -0.412994384766 -5.44000244141 -0.223510742188 -5.49200439453 0 rrcurveto
          -34.3999938965 -36.4360046387 8.76690673828 25.8695983887 hvcurveto
          1 242 rlineto
          0 19 -11 54 vhcurveto
          130 78 64 96 hvcurveto
          -98 hmoveto
          -1 -65 -33 -74 -83 0 rrcurveto
          -48 -18 5 0 hvcurveto
          hintmask 11101100
          286 vlineto
          18 0 17.7019958496 0.893005371094 17.0809936523 0 14.2340087891 0 13.800994873 -0.619995117188 13.1820068359 -2.27301025391 81 -15 8 -66 0 -69 rrcurveto
          endchar
        </CharString>
        <CharString name="Q">
          255 -211 75 79 38.0068054199 6.99319458008 19.8647003174 611.135314941 17 hstem
          36 116 427.005981445 111.994003296 7.05297851562 28.1629943848 vstem
          635 -136 rmoveto
          -103.885009766 0 -87.1149902344 116 -97 1 -0.438995361328 0.00450134277344 -0.442016601562 0.00230407714844 -0.441986083984 0 -29.782989502 0 -37.1140136719 -10.2118988037 -14.7799987793 -13.7949066162 -26 -26 -16 -49 0 -21 0 0 7 -4 11 0 1 7 22 79 47 0 rrcurveto
          102 0 54.8609924316 -154 156.139007568 0 74.2800292969 0 28.9359741211 78.8999938965 0 78.3441009521 0 3.92330932617 -0.072998046875 3.92199707031 -0.143005371094 3.91059875488 rrcurveto
          -28 -6 rlineto
          0.0349731445312 -1.80799865723 0.0180053710938 -1.78869628906 0 -1.76850891113 0 -49.0947875977 -13.7890014648 -33.5400085449 -49.2639770508 0 rrcurveto
          -263 124 rmoveto
          153.994995117 165.005004883 138.040008545 178.959991455 267.5 -203.5 63.5 -103.5 -150 -198 -60 -277 -193 148 -118 188 hvcurveto
          4 631 rmoveto
          162.405029297 40.6009521484 -147.044006348 -183.889007568 -141.798980713 -4.00695800781 -138.40335083 -209.469024658 -183.35899353 -30.171005249 193.722351074 104.412994385 259 105 54 119 hvcurveto
          endchar
        </CharString>
        <CharString name="R">
          155 -2 21 291 23 262 17 hstem
          136.320007324 92.6799926758 178.871002197 98.1369934082 vstem
          615 -2 rmoveto
          14 vlineto
          -19 1 -21 1 -21 30 -13 18 -9 29 -17 45 -30 82 -35 98 -105 10 88.8469848633 2.96200561523 72.1610107422 65.2959899902 0 64.2900085449 0 98.0249938965 -94.3789978027 54.4270019531 -70.6289978027 0 -34.2860107422 0 -51.9179840088 -0.653015136719 -57.983001709 0 rrcurveto
          -43.4860076904 0 -46.8979949951 0.367004394531 -45.4290008545 1.28601074219 rrcurveto
          -17 vlineto
          0 0 67 -10 4 -17 1.80000305176 -9.59997558594 2.52000427246 -110.760009766 0 -126.600006104 0 -84.4000091553 -1.12001037598 -91.4400024414 -3.19999694824 -73.1999969482 0 -23 -3 -7 -1 -4 -3.43800354004 -20.6269989014 -54.56199646 -1.37300109863 -22 0 rrcurveto
          -17 vlineto
          27.1837005615 1.75378417969 40.8322906494 0.792617797852 42.5130157471 0 54.4489898682 0 57.2059936523 -1.30018615723 34.8160095215 -2.24621582031 rrcurveto
          1 19 rlineto
          0 0.399993896484 -8.78399658203 1.07360839844 -34.216003418 0.526397705078 rrcurveto
          -32 -2 24 24 hvcurveto
          -1 243 65 -1 rlineto
          66.9840087891 -1.03100585938 34.016998291 -97.9720001221 17.9989929199 -65.9969940186 11.0530090332 -41.4499969482 15.2959899902 -60.1157073975 0 -33.4538726807 0 -2.86521911621 -0.111999511719 -2.66961669922 -0.236999511719 -2.4455871582 rrcurveto
          -102 585 rmoveto
          45.283996582 -11.1069946289 26.5870056152 -56.049987793 0 -58.0060119629 0 -64.2770080566 -33.6570129395 -64.5690002441 -78.6069946289 0 -6.66000366211 0 -6.66198730469 0.188995361328 -53.2850036621 0.820007324219 rrcurveto
          255 vlineto
          12.0110015869 1.56701660156 19.921005249 1.56597900391 20.8500061035 0 19.0759887695 0 19.8529968262 -1.31097412109 15.2890014648 -3.82202148438 rrcurveto
          endchar
        </CharString>
        <CharString name="Racute">
          155 -2 21 291 23 262 17 hstem
          136.320007324 92.6799926758 178.871002197 98.1369934082 vstem
          615 -2 rmoveto
          -6 callsubr
          -102 585 rmoveto
          -5 callsubr
          endchar
        </CharString>
        <CharString name="Rcaron">
          155 -2 21 291 23 262 17 11 156 hstemhm
          136.320007324 92.6799926758 -66 253 -8.12899780273 98.1369934082 hintmask 00010100
          416 766 rmoveto
          -15 callsubr
          hintmask 11101010
          329 -625 rmoveto
          -6 callsubr
          -102 585 rmoveto
          -5 callsubr
          endchar
        </CharString>
        <CharString name="Rcommaaccent">
          155 -2 21 291 23 262 17 hstem
          136.320007324 92.6799926758 178.871002197 98.1369934082 vstem
          615 -2 rmoveto
          -6 callsubr
          -102 585 rmoveto
          -5 callsubr
          endchar
        </CharString>
        <CharString name="S">
          107 -15 24 -10 178 442 19 hstemhm
          105 77 236 103 -68 19 hintmask 10111000
          294 638 rmoveto
          -150 -39 -86 -90 hvcurveto
          0 -75 63 -74 105 -36 85.8940124512 -29.449005127 59.1059875488 -43.550994873 0 -63 0 -57 -21 -75 -116 0 rrcurveto
          hintmask 01111000
          -98 callsubr
          hintmask 10111000
          23 -16 46 -38 78 0 183 0 53 89 0 98 0 89 -84.441986084 70.8200073242 -112.558013916 41.1799926758 -82 30 -60 50 0 57 0 46 45 63 65 0 64 0 44 -32 24 -35 rrcurveto
          hintmask 10110100
          -97 callsubr
          endchar
        </CharString>
        <CharString name="Sacute">
          107 -15 24 -10 178 442 19 12 159 hstemhm
          105 77 3 196 37 103 -68 19 hintmask 00010100
          185 668 rmoveto
          -34 callsubr
          hintmask 10101010
          -56 -171 rmoveto
          -4 callsubr
          hintmask 01101010
          -98 callsubr
          hintmask 10101010
          -3 callsubr
          hintmask 10101001
          -97 callsubr
          endchar
        </CharString>
        <CharString name="Scaron">
          107 -15 24 -10 178 442 19 14 156 hstemhm
          105 77 -3 253 -14 103 -68 19 hintmask 00010100
          432 795 rmoveto
          -15 callsubr
          hintmask 10101010
          -8 -14 rmoveto
          -4 callsubr
          hintmask 01101010
          -98 callsubr
          hintmask 10101010
          -3 callsubr
          hintmask 10101001
          -97 callsubr
          endchar
        </CharString>
        <CharString name="Scedilla">
          107 -188 187 -187 21 82 33 37 24 -10 178 442 19 hstemhm
          105 77 57 136 -43.8980102539 43.8979949951 43 103 -68 19 hintmask 1000011010000000
          284 -1 rmoveto
          hintmask 0110011010000000
          -36 -84 rlineto
          33.5 49.6019897461 -2 -27.6569976807 -42.7190093994 -33.4849853516 -9.62399291992 -56.6170043945 hvcurveto
          hintmask 1000011100000000
          -2 -21 rlineto
          hintmask 0010011010000000
          -26 callsubr
          hintmask 0001011001000000
          -12 640 rmoveto
          -4 callsubr
          hintmask 0000111001000000
          -98 callsubr
          hintmask 0001011001000000
          -3 callsubr
          hintmask 0001011000100000
          -97 callsubr
          endchar
        </CharString>
        <CharString name="Scircumflex">
          107 -15 24 -10 178 442 19 hstemhm
          105 77 236 103 -68 19 hintmask 10111000
          294 638 rmoveto
          -4 callsubr
          hintmask 01111000
          -98 callsubr
          hintmask 10111000
          -3 callsubr
          hintmask 10110100
          -97 callsubr
          endchar
        </CharString>
        <CharString name="T">
          119 -1 19 573 19.6150054932 hstem
          34 19 195 103 194 19 vstem
          227 36 rmoveto
          -12.6430053711 -16.8571014404 -27.9229888916 -1.17359924316 -25.3880004883 0 -4.1070098877 0 -4.03999328613 0.0307006835938 -3.8990020752 0 rrcurveto
          -19 300 19 vlineto
          -30 0 -37 2 -13 16 -9 11 -8.95098876953 20 -0.0490112304688 25 rrcurveto
          -1 499 114 -1 rlineto
          66.0050048828 -0.578979492188 11.9949951172 -101.421020508 3 -55 rrcurveto
          19 0 -2 181 rlineto
          -60.949005127 -2.36199951172 -91.5319824219 -1.02301025391 -93.216003418 0 -104.077011108 0 -106.175003052 1.27502441406 -68.050994873 flex1
          -4 -181 19 0 rlineto
          2.98629760742 50.766998291 24.7861022949 108.240020752 65.3265991211 0 10.1900024414 0 11.1900024414 -0.200012207031 81.5209960938 -0.807006835938 rrcurveto
          -1 -499 rlineto
          -0.0330047607422 -17 -3.96699523926 -17 -17 -22 rrcurveto
          endchar
        </CharString>
        <CharString name="Tbar">
          119 -1 19 573 19.6150054932 hstem
          34 19 195 103 194 19 vstem
          227 36 rmoveto
          -2 callsubr
          endchar
        </CharString>
        <CharString name="Tcaron">
          119 -1 19 573 19.6150054932 41.3850097656 156 hstemhm
          34 19 123 253 -181 103 194 19 hintmask 00101000
          429 795 rmoveto
          -15 callsubr
          hintmask 11010110
          -72 -616 rmoveto
          -2 callsubr
          endchar
        </CharString>
        <CharString name="Tcommaaccent">
          119 -1 19 573 19.6150054932 hstem
          34 19 195 103 194 19 vstem
          227 36 rmoveto
          -2 callsubr
          endchar
        </CharString>
        <CharString name="U">
          278 -19 29 582 19 hstem
          127.957000732 106.042999268 333.041015625 41.9589996338 vstem
          234 213 rmoveto
          0 0 -1.33299255371 94.6669921875 0 105.481018066 0 52.7409973145 0.332992553711 55.4440002441 47.6669921875 flex1
          13 13 25 7 38 3 rrcurveto
          19 vlineto
          -27.174987793 -2.61297607422 -51.2070159912 -1.52001953125 -52.2619934082 0 -47.7440032959 0 -48.6253967285 1.26898193359 -31.9866027832 flex1
          -14 vlineto
          0 0 79 -9 3 -17 1.2859954834 -42.8569946289 0.505004882812 -40.4240112305 0 -37.0639953613 0 -146.234985352 -6.83399963379 -71.7100067139 0 -14.2720031738 0 -188.400909424 151.07800293 -49.0370941162 105.964996338 0 151 5 73 93 0 154 0 0 -3.11102294922 87.1109924316 0 99.5559997559 rrcurveto
          0 49.7770080566 0.778015136719 52.8890075684 2.3330078125 46.6669921875 30 15 27 6 29 2 rrcurveto
          19 vlineto
          -27.174987793 -2.61297607422 -38.9169921875 -1.52001953125 -40.5280151367 0 -37.0250244141 0 -38.367980957 1.26898193359 -31.9869995117 flex1
          -14 vlineto
          0 0 79 -9 3 -17 3.59997558594 -120 0.720031738281 -99.1199951172 0 -60.0960083008 0 -48.970993042 -0.278991699219 6.99600219727 0 -27.9840087891 rrcurveto
          -171.930801392 -71.3310241699 -39.8941955566 -93.7099914551 -77 -91 20 183 vhcurveto
          endchar
        </CharString>
        <CharString name="Uacute">
          278 -19 29 582 19 22.5 159 hstem
          127.957000732 106.042999268 103.5 196 33.541015625 41.9589996338 vstem
          337.5 651.5 rmoveto
          -34 callsubr
          -268.5 -579.5 rmoveto
          -18 callsubr
          endchar
        </CharString>
        <CharString name="Ubreve">
          278 -19 29 582 19 hstem
          127.957000732 106.042999268 333.041015625 41.9589996338 vstem
          234 213 rmoveto
          -18 callsubr
          endchar
        </CharString>
        <CharString name="Ucircumflex">
          278 -19 29 582 19 28.5 156 hstem
          127.957000732 106.042999268 33.5 255 44.541015625 41.9589996338 vstem
          267.5 647.5 rmoveto
          -96 callsubr
          -168.5 -582.5 rmoveto
          -18 callsubr
          endchar
        </CharString>
        <CharString name="Udieresis">
          278 -19 29 582 19 39 67 hstem
          127.957000732 106.042999268 62 61 87.5 61 61.541015625 41.9589996338 vstem
          296 683 rmoveto
          -37 callsubr
          148.5 hmoveto
          -37 callsubr
          -210.5 -470 rmoveto
          -18 callsubr
          endchar
        </CharString>
        <CharString name="Ugrave">
          278 -19 29 582 19 25 155 hstem
          127.957000732 106.042999268 47.5 181 104.541015625 41.9589996338 vstem
          281.5 758 rmoveto
          -95 callsubr
          -75.5 -578 rmoveto
          -18 callsubr
          endchar
        </CharString>
        <CharString name="Uhungarumlaut">
          278 -19 29 582 19 8 202 hstemhm
          127.957000732 106.042999268 83 268 -17.958984375 41.9589996338 hintmask 00101000
          317 632 rmoveto
          -7 callsubr
          9 -189 rmoveto
          -7 callsubr
          hintmask 11010100
          -306 -608 rmoveto
          -18 callsubr
          endchar
        </CharString>
        <CharString name="Umacron">
          278 -19 29 582 19 hstem
          127.957000732 106.042999268 333.041015625 41.9589996338 vstem
          234 213 rmoveto
          -18 callsubr
          endchar
        </CharString>
        <CharString name="Uogonek">
          278 -19 29 582 19 hstem
          127.957000732 106.042999268 333.041015625 41.9589996338 vstem
          234 213 rmoveto
          -18 callsubr
          endchar
        </CharString>
        <CharString name="Uring">
          278 -19 29 582 19 hstem
          127.957000732 106.042999268 333.041015625 41.9589996338 vstem
          234 213 rmoveto
          -18 callsubr
          endchar
        </CharString>
        <CharString name="Utilde">
          278 -19 29 582 19 22.4000244141 47 -47 105.199996948 -90.2660522461 91.8030090332 -42.1429443359 42.1430053711 hstemhm
          127.957000732 106.042999268 33 12.1190948486 210.599914551 15.2810058594 62.041015625 41.9589996338 hintmask 0000100110000000
          279.119140625 648.333984375 rmoveto
          hintmask 0000010110000000
          -32 callsubr
          hintmask 0001000110000000
          -31 callsubr
          hintmask 0010000110000000
          -30 callsubr
          hintmask 0000100110000000
          -29 callsubr
          hintmask 1100001001000000
          -33 -435.803710938 rmoveto
          -18 callsubr
          endchar
        </CharString>
        <CharString name="V">
          217 592 19 hstem
          203 538 rmoveto
          0 0 1 21 8 16 5 9 56 7 11 1 rrcurveto
          19 vlineto
          -27.174987793 -2.61297607422 -58.0340118408 -1.52001953125 -58.7819976807 0 -53.6994018555 0 -54.3229980469 1.26898193359 -31.9866027832 flex1
          -14 vlineto
          9 -2 32 -10 14 -7 16 -8 23 -26 19 -48 42 -106 87 -185 90 -220 rrcurveto
          39 1 rlineto
          56 176 94 190 59 171 0 0 24 43 15 9 19 11 30 5 16 1 rrcurveto
          19 vlineto
          -27.174987793 -2.61297607422 -36.1860351562 -1.52001953125 -37.9209594727 0 -34.6420288086 0 -36.0889892578 1.26898193359 -31.9869995117 flex1
          0 -14 59 -16 rlineto
          16.6719970703 -5.55700683594 3.64300537109 -7.96997070312 0 -7.36602783203 0 -28.9649658203 -162.738006592 -374.107025146 -15.5769958496 -36.0350036621 -71 158 -44 103 -63 156 rrcurveto
          endchar
        </CharString>
        <CharString name="W">
          523 591 20 -19 19 hstemhm
          hintmask 01000000
          358 -11 rmoveto
          37 131 78 201 34 107 53 -130 81 -171 44 -138 rrcurveto
          33 hlineto
          51 180 61 170 58 182 0 0 24 43 15 9 19 11 30 5 16 1 rrcurveto
          19 vlineto
          -27.174987793 -2.61297607422 -36.1860351562 -1.52001953125 -37.9209594727 0 -34.6420288086 0 -36.0889892578 1.26898193359 -31.9869995117 flex1
          0 -14 59 -16 rlineto
          16.6719970703 -5.55700683594 3.64300537109 -7.96997070312 0 -7.36602783203 0 -33.0869750977 -108.523010254 -308.25402832 -25.7919921875 -81.7660064697 -52 153 -97 215 -31 117 rrcurveto
          -26 1 -35 -114 rlineto
          -30 -97 -77 -229 -10 -27 -33 88 -48 119 -42 121 -6.90699768066 20.1449890137 -3.26300048828 20.1449890137 0 16.7130126953 0 12.3240356445 1.77499389648 10.4579467773 3.39500427246 7.21502685547 5 9 64 13 11 1 rrcurveto
          19 vlineto
          hintmask 10000000
          -27.174987793 -2.61297607422 -63.4960174561 -1.52001953125 -63.9969940186 0 -58.4640045166 0 -58.8813934326 1.26898193359 -31.9866027832 flex1
          -14 vlineto
          9 -2 32 -10 14 -7 16 -8 24 -25 18 -48 rrcurveto
          184 -508 rlineto
          endchar
        </CharString>
        <CharString name="Wcircumflex">
          523 591 20 -19 19 33 156 hstemhm
          415 255 hintmask 00110000
          415 652 rmoveto
          -96 callsubr
          hintmask 01000000
          -192 -811 rmoveto
          37 131 78 201 34 107 53 -130 81 -171 44 -138 rrcurveto
          33 hlineto
          51 180 61 170 58 182 0 0 24 43 15 9 19 11 30 5 16 1 rrcurveto
          19 vlineto
          -27.1748046875 -2.61328125 -36.1865234375 -1.51953125 -37.9208984375 0 -34.6416015625 0 -36.0888671875 1.2685546875 -31.9873046875 flex1
          0 -14 59 -16 rlineto
          16.671875 -5.556640625 3.6435546875 -7.970703125 0 -7.365234375 0 -33.087890625 -108.5234375 -308.25390625 -25.7919921875 -81.765625 -52 153 -97 215 -31 117 rrcurveto
          -26 1 -35 -114 rlineto
          -30 -97 -77 -229 -10 -27 -33 88 -48 119 -42 121 -6.9072265625 20.14453125 -3.2626953125 20.1455078125 0 16.712890625 0 12.32421875 1.775390625 10.4580078125 3.39453125 7.21484375 5 9 64 13 11 1 rrcurveto
          19 vlineto
          hintmask 10000000
          -27.1748046875 -2.61328125 -63.49609375 -1.51953125 -63.9970703125 0 -58.4638671875 0 -58.8818359375 1.2685546875 -31.986328125 flex1
          -14 vlineto
          9 -2 32 -10 14 -7 16 -8 24 -25 18 -48 rrcurveto
          184 -508 rlineto
          endchar
        </CharString>
        <CharString name="X">
          251 -6 19 579 19 hstem
          552 532 rmoveto
          0 0 29 34 15 9 19 11 30 5 16 1 rrcurveto
          19 vlineto
          -27.174987793 -2.61297607422 -36.1860351562 -1.52001953125 -37.9209594727 0 -34.6420288086 0 -36.0889892578 1.26898193359 -31.9869995117 flex1
          0 -14 59 -16 rlineto
          16.9409790039 -5.64697265625 2.49200439453 -12.623046875 0 -6.93695068359 0 -6.53503417969 -0.503967285156 1.64398193359 -147.929016113 -203.901977539 rrcurveto
          -117 191 rlineto
          0 -4.31399536133 10.0650024414 11.5029907227 hvcurveto
          0 5.11199951172 0.851989746094 5.39703369141 2.46200561523 4.92297363281 5 9 46 7 11 1 rrcurveto
          19 vlineto
          -27.174987793 -2.61297607422 -60.7650146484 -1.52001953125 -61.3889923096 0 -56.0820159912 0 -56.6023864746 1.26898193359 -31.9866027832 flex1
          -14 vlineto
          9 -2 41 -2 13 -9 17 -11 27 -19 14 -18 rrcurveto
          163 -244 -165 -219 rlineto
          0 0 -29 -34 -15 -9 -19 -11 -30 -5 -16 -1 rrcurveto
          -19 vlineto
          27.1748046875 2.61328125 36.1861877441 1.5205078125 37.921005249 0 34.641998291 0 36.0900115967 -1.26953125 31.9859924316 flex1
          0 14 -59 16 rlineto
          -16.9409942627 5.64749145508 -2.49200439453 12.6220092773 0 6.9375 0 6.38279724121 2.07299804688 -2.08659362793 158.36000061 218.496795654 0 0 86.341003418 -123.26600647 50.658996582 -81.7339935303 5.09600830078 -8.22160339355 0.0059814453125 -3.51309204102 0 -12.5364074707 0 -5.01460266113 -0.815979003906 -5.14289855957 -2.28601074219 -4.57139587402 -5 -9 -47 -5 -11 -1 rrcurveto
          -19 vlineto
          27.174987793 2.61294555664 58.0340270996 1.52053833008 58.7820129395 0 53.6989746094 0 54.3229980469 -1.26901245117 31.9869995117 flex1
          14 vlineto
          -9 2 -47 12 -15 6 -16 6 -15.9580078125 23.5419921875 -16.0419921875 22.4580078125 -67.9630126953 95.1479949951 -99.0369873047 153.852005005 0 0 rrcurveto
          endchar
        </CharString>
        <CharString name="Y">
          163 -9 16 585 19 hstem
          274 102 vstem
          279 241 rmoveto
          -1 -32 -2 -62 -2 -118 -0.920013427734 -18.8665008545 -44.7749938965 -3.19697570801 -27.6449890137 0 -2.39300537109 0 -6.23500061035 0.0236358642578 -2.03199768066 0.0398406982422 rrcurveto
          -16 266 19 vlineto
          -30 -50 3 21 hvcurveto
          -3 158 -1 68 0 22 39 81 42 69 61 106 0 0 23 28 15 9 19 11 30 5 16 1 rrcurveto
          19 vlineto
          -27.174987793 -2.61297607422 -36.1860351562 -1.52001953125 -37.9209594727 0 -34.6420288086 0 -36.0889892578 1.26898193359 -31.9869995117 flex1
          0 -14 59 -16 rlineto
          16.4790039062 -4.80603027344 5.16400146484 -8.10699462891 0 -7.52197265625 0 -11.4960327148 -89.2340087891 -161.480957031 -52.408996582 -93.5880126953 -54 90 -30 54 -52 102 0 0 1 19 8 16 5 9 46 7 11 1 rrcurveto
          19 vlineto
          -27.174987793 -2.61297607422 -55.3030090332 -1.52001953125 -56.1739959717 0 -51.3177032471 0 -52.0437011719 1.26898193359 -31.9866027832 flex1
          -14 vlineto
          9 -2 32 -10 14 -7 8 -4 19 -14 17 -24 63 -87 65 -116 39 -92 rrcurveto
          endchar
        </CharString>
        <CharString name="Yacute">
          163 -9 16 585 19 32.5 159 hstemhm
          274 102 -98.5 196 hintmask 00101000
          277.5 661.5 rmoveto
          -34 callsubr
          hintmask 11010000
          -163.5 -561.5 rmoveto
          -17 callsubr
          endchar
        </CharString>
        <CharString name="Ycircumflex">
          163 -9 16 585 19 33 156 hstemhm
          216 255 -197 102 hintmask 00110000
          216 652 rmoveto
          -96 callsubr
          hintmask 11001000
          -72 -559 rmoveto
          -17 callsubr
          endchar
        </CharString>
        <CharString name="Ydieresis">
          163 -9 16 585 19 40 67 hstemhm
          244.5 61 -31.5 102 17 61 hintmask 00110100
          244.5 684 rmoveto
          -37 callsubr
          148.5 hmoveto
          -37 callsubr
          hintmask 11001000
          -114 -443 rmoveto
          -17 callsubr
          endchar
        </CharString>
        <CharString name="Z">
          119 -9 15 587 14.9349975586 hstem
          50 496 vstem
          50 7 rmoveto
          -16 vlineto
          71.6999969482 0.607635498047 80.5610046387 0.976821899414 99.9650115967 0 64.5529785156 0 72.6450195312 -0.407333374023 83.5759887695 flex1
          23 157 -22 0 rlineto
          -6 -55 -52 -77 -34 -4 -46 -6 -126 0 -48 0 -5.75700378418 0 -2.32499694824 3.97189331055 0 6.4128112793 0 22.5464935303 28.7389984131 52.7190093994 9.34300231934 16.3497924805 rrcurveto
          293 485 0 21 rlineto
          -51.6960144043 -1.86798095703 -95.9189758301 -4.19702148438 -108.007995605 0 -65.4050140381 0 -69.8370056152 1.53900146484 -67.1349945068 flex1
          -3 -141 19 0 rlineto
          8 36 17 79 66 1 rrcurveto
          230 4 rlineto
          -118 -207 -114 -182 -132 -197 rrcurveto
          endchar
        </CharString>
        <CharString name="Zacute">
          119 -9 15 587 14.9349975586 34.0650024414 159 hstemhm
          50 496 -302 196 hintmask 00101000
          244 660 rmoveto
          -34 callsubr
          hintmask 11010000
          -359 -794 rmoveto
          -1 callsubr
          endchar
        </CharString>
        <CharString name="Zcaron">
          119 -9 15 587 14.9349975586 43.0650024414 156 hstemhm
          50 496 -336 253 hintmask 00101000
          463 794 rmoveto
          -15 callsubr
          hintmask 11010000
          -283 -644 rmoveto
          -1 callsubr
          endchar
        </CharString>
        <CharString name="Zdotaccent">
          119 -9 15 587 14.9349975586 hstem
          50 496 vstem
          50 7 rmoveto
          -1 callsubr
          endchar
        </CharString>
        <CharString name="a">
          -10 -9 44 -42 32 -32 411 -18 18 hstemhm
          50 84 -66 100.00390625 121.99609375 80 72 15 hintmask 01000111
          442 81 rmoveto
          -94 callsubr
          hintmask 00100111
          -93 callsubr
          hintmask 10011011
          -92 callsubr
          hintmask 01000111
          -91 callsubr
          -167 20 rmoveto
          hintmask 10001011
          -90 callsubr
          endchar
        </CharString>
        <CharString name="aacute">
          -42 -9 44 -42 32 -32 411 -18 18 42 159 hstemhm
          50 84 -66 100.00390625 -35.00390625 196 -39 80 72 15 hintmask 0100001011000000
          442 81 rmoveto
          -94 callsubr
          hintmask 0010001011000000
          -93 callsubr
          hintmask 1001010011000000
          -92 callsubr
          hintmask 0100001011000000
          -91 callsubr
          -167 20 rmoveto
          hintmask 1000010011000000
          -90 callsubr
          hintmask 0000100100000000
          -157 257 rmoveto
          -34 callsubr
          endchar
        </CharString>
        <CharString name="abreve">
          -42 -9 44 -42 32 -32 411 -18 18 hstemhm
          50 84 -66 100.00390625 121.99609375 80 72 15 hintmask 01000111
          442 81 rmoveto
          -94 callsubr
          hintmask 00100111
          -93 callsubr
          hintmask 10011011
          -92 callsubr
          hintmask 01000111
          -91 callsubr
          -167 20 rmoveto
          hintmask 10001011
          -90 callsubr
          endchar
        </CharString>
        <CharString name="acircumflex">
          -42 -9 44 -42 32 -32 411 -18 18 30 156 hstemhm
          50 84 -66 100.00390625 -80.00390625 255 -53 80 72 15 hintmask 0000100100000000
          88 442 rmoveto
          -96 callsubr
          hintmask 0100001011000000
          219 -509 rmoveto
          -94 callsubr
          hintmask 0010001011000000
          -93 callsubr
          hintmask 1001010011000000
          -92 callsubr
          hintmask 0100001011000000
          -91 callsubr
          -167 20 rmoveto
          hintmask 1000010011000000
          -90 callsubr
          endchar
        </CharString>
        <CharString name="acute">
          -55 446 159 hstem
          115 196 vstem
          115 464 rmoveto
          -34 callsubr
          endchar
        </CharString>
        <CharString name="adieresis">
          -42 -9 44 -42 32 -32 411 -18 18 75 67 hstemhm
          50 84 -66 100.00390625 -35.50390625 61 87.5 61 -52 80 72 15 hintmask 0000100110000000
          132.5 512 rmoveto
          -37 callsubr
          148.5 hmoveto
          -37 callsubr
          hintmask 0100001001100000
          161 -431 rmoveto
          -94 callsubr
          hintmask 0010001001100000
          -93 callsubr
          hintmask 1001010001100000
          -92 callsubr
          hintmask 0100001001100000
          -91 callsubr
          -167 20 rmoveto
          hintmask 1000010001100000
          -90 callsubr
          endchar
        </CharString>
        <CharString name="ae">
          213 -18 44 -43 24 205 15 159 18 hstemhm
          40 84 -66 100 136.868011475 84.1060028076 175.221984863 87.0469970703 hintmask 00110011
          380 227 rmoveto
          5 91 25 61 49 0 48 0 32 -32 10 -39 3.80401611328 -13.9469909668 1.39196777344 -17.1629943848 0 -17.8300170898 0 -10.2949981689 -0.463989257812 -10.5160064697 -0.731994628906 -10.2489929199 rrcurveto
          -243 -157 rmoveto
          hintmask 01110111
          33 -48 45 -40 85 0 106 0 48 75 13 32 rrcurveto
          -27 19 rlineto
          -11 -30 -37 -72 -88 0 -69.7810058594 1.52587890625e-05 -28.2449951172 90.7996826172 0 87.6123046875 0 2.65800476074 0.0260009765625 2.65899658203 0 21.2709960938 rrcurveto
          261 1 rlineto
          0.879028320312 9.66499328613 0.363952636719 8.29299926758 0 7.24700927734 0 17.4960021973 -2.12200927734 11.3990020752 -2.12097167969 9.89999389648 -19 94 -80 26 -58 0 -45 0 -52 -14 -41 -39 -30 40 -55 20 -50 0 -24 0 -43 -1 -36 -27 rrcurveto
          -20 -15 -26 -24 0 -31 rrcurveto
          -28 23 -27 25 23 29 21 25 17 -3 29 -25 vhcurveto
          5 20 21 23 42 0 rrcurveto
          63 35 -40 -53 -39 -1 -25 0 hvcurveto
          hintmask 10111011
          -36 -2 -219 4 0 -126 0 -85 62 -38 57 0 61 1 71 45 19 43 rrcurveto
          -11 11 rmoveto
          -13 -24 -46.8049926758 -32 -41.1950073242 0 -44 0 -30 28 0 62 0 85 79 4 92 10 -0.0910034179688 -5.72700500488 -0.0409851074219 -5.42199707031 0 -5.15699768066 0 -51.5700073242 4.13198852539 -25.1239929199 0 -40 rrcurveto
          endchar
        </CharString>
        <CharString name="agrave">
          -42 -9 44 -42 32 -32 411 -18 18 47 155 hstemhm
          50 84 -66 100.00390625 -51.00390625 181 -8 80 72 15 hintmask 0000100100000000
          117 573 rmoveto
          -95 callsubr
          hintmask 0100001011000000
          297 -525 rmoveto
          -94 callsubr
          hintmask 0010001011000000
          -93 callsubr
          hintmask 1001010011000000
          -92 callsubr
          hintmask 0100001011000000
          -91 callsubr
          -167 20 rmoveto
          hintmask 1000010011000000
          -90 callsubr
          endchar
        </CharString>
        <CharString name="amacron">
          -42 -9 44 -42 32 -32 411 -18 18 hstemhm
          50 84 -66 100.00390625 121.99609375 80 72 15 hintmask 01000111
          442 81 rmoveto
          -94 callsubr
          hintmask 00100111
          -93 callsubr
          hintmask 10011011
          -92 callsubr
          hintmask 01000111
          -91 callsubr
          -167 20 rmoveto
          hintmask 10001011
          -90 callsubr
          endchar
        </CharString>
        <CharString name="ampersand">
          146 -11 41 270 15 273 22 hstemhm
          27 77.0970001221 -1.09700012207 62 151 63 67.2449951172 39.7550048828 95 20 hintmask 11101111
          224 372 rmoveto
          -30 34 -29 38.9559936523 0 38.0440063477 rrcurveto
          55 28 50 46 49 28 -38 -59 vhcurveto
          0 -73 -23 -10 -69 -36 rrcurveto
          203 -349 rmoveto
          13.2919921875 -15.6669921875 29.9550170898 -17.193359375 50.7529907227 -0.1396484375 rrcurveto
          71 9 68 39 hvcurveto
          -20 3 rlineto
          -44 -8 -27 -42 vhcurveto
          -32 0 -27.8640136719 39.3311004639 -14.1359863281 17.6688995361 rrcurveto
          -24 30 rlineto
          11 14 42 63 0 44 0 25 11 18 6 6 7 7 19 4 36 0 rrcurveto
          1 18 -190 0 3 -15 rlineto
          23 0 18.9379882812 -7.71398925781 13.0620117188 -18.2860107422 10.7139892578 -15 1.53100585938 -8.87800598145 0 -10.771987915 0 -44.9940032959 -3.88400268555 -26.1549987793 -27.3609924316 -34.2010040283 -85 100 -62 80 -25 34 85.2510070801 50.7680053711 50.7489929199 38.2319946289 0 66 rrcurveto
          78 -64 29 -78 -51 -83 -37 -91 vhcurveto
          0 -53 31 -58 27 -31 -14.7510070801 -8.65301513672 -17.3639984131 -10.8869934082 -13.5590057373 -9.45999145508 -57.2864837646 -44.1839904785 -31.0427093506 -38.1520080566 0 -75.3370056152 rrcurveto
          hintmask 11110111
          0 -0.440994262695 0.0010986328125 -0.442001342773 0.00210571289062 -0.444000244141 0 -65 17 -13 17 -24 33.0635070801 -46.677734375 71.2744903564 -14.322265625 56.6620025635 0 64 0 57 29 46 47 rrcurveto
          -135 -35 rmoveto
          -45.5469970703 0 -43.4530029297 29 -27 38 -21.6600036621 30.4840087891 -12.2429962158 29.3929901123 0 32.7010040283 0 30.9010009766 10.9449920654 59.6499938965 66.9580078125 32.8710021973 rrcurveto
          0.00199890136719 0.00100708007812 rlineto
          0.49299621582 0 113.367004395 -136.657012939 76.1380004883 -95.3439941406 -43 -40 -24 -11 -51 0 rrcurveto
          endchar
        </CharString>
        <CharString name="aogonek">
          -19 -222 24 189 44 -42 32 -32 411 -18 18 hstemhm
          50 84 -66 100.00390625 23.99609375 77 21 80 72 15 hintmask 1000000111000000
          192 -131 rmoveto
          -52 44 -39 72 vhcurveto
          63 0 38 47 12 33 -5 5 -16.3280029297 5.33599853516 -2.66598510742 2.66700744629 -1.50201416016 -26.7890014648 -36.5039978027 -42.2140045166 -34 0 -26 0 -30 17 0 61 0 62 84.0650024414 44.3330078125 17.9349975586 8.6669921875 -0.628997802734 2.02696228027 -3.3330078125 6.86463928223 -5.10000610352 0 rrcurveto
          -19.2229919434 0 -44.3370056152 -18.279296875 -19.3779907227 -8.6123046875 rrcurveto
          -27 -12 -60 -40 0 -56 rrcurveto
          hintmask 0010001011000000
          250 212 rmoveto
          -94 callsubr
          hintmask 0001001011000000
          -93 callsubr
          hintmask 0100110011000000
          -92 callsubr
          hintmask 0010001011000000
          -91 callsubr
          -167 20 rmoveto
          hintmask 0100010011000000
          -90 callsubr
          endchar
        </CharString>
        <CharString name="aring">
          -42 -9 44 -42 32 -32 411 -18 18 74.5 25.1999969482 113.200012207 25.6000061035 hstemhm
          50 84 -66 100.00390625 -23.603515625 32 97.599609375 33.6000061035 -17.6000061035 80 72 15 hintmask 0000110011000000
          226 642.5 rmoveto
          -28 callsubr
          -49.599609375 -82.400390625 rmoveto
          -27 callsubr
          hintmask 0100000100110000
          265.599609375 -479.099609375 rmoveto
          -94 callsubr
          hintmask 0010000100110000
          -93 callsubr
          hintmask 1001001000110000
          -92 callsubr
          hintmask 0100000100110000
          -91 callsubr
          -167 20 rmoveto
          hintmask 1000001000110000
          -90 callsubr
          endchar
        </CharString>
        <CharString name="asciicircum">
          -55 434 156 hstem
          70 255 vstem
          70 442 rmoveto
          -96 callsubr
          endchar
        </CharString>
        <CharString name="asterisk">
          89 161 374 hstem
          213 71 vstem
          241 535 rmoveto
          -16 -19 -3 -36 -42 45 -101 0 hvcurveto
          7 24 19 70 0 52 rrcurveto
          17 -13 19 -23 vhcurveto
          7 -374 rmoveto
          23 13 19 17 hvcurveto
          0 52 -27 71 -6 26 rrcurveto
          0 -38 -104 -42 -36 19 -3 16 hvcurveto
          -164 272 rmoveto
          -3.51000976562 -6.14199829102 -3.31748962402 -6.91299438477 0 -7.3450012207 0 -9.39501953125 5.42869567871 -10.1019897461 17.3988037109 -10.1029968262 37 -21 111 -11 0 0 -17 18 -53 51 -45 26 -5.12899780273 3.29699707031 -6.33801269531 1.8210144043 -6.56198120117 0 -11.3480072021 0 -12.0196075439 -5.4460144043 -7.60339355469 -12.6719970703 rrcurveto
          327 -181 rmoveto
          3.71798706055 6.1960144043 1.60601806641 6.2919921875 0 5.97198486328 0 13.3040161133 -7.97100830078 11.7139892578 -10.3529968262 5.52200317383 -45 26 -74 14 -26 7 0 0 71 -86 36 -21 10.174987793 -5.90800476074 8.12802124023 -2.35299682617 6.61199951172 0 13.5310058594 0 7.17999267578 9.85600280762 5.37399291992 9.4049987793 rrcurveto
          -316 -4 rmoveto
          5.37399291992 -9.4049987793 7.18000793457 -9.85600280762 13.5309906006 0 6.61199951172 0 8.12800598145 2.35299682617 10.1750030518 5.90800476074 37 21 65 90 0 0 -24 -6 -71 -19 -45 -26 -9.80000305176 -5.60000610352 -8.33000183105 -11.9700012207 0 -13.5379943848 0 -5.80200195312 1.5299987793 -6.08999633789 3.60000610352 -6 rrcurveto
          320 193 rmoveto
          -6.9700012207 12.6719970703 -11.7869873047 5.4460144043 -11.5180053711 0 -6.66000366211 0 -6.56900024414 -1.8210144043 -5.49600219727 -3.29699707031 -45 -26 -47 -58 -20 -19 0 0 109 19 36 21 17.5530090332 10.191986084 5.69000244141 10.1920166016 0 9.46600341797 0 7.25198364258 -3.33901977539 6.82501220703 -3.90399169922 6.07299804688 rrcurveto
          endchar
        </CharString>
        <CharString name="at">
          127 -132 26 99 48 234 17 94 22 hstem
          49 68 54 76 299 28 vstem
          445 2 rmoveto
          64 8 65 97 0 73 rrcurveto
          104 -65 124 -162 -146 -152 -101 -187 -134 105 -118 157 vhcurveto
          128 0 24 46 42 32 rrcurveto
          -20 28 rlineto
          -30 -32 -34 -48 -108 0 rrcurveto
          -166 -30 110 130 107 61 145 159 203 6 -140 -68 hvcurveto
          0 -105 -59 -35 -34 -4 14 121 2 28 16 109 rrcurveto
          -67 0 -4 -29 rlineto
          -21 18 -31 11 -45 0 rrcurveto
          -44 -102 -39 -132 -84 43 -44 58 hvcurveto
          61 0 35 50 20 23 -7 -36 -6 -37 0 0 rrcurveto
          18 103 rmoveto
          -13 -23 -38 -32 -41 0 rrcurveto
          -43 -11 29 62 86 37 57 39 hvcurveto
          40 0 30 -20 20 -13 rrcurveto
          endchar
        </CharString>
        <CharString name="atilde">
          -42 -9 44 -42 32 -32 411 -18 18 32.3999938965 47 -47 105.199996948 -90.2659606934 91.8030090332 -42.1430358887 42.1430053711 hstemhm
          50 84 -66 100.00390625 -43.00390625 12.1190948486 152.880905151 80 -22.2810058594 15.2810058594 79 15 hintmask 0000001000101000
          137.119140625 451.333984375 rmoveto
          hintmask 0000000100101000
          -32 callsubr
          hintmask 0000010000101000
          -31 callsubr
          hintmask 0000100000101000
          -30 callsubr
          hintmask 0000001000101000
          -29 callsubr
          hintmask 0100000001010100
          317 -370.803710938 rmoveto
          -94 callsubr
          hintmask 0010000001010100
          -93 callsubr
          hintmask 1001000010010100
          -92 callsubr
          hintmask 0100000001010100
          -91 callsubr
          -167 20 rmoveto
          hintmask 1000000010010100
          -90 callsubr
          endchar
        </CharString>
        <CharString name="b">
          43 -10 36 347 30 hstem
          101 82 205 92 vstem
          480 200 rmoveto
          145 -80 58 -92 vhcurveto
          -67 0 -34 -45 -28 -38 rrcurveto
          4 324 rlineto
          -27.466796875 -12.6201171875 -56.3466796875 -12.7392578125 -69.1865234375 -3.640625 rrcurveto
          -12 vlineto
          32 -2 39 -5 0 -14 1.859375 -75.2998046875 0.7783203125 -100.794921875 0 -101.08203125 0 -116.384765625 -1.03125 -116.766601562 -1.6064453125 -78.671875 0 0 4.888671875 -1.3330078125 8.2958984375 0 4.1484375 0 5 0.3330078125 5.6669921875 1 15 23 6 22 22 24 rrcurveto
          31 -34 41 -38 54 0 rrcurveto
          86 96 77 133 hvcurveto
          -92 3 rmoveto
          -103 -46 -74 -65 -67 -24 58 0 vhcurveto
          -3 122 7 90 rlineto
          0 37 77 59 85 17 -101 -69 vhcurveto
          endchar
        </CharString>
        <CharString name="backslash">
          -165 13 276 vstem
          65 709 rmoveto
          -52 -14 224 -837 52 14 rlineto
          endchar
        </CharString>
        <CharString name="bar">
          -165 124 54 vstem
          124 717 rmoveto
          -867 54 867 vlineto
          endchar
        </CharString>
        <CharString name="braceleft">
          -191 -128 26 360 38 350 22 hstem
          101 61 vstem
          101 258 rmoveto
          -386 155 26 -94 748 94 22 -155 -372 -79 -38 vlineto
          endchar
        </CharString>
        <CharString name="braceright">
          -191 -128 26 360 38 350 22 hstemhm
          31 230 -136 61 hintmask 11101000
          186 668 rmoveto
          hintmask 11110000
          -155 -22 hlineto
          hintmask 11101000
          94 -748 hlineto
          hintmask 11110000
          -94 -26 hlineto
          hintmask 11101000
          155 386 hlineto
          hintmask 11110000
          75 38 hlineto
          hintmask 11101000
          -75 hlineto
          endchar
        </CharString>
        <CharString name="bracketleft">
          -191 -128 26 748 22 hstemhm
          101 61 -61 155 hintmask 11010000
          101 668 rmoveto
          -796 155 26 vlineto
          hintmask 11100000
          -94 748 hlineto
          hintmask 11010000
          94 22 hlineto
          endchar
        </CharString>
        <CharString name="bracketright">
          -191 -128 26 -26 796 -22 22 hstemhm
          125 61 hintmask 01010000
          186 668 rmoveto
          -155 hlineto
          hintmask 10110000
          -22 94 -748 -94 -26 vlineto
          hintmask 01010000
          155 hlineto
          endchar
        </CharString>
        <CharString name="brokenbar">
          -165 124 54 vstem
          124 717 rmoveto
          -341 54 341 vlineto
          -512 vmoveto
          -54 -355 54 hlineto
          endchar
        </CharString>
        <CharString name="c">
          -43 -15 33 370 17 hstem
          50 88 152 113 vstem
          251 405 rmoveto
          -89 callsubr
          endchar
        </CharString>
        <CharString name="cacute">
          -23 -15 33 370 17 41 159 hstemhm
          50 88 5 196 -49 113 hintmask 00101000
          143 464 rmoveto
          -34 callsubr
          hintmask 11010100
          -57 -200 rmoveto
          -89 callsubr
          endchar
        </CharString>
        <CharString name="caron">
          -55 439 156 hstem
          71 253 vstem
          324 582 rmoveto
          -15 callsubr
          endchar
        </CharString>
        <CharString name="ccaron">
          -23 -15 33 370 17 34 156 hstemhm
          50 88 -31 253 -70 113 hintmask 00101000
          360 582 rmoveto
          -15 callsubr
          hintmask 11010100
          21 -34 rmoveto
          -89 callsubr
          endchar
        </CharString>
        <CharString name="ccedilla">
          -43 -188 187 -187 21 82 33 37 33 370 17 hstemhm
          50 88 50 136 -43.8984375 43.8984375 -34 113 hintmask 1000110100000000
          233 -1 rmoveto
          hintmask 0110110100000000
          -16 callsubr
          hintmask 1000111000000000
          -2 -21 rlineto
          hintmask 0010110100000000
          -26 callsubr
          hintmask 0001110010000000
          -4 407 rmoveto
          -89 callsubr
          endchar
        </CharString>
        <CharString name="ccircumflex">
          -23 -15 33 370 17 29 156 hstemhm
          50 88 -27 255 -76 113 hintmask 00101000
          111 442 rmoveto
          -96 callsubr
          hintmask 11010100
          5 -185 rmoveto
          -89 callsubr
          endchar
        </CharString>
        <CharString name="cdotaccent">
          -23 -15 33 370 17 hstem
          50 88 152 113 vstem
          251 405 rmoveto
          -89 callsubr
          endchar
        </CharString>
        <CharString name="circumflex">
          -55 439 156 hstem
          74 255 vstem
          74 447 rmoveto
          -96 callsubr
          endchar
        </CharString>
        <CharString name="colon">
          -218 -12 132 144 141 hstem
          58 134 vstem
          123 405 rmoveto
          -27 -38 -21.9890136719 -44.0109863281 -37 20 -38 41 49 24 34 44 49.0409851074 -42 13.9590148926 -27 hvcurveto
          -285 vmoveto
          -27 -38 -21.9886016846 -44.0113983154 -32 30 -34 31 43 30 24 45 49.0410003662 -42 13.9589996338 -27 hvcurveto
          endchar
        </CharString>
        <CharString name="comma">
          -218 -9 132 hstem
          57.9109039307 134.136993408 vstem
          114 -9 rmoveto
          16.6670074463 0 7.33299255371 3 18 11 -2 -33 -38.6669921875 -47.9989929199 -30 -14 rrcurveto
          5.6669921875 -15.0010070801 rlineto
          41.3260040283 4.91999816895 59.7220001221 71.7238006592 0 73.7481079102 rrcurveto
          50.030090332 -41.3880004883 27.5780029297 -27.6600036621 -26.0357055664 -39.0533905029 -20.6409912109 -47.2336120605 -31.1850891113 26.0148925781 -32.9403076172 30.0742034912 vhcurveto
          endchar
        </CharString>
        <CharString name="copyright">
          -31 24 44 23 267 21 65 24 hstem
          14 24 59 62 197 15 87 24 vstem
          259 348 rmoveto
          -61 -101 -35 -122 -102 70 -52 91 hvcurveto
          68 0 31 45 18 43 -5 3 -14 5 0 0 -19 -44 -15 -29 -64 0 rrcurveto
          -82 -17 63 71 82 26 51 68 hvcurveto
          64 0 32 -24 7 -49 rrcurveto
          15 0 1 97 -15 0 rlineto
          -2 -15 0 -7 -12 -7 -9 11 -36 15 -39 0 rrcurveto
          -11 89 rmoveto
          -36 callsubr
          -24 vmoveto
          -35 callsubr
          endchar
        </CharString>
        <CharString name="currency">
          -9 19 188 44 53 44 75 -21 116 22 -14 17 hstemhm
          126.354003906 92.6459960938 hintmask 11111010
          219 58 rmoveto
          140 175 44 -175 53 175 44 -175 170 93 vlineto
          66 0 27 -80 8 -36 rrcurveto
          19 0 rlineto
          hintmask 11110110
          -3 141 rlineto
          -53.5 -2 -60 -1 -63.875 0 -63.875 0 -67.75 1 -69 flex1
          -17 vlineto
          0 0 69 -9 3 -17 2.51499938965 -8.98098754883 1.09400939941 -55.8300170898 0 -70.1279907227 0 -5.60601806641 -0.00701904296875 -5.69299316406 -0.0139923095703 -5.7619934082 rrcurveto
          -88.5879974365 -44 88.3540039062 hlineto
          -0.140014648438 -17.5369873047 -0.196990966797 -17.7990112305 -0.246002197266 -17.6640014648 rrcurveto
          -87.7709960938 -44 87.0440063477 hlineto
          -1.51699829102 -79.2059936523 -2.5110168457 -69.2809143066 -3.01599121094 -20.513092041 -2.25500488281 -15.3348999023 -77.7449951172 -6.66510009766 0 0 rrcurveto
          -16 393 vlineto
          23 157 -22 0 rlineto
          -6 -55 -52 -81 -34 -2 rrcurveto
          -87 hlineto
          -26 -8 24 24 hvcurveto
          endchar
        </CharString>
        <CharString name="d">
          23 -6.0087890625 32.0087890625 -26 12 369 21 203 17 hstemhm
          60 99 196 78.6708984375 hintmask 10111100
          439 641 rmoveto
          -88 callsubr
          hintmask 01111100
          -87 callsubr
          -90 -513 rmoveto
          hintmask 10111100
          -86 callsubr
          endchar
        </CharString>
        <CharString name="dcaron">
          125 -6.0087890625 32.0087890625 -26 12 369 21 97 147 -41 17 hstemhm
          60 99 196 78.6708984375 11.3291015625 149 hintmask 00010001
          513 499 rmoveto
          19.10546875 0 6.89453125 5 16 10 -3 -36 -58 -39.5 -21 -8.5 0 0 4.5 -9 3.5 -6 47 6 66 59.5 0 82.5 rrcurveto
          54.037109375 -46 28.962890625 -30 -30 -43 -24.9580078125 -48.0419921875 -37 28 -37 40 vhcurveto
          hintmask 10101110
          -74 142 rmoveto
          -88 callsubr
          hintmask 01101110
          -87 callsubr
          -90 -513 rmoveto
          hintmask 10101110
          -86 callsubr
          endchar
        </CharString>
        <CharString name="dcroat">
          0 -6.0087890625 32.0087890625 -26 12 369 21 203 17 hstemhm
          60 99 196 78.6708984375 hintmask 10111100
          439 641 rmoveto
          -88 callsubr
          hintmask 01111100
          -87 callsubr
          -90 -513 rmoveto
          hintmask 10111100
          -86 callsubr
          endchar
        </CharString>
        <CharString name="dieresis">
          -55 479 67 hstem
          96.5 61 87.5 61 vstem
          96.5 512 rmoveto
          -37 callsubr
          148.5 hmoveto
          -37 callsubr
          endchar
        </CharString>
        <CharString name="divide">
          50 91 43 60 51 91 hstem
          196 88 vstem
          238 386 rmoveto
          -17 -25 -16 -28 -21 14 -26 28 33 13 20 29 34.0150146484 -27 7.98498535156 -19 hvcurveto
          -193 -142 rmoveto
          -60 419 60 vlineto
          -226 -103 rmoveto
          -17 -25 -16 -28 -21 14 -26 28 33 13 20 29 34.0149993896 -27 7.98500061035 -19 hvcurveto
          endchar
        </CharString>
        <CharString name="dollar">
          107 -100.585998535 25.6018981934 58.9841003418 110 313.385986328 21.9839935303 hstemhm
          112 122 -89 68 56.7260131836 50.2740020752 68.25 76.25 -34.5 30 hintmask 11101101
          460 307 rmoveto
          0 81.2300109863 -88.6130065918 36.0709838867 -51.3869934082 5.06900024414 rrcurveto
          97.1300048828 -51 vlineto
          0.566009521484 -99.4169921875 rlineto
          -85.6380157471 -13.7850036621 -38.9279937744 -61.1329956055 0 -76.1650085449 0 -54.2660064697 62.3560028076 -58.4529876709 63.8830108643 -29.6460113525 rrcurveto
          1.18798828125 -208.619094849 rlineto
          -48.5400085449 2.71340942383 -69.7859954834 23.3302001953 -12.1009979248 59.9404907227 14 -22 24.8630065918 -5 10.1369934082 0 rrcurveto
          hintmask 11110110
          25 18 24 32 29.0176086426 -30 24.9823913574 -30 -22.5500030518 -39.4499969482 -20 -46 hvcurveto
          0 -92.3844909668 99.7089996338 -32.2980041504 60.8639984131 -3.90350341797 rrcurveto
          0.427001953125 -74.9140014648 47 0 0 76.532409668 rlineto
          109.558013916 13.3596801758 34.941986084 76.7661132812 0 66.841796875 0 64.7610015869 -63.6140136719 44.1609954834 -80.8859863281 30.7799987793 rrcurveto
          209.683990479 vlineto
          hintmask 11101101
          47.3770141602 -3.22998046875 62.6229858398 -25.240020752 0 -66.9159851074 -11 13 -16 9 -19 0 rrcurveto
          -12 -28 -12.8640136719 -33.1359863281 -37 21 -20 32 hvcurveto
          29 34 41 35 hvcurveto
          -189.257995605 -86.2109985352 rmoveto
          -36.4700012207 23.0809936523 -21.2720031738 31.1450195312 0 31.9849853516 0 45.3200073242 24.7100067139 32.2529907227 32.0160064697 14.533996582 rrcurveto
          50.2739868164 -287.95199585 rmoveto
          hintmask 11100110
          40.7430114746 -21.007598877 27.5069885254 -23.4187011719 0 -35.9786987305 0 -35.341217041 -14.1809997559 -49.3514862061 -54.0690002441 -16.0442047119 rrcurveto
          endchar
        </CharString>
        <CharString name="dotlessi">
          -211 0 16 358 16 hstem
          101 80 vstem
          181 412 rmoveto
          -38 -13 -55 -7 -49 -2 rrcurveto
          -16 vlineto
          28 0 10 -2 24 -8 rrcurveto
          -328 vlineto
          -3 -19 -33 0 -26 -1 rrcurveto
          -16 vlineto
          27.403503418 2.36236572266 37.4494934082 1.02297973633 36.841003418 0 41.1349945068 0 40.3769989014 -1.27523803711 24.7940063477 flex1
          16 vlineto
          -17 0 -47 1 -4 19 0 278 0 -71 2 169 rrcurveto
          endchar
        </CharString>
        <CharString name="e">
          -27 -17 24 205 15 152 18 hstem
          50 96 178.196289062 87.046875 vstem
          147 227 rmoveto
          -85 callsubr
          -177 -16 rmoveto
          -84 callsubr
          endchar
        </CharString>
        <CharString name="eacute">
          -55 -17 24 205 15 152 18 49 159 hstemhm
          50 96 -2 196 -15.8037109375 87.046875 hintmask 11101010
          147 227 rmoveto
          -85 callsubr
          -177 -16 rmoveto
          -84 callsubr
          hintmask 00010100
          -2 274 rmoveto
          -34 callsubr
          endchar
        </CharString>
        <CharString name="ebreve">
          -35 -17 24 205 15 152 18 hstem
          50 96 178.196289062 87.046875 vstem
          147 227 rmoveto
          -85 callsubr
          -177 -16 rmoveto
          -84 callsubr
          endchar
        </CharString>
        <CharString name="ecaron">
          -35 -17 24 205 15 152 18 42 156 hstemhm
          50 96 -51 253 -23.8037109375 87.046875 hintmask 00010100
          348 582 rmoveto
          -15 callsubr
          hintmask 11101010
          -71 -212 rmoveto
          -85 callsubr
          -177 -16 rmoveto
          -84 callsubr
          endchar
        </CharString>
        <CharString name="ecircumflex">
          -55 -17 24 205 15 152 18 37 156 hstemhm
          50 96 -52 255 -24.8037109375 87.046875 hintmask 00010100
          94 442 rmoveto
          -96 callsubr
          hintmask 11101010
          -82 -363 rmoveto
          -85 callsubr
          -177 -16 rmoveto
          -84 callsubr
          endchar
        </CharString>
        <CharString name="edieresis">
          -55 -17 24 205 15 152 18 82 67 hstemhm
          50 96 -14.5 61 87.5 61 -16.8037109375 87.046875 hintmask 00010110
          131.5 512 rmoveto
          -37 callsubr
          148.5 hmoveto
          -37 callsubr
          hintmask 11101001
          -133 -285 rmoveto
          -85 callsubr
          -177 -16 rmoveto
          -84 callsubr
          endchar
        </CharString>
        <CharString name="edotaccent">
          -35 -17 24 205 15 152 18 hstem
          50 96 178.196289062 87.046875 vstem
          147 227 rmoveto
          -85 callsubr
          -177 -16 rmoveto
          -84 callsubr
          endchar
        </CharString>
        <CharString name="egrave">
          -55 -17 24 205 15 152 18 54 155 hstemhm
          50 96 -47 181 44.1962890625 87.046875 hintmask 00010100
          99 573 rmoveto
          -95 callsubr
          hintmask 11101010
          20 -379 rmoveto
          -85 callsubr
          -177 -16 rmoveto
          -84 callsubr
          endchar
        </CharString>
        <CharString name="eight">
          -18 20 552 14 hstemhm
          34 83 -34 73.6900024414 188.309997559 72 -47 86 hintmask 11000100
          456 156 rmoveto
          0 88 -120 56 -56 10 rrcurveto
          hintmask 11011000
          54 6 83 42 0 82 rrcurveto
          96 -92 32 -71 -67 -104 -34 -94 vhcurveto
          0 -77 81 -45 48 -10 rrcurveto
          hintmask 11100100
          -54 -6 -124 -51 0 -97 rrcurveto
          -123 99 -49 109 vhcurveto
          131 83 51 123 hvcurveto
          hintmask 11011000
          -111 282 rmoveto
          0 -57 -27 -53 -72 -14 -68.9960021973 14.9179992676 -20.3139953613 52.299987793 0 51.5850219727 0 3.74099731445 0.106994628906 3.73699951172 0.203002929688 3.71899414062 3 63 39 47 52 0 rrcurveto
          53 41 -50 -66 hvcurveto
          hintmask 11100100
          25 -278 rmoveto
          -84 -29 -74 -99 -84 -41 87 70 vhcurveto
          0 117 79 16 51 8 rrcurveto
          60 -12 63 -27 0 -101 rrcurveto
          endchar
        </CharString>
        <CharString name="ellipsis">
          182 -12 147 hstem
          59 148 44 148 42 148 vstem
          513 135 rmoveto
          3 callsubr
          -382 hmoveto
          3 callsubr
          192 hmoveto
          3 callsubr
          endchar
        </CharString>
        <CharString name="emacron">
          -35 -17 24 205 15 152 18 hstem
          50 96 178.196289062 87.046875 vstem
          147 227 rmoveto
          -85 callsubr
          -177 -16 rmoveto
          -84 callsubr
          endchar
        </CharString>
        <CharString name="emdash">
          553 190 52 hstem
          33 953 vstem
          33 242 rmoveto
          -52 953 52 vlineto
          endchar
        </CharString>
        <CharString name="endash">
          53 188 52 hstem
          34 452 vstem
          34 240 rmoveto
          -52 452 52 vlineto
          endchar
        </CharString>
        <CharString name="eogonek">
          -35 -222 24 194.161514282 -20 6.83848571777 24 205 15 152 18 hstemhm
          50 96 -34 77 135.196289062 87.046875 hintmask 11011011
          112 -131 rmoveto
          -52 44 -39 72 vhcurveto
          63 0 38 47 12 33 -5 5 -16.3280029297 5.33599853516 -2.66598510742 2.66700744629 -1.50201416016 -26.7890014648 -36.5039978027 -42.2140045166 -34 0 -26 0 -30 17 0 61 0 54 85 50 17 11 -4.63598632812 0.799270629883 -4.87802124023 0.362243652344 -5.02398681641 0 rrcurveto
          -26.4080047607 0 -30.453994751 -10.0060119629 -20.6000061035 -9.15550231934 rrcurveto
          -27 -12 -60 -40 0 -56 rrcurveto
          hintmask 00111101
          35 358 rmoveto
          -85 callsubr
          -177 -16 rmoveto
          -84 callsubr
          endchar
        </CharString>
        <CharString name="equal">
          121 60 90 60 hstem
          45 419 vstem
          45 331 rmoveto
          -60 419 60 vlineto
          -419 -150 rmoveto
          -60 419 60 vlineto
          endchar
        </CharString>
        <CharString name="exclam">
          -51 -12 121 hstemhm
          142.973007202 132.76600647 -132.76600647 119.027008057 -106.093994141 119.833007812 hintmask 11000000
          186 192 rmoveto
          36 hlineto
          0.031005859375 0.214004516602 53.7080078125 322.955993652 0 41.7960205078 rrcurveto
          16.174987793 -9.49401855469 10.8590087891 -44.2449951172 vhcurveto
          hintmask 10010000
          -36.8450012207 -29.2489929199 -5.54699707031 -22.3489990234 hvcurveto
          0 -8.69799804688 0.0670013427734 6.91497802734 30.0269927979 -362.320983887 rrcurveto
          16 -83 rmoveto
          hintmask 11000000
          -38.8260040283 -20.2009887695 -20.2451019287 -41.3105926514 -45.9081726074 29.6199951172 -13.5361328125 32.4069976807 hvcurveto
          hintmask 10100000
          33 24 28 33 33 -22 27 -38 hvcurveto
          endchar
        </CharString>
        <CharString name="exclamdown">
          -51 463 121 hstemhm
          146.201004028 129.798995972 -116 116 hintmask 11000000
          236 380 rmoveto
          -36 hlineto
          -0.110992431641 -0.778991699219 -53.68800354 -315.776916504 0 -48.925491333 rrcurveto
          -15.8895874023 9.18399047852 -10.6290130615 44.6150054932 35.8650054932 30.2270050049 5.63739013672 22.2036132812 vhcurveto
          0 0.702896118164 -0.031005859375 0.719604492188 -0.0610046386719 0.73649597168 rrcurveto
          -46 445 rmoveto
          38 18 19.9880065918 40.0119934082 47 -26 14 -33 hvcurveto
          hintmask 10100000
          -33 -24 -37 -24 -24 21 -36 39 hvcurveto
          endchar
        </CharString>
        <CharString name="f">
          -87 0 18 351 22 249 15 hstemhm
          73 397 -313 85 127 101 hintmask 11101100
          325 hmoveto
          18 vlineto
          -8.0048828125 -0.640625 -10.46484375 -0.8447265625 -10.6279296875 0 -22.5654296875 0 -23.2978515625 8.810546875 -2.0390625 17.6748046875 rrcurveto
          -6 326 93 0 0 22 -93 0 rlineto
          0 36.7822265625 -2.2197265625 -18.3916015625 0 73.5634765625 0 40.876953125 2.404296875 49.7666015625 20.7021484375 32.40234375 13.0732421875 20.462890625 20.37109375 13.537109375 31.6689453125 0 32 0 43 -10 2 -35 rrcurveto
          0 -36 -15 -30 -20 17 -27 28 hvcurveto
          hintmask 11110000
          42 14 40 27 55 -89 30 -50 -141 -29.267578125 -125 -118.30078125 hvcurveto
          0 -6.9638671875 0.095703125 -6.91015625 0.171875 -6.8251953125 rrcurveto
          -82 -22 82 hlineto
          hintmask 11101000
          -4 -326 rlineto
          hintmask 11110000
          -1 -20 -42 -5 -41 0 rrcurveto
          -18 vlineto
          hintmask 11101100
          32 3 43.75 1.5 45.375 0 45.375 0 47 -1.5 38.5 flex1
          endchar
        </CharString>
        <CharString name="fi">
          88 0 18 351 22 259 15 hstemhm
          117 91 -87 81 167 111 -84 80 hintmask 11101100
          480 570 rmoveto
          55 -109 40 -50 -162.481994629 -37.6940002441 -127.559997559 -130.70199585 vhcurveto
          0 -5.24401855469 0.0599975585938 -5.24798583984 0.115997314453 -5.24600219727 rrcurveto
          -82 -22 82 hlineto
          hintmask 11110000
          -4 -325 rlineto
          -14 -44 -12 -40 vhcurveto
          -18 vlineto
          32 3 43.75 1.5 45.375 0 45.375 0 47 -1.5 38.5 flex1
          18 vlineto
          -27 0 -49.6580047607 9.46969604492 -0.341995239258 18.5303039551 rrcurveto
          hintmask 11101010
          -6 323 178 0 rlineto
          5 -1 5 -2 6 -2 rrcurveto
          -324 vlineto
          -1.5 -17.5 -34.5 -5.5 -26 -1 rrcurveto
          -16 vlineto
          27.4039916992 2.36236572266 37.449005127 1.02297973633 36.841003418 0 41.1350097656 0 40.3769836426 -1.27523803711 24.7940063477 flex1
          16 vlineto
          -17 0 -49.5 9.5 -1.5 14.5 0 278 0 -75 2 169 -34 -12 -45 -9 -44 0 rrcurveto
          -151 hlineto
          0 25 -2 13 0 20 2 84 -4 117 120 0 32 0 53 -20 2 -35 rrcurveto
          hintmask 11101100
          0 -36 -15 -30 -28 29 -29 26 hvcurveto
          46 10 35 42 hvcurveto
          endchar
        </CharString>
        <CharString name="five">
          -216 23 361 30 123 67 hstem
          22 112 202 98 vstem
          430 321 rmoveto
          50 127 -25 0 -27 -60 -261 -1 -95 -283 rlineto
          0 21 -16 10 vhcurveto
          27 53 50 27 55 0 rrcurveto
          69 32 -84 -87 -89 -66 -101 -67 hvcurveto
          -48 0 -68 32 -6 40 24 2 29 19 0 32 rrcurveto
          17 -12 37 -38 -50 -12 -41 -33 -57 79 -71 100 112 121 104 119 117 -68 74 -107 vhcurveto
          -71 0 -45 -30 -31 -32 19 48 45 138 0 0 rrcurveto
          endchar
        </CharString>
        <CharString name="fl">
          117 0 16 353 22 251 -20 28 15 hstemhm
          117 91 -87 81 204 82 hintmask 11110110
          400 600 rmoveto
          2 -8 4 -11 0 -7 2.5 -68.5 1.25 -100.25 0 -100.25 0 -100.25 -1.25 -94.25 -2.5 -68.5 -2 -16 -41 -9 -23 -1 rrcurveto
          -16 vlineto
          23.2680053711 2.83760070801 43.2380065918 2.51553344727 46.2070007324 0 35.2119750977 0 36.9370117188 -1.46083068848 31.1380004883 flex1
          16 vlineto
          -23 4 -42 0 -3 16 0.0690002441406 26.8690948486 0.031005859375 25.1868133545 0 23.6690979004 0 189.816986084 -1.98501586914 92.2090148926 0 79.5310058594 0 53.3890075684 0.89501953125 47.674987793 2.98999023438 67.6539916992 -34 -9 -3 -9 -24 -3 -31 23 -56 21 -31 0 rrcurveto
          -150.352005005 -39.81300354 -142.122009277 -118.617980957 hvcurveto
          0 -4.45602416992 0.0559997558594 -4.42297363281 0.109008789062 -4.38101196289 rrcurveto
          -82 -22 82 hlineto
          hintmask 11111010
          -4 -322 rlineto
          -1.5 -17 -42.5 -12 -40 0 rrcurveto
          -18 vlineto
          32 3 43.75 1.5 45.375 0 45.375 0 47 -1.5 38.5 flex1
          18 vlineto
          -25.5 -51.5 12 17 hvcurveto
          hintmask 11110110
          -6 322 113 0 0 22 -113 0 rlineto
          0 25 -2 13 0 20 1 67 5 134 102 0 rrcurveto
          25 0 34 -14 33 -36 rrcurveto
          endchar
        </CharString>
        <CharString name="four">
          -4 25 hstemhm
          275 80 -78 85 hintmask 11000000
          355 -4 rmoveto
          56 0 -3 -1 42 0 12 37 19 28 17 34 rrcurveto
          -15 12 rlineto
          -15 -26 -49 -60 0 0 rrcurveto
          -64 hlineto
          -0.0589904785156 7.17649841309 -0.0280151367188 7.64700317383 0 8.03749084473 rrcurveto
          hintmask 10100000
          128.599014282 7.08700561523 228.539993286 0 vhcurveto
          -21 17 -332 -392 31 -29 rlineto
          hintmask 11000000
          235 hlineto
          -65 -1 -117 0 vhcurveto
          82 hlineto
          0 -1 120 62 hvcurveto
          hintmask 10100000
          -78 304 rmoveto
          hintmask 11000000
          -2 -37 0 -121 0 -121 rrcurveto
          -221 hlineto
          36 61 134 150 53 68 rrcurveto
          endchar
        </CharString>
        <CharString name="g">
          -1 -229 17 190.314453125 76.62109375 54.064453125 17 241 40 -29 17 hstemhm
          40 70 -46 49 -42 77 169 73 -31 65 hintmask 1111000100000000
          432.5 330 rmoveto
          -83 callsubr
          hintmask 1110100100000000
          -82 callsubr
          hintmask 1111001000000000
          -81 callsubr
          hintmask 1111010001000000
          -80 callsubr
          hintmask 1111001010000000
          -79 callsubr
          -115.5 -75 rmoveto
          -78 callsubr
          hintmask 1110100110000000
          -77 callsubr
          hintmask 1110010001000000
          42 -370 rmoveto
          -76 callsubr
          endchar
        </CharString>
        <CharString name="gbreve">
          -1 -229 17 190.314453125 76.62109375 54.064453125 17 241 40 -29 17 hstemhm
          40 70 -46 49 -42 77 169 73 -31 65 hintmask 1111000100000000
          432.5 330 rmoveto
          -83 callsubr
          hintmask 1110100100000000
          -82 callsubr
          hintmask 1111001000000000
          -81 callsubr
          hintmask 1111010001000000
          -80 callsubr
          hintmask 1111001010000000
          -79 callsubr
          -115.5 -75 rmoveto
          -78 callsubr
          hintmask 1110100110000000
          -77 callsubr
          hintmask 1110010001000000
          42 -370 rmoveto
          -76 callsubr
          endchar
        </CharString>
        <CharString name="gcircumflex">
          -1 -229 17 190.314453125 76.62109375 54.064453125 17 241 40 -29 17 39 156 hstemhm
          40 70 -46 49 -42 77 -50 255 -36 73 -31 65 hintmask 0000010001000000
          98 442 rmoveto
          -96 callsubr
          hintmask 1111000010000000
          199.5 -260 rmoveto
          -83 callsubr
          hintmask 1110100010000000
          -82 callsubr
          hintmask 1111000100000000
          -81 callsubr
          hintmask 1111001000010000
          -80 callsubr
          hintmask 1111000100100000
          -79 callsubr
          -115.5 -75 rmoveto
          -78 callsubr
          hintmask 1110100010100000
          -77 callsubr
          hintmask 1110001000010000
          42 -370 rmoveto
          -76 callsubr
          endchar
        </CharString>
        <CharString name="gcommaaccent">
          -1 -229 17 190.314453125 76.62109375 54.064453125 17 241 40 -29 17 hstemhm
          40 70 -46 49 -42 77 169 73 -31 65 hintmask 1111000100000000
          432.5 330 rmoveto
          -83 callsubr
          hintmask 1110100100000000
          -82 callsubr
          hintmask 1111001000000000
          -81 callsubr
          hintmask 1111010001000000
          -80 callsubr
          hintmask 1111001010000000
          -79 callsubr
          -115.5 -75 rmoveto
          -78 callsubr
          hintmask 1110100110000000
          -77 callsubr
          hintmask 1110010001000000
          42 -370 rmoveto
          -76 callsubr
          endchar
        </CharString>
        <CharString name="gdotaccent">
          -1 -229 17 190.314453125 76.62109375 54.064453125 17 241 40 -29 17 hstemhm
          40 70 -46 49 -42 77 169 73 -31 65 hintmask 1111000100000000
          432.5 330 rmoveto
          -83 callsubr
          hintmask 1110100100000000
          -82 callsubr
          hintmask 1111001000000000
          -81 callsubr
          hintmask 1111010001000000
          -80 callsubr
          hintmask 1111001010000000
          -79 callsubr
          -115.5 -75 rmoveto
          -78 callsubr
          hintmask 1110100110000000
          -77 callsubr
          hintmask 1110010001000000
          42 -370 rmoveto
          -76 callsubr
          endchar
        </CharString>
        <CharString name="grave">
          -55 451 155 hstem
          99 181 vstem
          99 573 rmoveto
          -95 callsubr
          endchar
        </CharString>
        <CharString name="greater">
          32 -3 439 hstem
          61 327 vstem
          61 436 rmoveto
          0 -21 218 -195 0 -17 -207 -179 0 -27 316 201 0 32 rlineto
          endchar
        </CharString>
        <CharString name="guillemotleft">
          25 19.9004058838 351.200012207 hstem
          57.099609375 389.799987793 vstem
          446.899993896 371.100006104 rmoveto
          -219.399993896 -166.800003052 0 -25.6000061035 210.600006104 -158.799591064 0 21.5995941162 -138.600006104 141.199996948 0 13.6000061035 147.399993896 157.999984741 rlineto
          -128.199981689 16.8000183105 rmoveto
          -261.600402832 -166.800003052 0 -25.6000061035 252.800384521 -158.799591064 0 21.5995941162 -165.599990845 141.199996948 0 13.6000061035 174.400009155 157.999984741 rlineto
          endchar
        </CharString>
        <CharString name="guillemotright">
          25 19.9004058838 351.200012207 hstem
          57.099609375 389.799987793 vstem
          57.099609375 371.100006104 rmoveto
          0 -16.8000183105 147.400390625 -157.999984741 0 -13.6000061035 -138.599609375 -141.199996948 0 -21.5995941162 210.599609375 158.799591064 0 25.6000061035 rlineto
          -91.1999969482 166.800003052 rmoveto
          0 -16.8000183105 174.400009155 -157.999984741 0 -13.6000061035 -165.600006104 -141.199996948 0 -21.5995941162 252.799987793 158.799591064 0 25.6000061035 rlineto
          endchar
        </CharString>
        <CharString name="h">
          83 0 16 343 37 224 -20 42 -20 hstemhm
          60 470 -405.263671875 75.263671875 184.016601562 79.9833984375 hintmask 11111000
          60 620 rmoveto
          -75 callsubr
          hintmask 11110110
          -74 callsubr
          hintmask 11111000
          -73 callsubr
          hintmask 11110110
          -72 callsubr
          endchar
        </CharString>
        <CharString name="hbar">
          83 0 16 343 37 204 20 2 20 hstemhm
          60 470 -405.263671875 75.263671875 184.016601562 79.9833984375 hintmask 11111000
          60 620 rmoveto
          -75 callsubr
          hintmask 11110110
          -74 callsubr
          hintmask 11111000
          -73 callsubr
          hintmask 11110110
          -72 callsubr
          endchar
        </CharString>
        <CharString name="hcircumflex">
          83 0 16 343 37 204 20 2 20 hstemhm
          60 470 -405.263671875 75.263671875 184.016601562 79.9833984375 hintmask 11111000
          60 620 rmoveto
          -75 callsubr
          hintmask 11110110
          -74 callsubr
          hintmask 11111000
          -73 callsubr
          hintmask 11110110
          -72 callsubr
          endchar
        </CharString>
        <CharString name="hungarumlaut">
          -18 421 202 hstem
          104 268 vstem
          104 434 rmoveto
          -7 callsubr
          9 -189 rmoveto
          -7 callsubr
          endchar
        </CharString>
        <CharString name="hyphen">
          -6 260 65 hstem
          80 325 rmoveto
          -8 -65 330 -2 5 67 rlineto
          endchar
        </CharString>
        <CharString name="i">
          -161 0 16 358 16 122 114 hstemhm
          112 114 -95 80 hintmask 11110000
          166 626 rmoveto
          -71 callsubr
          hintmask 11001000
          45 -214 rmoveto
          -70 callsubr
          endchar
        </CharString>
        <CharString name="iacute">
          -211 0 16 358 16 56 159 hstemhm
          38 196 -133 80 hintmask 11001000
          181 412 rmoveto
          -70 callsubr
          hintmask 00110000
          -143 52 rmoveto
          -34 callsubr
          endchar
        </CharString>
        <CharString name="ibreve">
          -211 0 16 358 16 hstem
          101 80 vstem
          181 412 rmoveto
          -70 callsubr
          endchar
        </CharString>
        <CharString name="icircumflex">
          -211 0 16 358 16 44 156 hstemhm
          0 255 -154 80 hintmask 00110000
          442 vmoveto
          -96 callsubr
          hintmask 11001000
          46 -178 rmoveto
          -70 callsubr
          endchar
        </CharString>
        <CharString name="idieresis">
          -211 0 16 358 16 89 67 hstemhm
          20.5 61 19.5 80 -12 61 hintmask 00110100
          20.5 512 rmoveto
          -37 callsubr
          148.5 hmoveto
          -37 callsubr
          hintmask 11001000
          12 -100 rmoveto
          -70 callsubr
          endchar
        </CharString>
        <CharString name="igrave">
          -211 0 16 358 16 61 155 hstemhm
          27 181 -107 80 hintmask 00110000
          27 573 rmoveto
          -95 callsubr
          hintmask 11001000
          126 -194 rmoveto
          -70 callsubr
          endchar
        </CharString>
        <CharString name="ij">
          7 -204 29 175 16 358 16 120 116 -114 114 hstemhm
          112 114 -95 80 -31 97 56 116 -100 80 hintmask 0110110000000000
          166 626 rmoveto
          -71 callsubr
          hintmask 0110001000000000
          45 -214 rmoveto
          -70 callsubr
          hintmask 1011000101000000
          218 hmoveto
          -69 callsubr
          -30 214 rmoveto
          hintmask 1011000110000000
          -68 callsubr
          endchar
        </CharString>
        <CharString name="imacron">
          -211 0 16 358 16 hstem
          101 80 vstem
          181 412 rmoveto
          -70 callsubr
          endchar
        </CharString>
        <CharString name="infinity">
          91 13 236 13 hstem
          5 67 151 52 154 66 vstem
          362 340 rmoveto
          47 20 -35 -89 -66 -23 -46 -46 -44 -41 69 69 73 37 25 50 hvcurveto
          -357 -124 rmoveto
          -74 70 -51 66 vhcurveto
          44 0 52 37 14 41 21 -38 45 -40 43 0 rrcurveto
          68 67 54 71 96 -72 41 -61 hvcurveto
          -46 0 -44 -33 -21 -46 -20 43 -48 36 -40 0 rrcurveto
          -71 -67 -50 -87 hvcurveto
          138 124 rmoveto
          47 33 -58 -89 -66 -36 -23 -46 -44 -25 43 69 73 21 51 50 hvcurveto
          endchar
        </CharString>
        <CharString name="iogonek">
          -211 -222 24 198 16 358 16 122 114 hstemhm
          35 77 0 114 -95 80 hintmask 11111000
          35 -131 rmoveto
          -52 44 -39 72 vhcurveto
          63 0 38 47 12 33 -5 5 -16.3280029297 5.33599853516 -2.66600036621 2.66700744629 -1.50199890137 -26.7890014648 -36.5039978027 -42.2140045166 -34 0 -26 0 -30 17 0 61 0 37 26 32 30.7859954834 20 26.6660003662 17.3233947754 36.7559967041 13.9109802246 7.79200744629 3.765625 rrcurveto
          -0.697998046875 2.24928283691 -5.23600769043 1.07870483398 -7.97499084473 0 -12.1360015869 0 -18.4759979248 -2.49752807617 -18.4790039062 -4.67127990723 -21.5639953613 -5.451171875 -20.5599975586 -9.92300415039 -14.8760070801 -5.78500366211 rrcurveto
          -27.5375061035 -10.7089996338 -57.4624938965 -43.2910003662 0 -56 rrcurveto
          hintmask 01110100
          131 757 rmoveto
          -71 callsubr
          hintmask 01100010
          45 -214 rmoveto
          -70 callsubr
          endchar
        </CharString>
        <CharString name="itilde">
          -211 0 16 358 16 57.3999938965 47 -47 105.199996948 -90.2659606934 91.8030090332 -42.1430358887 42.1430053711 hstemhm
          6 12.1190948486 82.8809051514 80 47.7189941406 15.2810058594 hintmask 0000101010000000
          18.119140625 462.333984375 rmoveto
          hintmask 0000011010000000
          -32 callsubr
          hintmask 0001001010000000
          -31 callsubr
          hintmask 0010001010000000
          -30 callsubr
          hintmask 0000101010000000
          -29 callsubr
          hintmask 1100000100000000
          175 -50.8037109375 rmoveto
          -70 callsubr
          endchar
        </CharString>
        <CharString name="j">
          -157 -204 29 549 16 120 116 hstemhm
          -31 97 56 116 -100 80 hintmask 11110100
          218 412 rmoveto
          -69 callsubr
          -30 214 rmoveto
          hintmask 11111000
          -68 callsubr
          endchar
        </CharString>
        <CharString name="jcircumflex">
          -187 -204 29 549 16 49 156 hstemhm
          -61 97 -21 255 -162 80 hintmask 11110100
          188 412 rmoveto
          -69 callsubr
          hintmask 00101000
          -173 35 rmoveto
          -96 callsubr
          endchar
        </CharString>
        <CharString name="k">
          54 0 16 349 21 228 16 hstem
          102 77 vstem
          194 192 rmoveto
          -67 callsubr
          endchar
        </CharString>
        <CharString name="kcommaaccent">
          27 -156.5 132 24.5 16 349 21 228 16 hstemhm
          102 77 -26.5890960693 134.136993408 hintmask 10000100
          208.5 -156.5 rmoveto
          -9 callsubr
          hintmask 01111000
          -14.5 348.5 rmoveto
          -67 callsubr
          endchar
        </CharString>
        <CharString name="kgreenlandic">
          75 0 16 349 21 -12 16 -10 20 hstemhm
          123.505996704 74.4940032959 hintmask 11001000
          212 192 rmoveto
          50 -56 86 -92 26 -48 rrcurveto
          135 2 0 14 rlineto
          -30.5 0 -33 19.5 -46.5 49.5 -71.1700134277 75.7619934082 0.170013427734 5.2380065918 -68 70 rrcurveto
          78 96 rlineto
          30 28 64 9 20 2 rrcurveto
          19 -164 vlineto
          -1 -9 0.3330078125 -5.6669921875 -0.3330078125 -6.3330078125 16.8049926758 -2.21099853516 5.46200561523 -8.07800292969 0 -9.36199951172 0 -11.8070068359 -8.68899536133 -13.8489990234 -5.57800292969 -6.69299316406 rrcurveto
          -98 -112 rlineto
          hintmask 10011000
          0 0 2 94 1 105 rrcurveto
          hintmask 10101000
          -21.9080047607 -5.18899536133 -78.7586975098 -4.81100463867 -51.3332977295 0 rrcurveto
          -16 vlineto
          33 -1 28 -2 11 -17 2.36199951172 -66.1459960938 1.02301025391 -43.3769989014 0 -42.1240081787 0.0820007324219 -6.10400390625 0.0389862060547 -6.64599609375 0 -7.00399780273 0 -55.0870056152 -2.4109954834 -77.292098999 -3.0950012207 -11.2198944092 -2.6669921875 -9.6669921875 -47.3330078125 -12.3330078125 -20 -1 rrcurveto
          -16 vlineto
          29.0139007568 2.11010742188 43.7631072998 1.27523803711 42.9509887695 0 38.4680023193 0 37.8180084229 -1.02297973633 25.9859924316 flex1
          16 vlineto
          -17 1 -51 8.33329772949 0 13.6667022705 rrcurveto
          137 vlineto
          endchar
        </CharString>
        <CharString name="l">
          -201 0 16 588 16 22 -20 hstem
          106 79.83984375 vstem
          190 642 rmoveto
          -66 callsubr
          endchar
        </CharString>
        <CharString name="lacute">
          -215 0 16 588 16 2 20 hstem
          106 79.83984375 vstem
          190 642 rmoveto
          -66 callsubr
          endchar
        </CharString>
        <CharString name="lcaron">
          -215 0 16 588 16 2 20 28 156 hstemhm
          -8 253 -139 79.83984375 hintmask 00011000
          245 813 rmoveto
          -15 callsubr
          hintmask 11100100
          75 -28 rmoveto
          -66 callsubr
          endchar
        </CharString>
        <CharString name="lcommaaccent">
          -215 -153 132 21 16 588 16 2 20 hstemhm
          50.9109039307 134.136993408 -79.0478973389 79.83984375 hintmask 10001000
          107 -153 rmoveto
          -9 callsubr
          hintmask 01110100
          83 795 rmoveto
          -66 callsubr
          endchar
        </CharString>
        <CharString name="ldot">
          -215 0 16 588 16 2 20 hstem
          106 79.83984375 vstem
          190 642 rmoveto
          -66 callsubr
          endchar
        </CharString>
        <CharString name="less">
          32 -3 439 hstem
          61 327 vstem
          388 436 rmoveto
          -327 -196 0 -32 316 -211 0 27 -207 189 0 17 218 185 rlineto
          endchar
        </CharString>
        <CharString name="lslash">
          -215 0 16 588 16 2 20 hstem
          106 79.83984375 vstem
          190 642 rmoveto
          -66 callsubr
          endchar
        </CharString>
        <CharString name="m">
          327 0 16 343 37 -22 16 hstemhm
          122 78 162 88 168 80 hintmask 11011100
          319 396 rmoveto
          -60 0 -27 -49 -28 -42 rrcurveto
          -13 104 rlineto
          -27.818359375 -11.30078125 -35.3740234375 -8.2783203125 -46.216796875 0 rrcurveto
          hintmask 10111100
          -6.9482421875 0 -7.193359375 0.1875 -7.44921875 0.3916015625 rrcurveto
          -16 vlineto
          6.3642578125 0.70703125 9.48828125 0.70703125 9.6533203125 0 17.6494140625 0 18.1982421875 -2.3642578125 0.646484375 -9.0498046875 2.3544921875 -32.5673828125 0.814453125 -44.8837890625 0 -47.4736328125 0 -73.51953125 -1.9541015625 -79.73046875 -1.21484375 -49.8251953125 0 -24 -40 6 -22 -2 rrcurveto
          -16 vlineto
          24.9365234375 2.5361328125 32.4384765625 0.927734375 32.7685546875 0 44.7646484375 0 45.37890625 -1.7314453125 27.712890625 flex1
          16 vlineto
          -21.6669921875 0.6669921875 -46.3330078125 4.666015625 0 14.6669921875 rrcurveto
          229 vlineto
          hintmask 11011100
          20 54 52 40 30 0 rrcurveto
          52 8 -30 -69 hvcurveto
          -224 vlineto
          0 -15 -50.3330078125 -4.3330078125 -13.6669921875 -0.6669921875 rrcurveto
          -16 vlineto
          26.3759765625 2.1103515625 42.794921875 1.275390625 43.505859375 0 38.9658203125 0 39.5361328125 -1.0234375 28.8212890625 flex1
          16 vlineto
          -22.6669921875 0.6669921875 -45.3330078125 7.666015625 0 11.6669921875 rrcurveto
          249 vlineto
          0 41 74 61 52 15 -31 -69 -34 -1 -189 0 vhcurveto
          -0.056640625 -12.6708984375 -48.6103515625 -5.99609375 -15.3330078125 -1.3330078125 rrcurveto
          -16 vlineto
          32.1787109375 2.1103515625 45.2587890625 1.275390625 41.6025390625 0 37.259765625 0 34.3291015625 -1.0234375 19.37109375 flex1
          16 vlineto
          -16 5 -50 -9 0 29 rrcurveto
          200 vlineto
          63 -17 92 -112 vhcurveto
          -63 0 -31 -43 -33 -51 rrcurveto
          -12 52 -36 42 -75 0 rrcurveto
          endchar
        </CharString>
        <CharString name="minus">
          201 60 hstem
          45 419 vstem
          45 261 rmoveto
          -60 419 60 vlineto
          endchar
        </CharString>
        <CharString name="multiply">
          62 338 hstem
          85 339 vstem
          381 62 rmoveto
          43 42 -127 127 127 127 -43 42 -127 -127 -126 127 -43 -42 127 -127 -127 -127 43 -42 126 127 rlineto
          endchar
        </CharString>
        <CharString name="n">
          95 0 16 343 37 -32 16 hstemhm
          126 78 192 82 hintmask 10111000
          64 380 rmoveto
          -65 callsubr
          hintmask 11011000
          -64 callsubr
          endchar
        </CharString>
        <CharString name="nacute">
          95 0 16 343 37 -32 16 65 159 hstemhm
          126 78 -17 196 13 82 hintmask 00010100
          187 463 rmoveto
          -34 callsubr
          hintmask 10101010
          -288 -224 rmoveto
          -65 callsubr
          hintmask 11001010
          -64 callsubr
          endchar
        </CharString>
        <CharString name="napostrophe">
          95 0 16 343 37 -32 16 hstemhm
          126 78 192 82 hintmask 10111000
          64 380 rmoveto
          -65 callsubr
          hintmask 11011000
          -64 callsubr
          endchar
        </CharString>
        <CharString name="nbspace">
          -197 endchar
        </CharString>
        <CharString name="ncaron">
          95 0 16 343 37 -32 16 59 156 hstemhm
          126 78 -29 253 -32 82 hintmask 00010100
          428 582 rmoveto
          -15 callsubr
          hintmask 10101010
          -234 -59 rmoveto
          -65 callsubr
          hintmask 11001010
          -64 callsubr
          endchar
        </CharString>
        <CharString name="ncommaaccent">
          95 -156.5 132 24.5 16 343 37 -32 16 hstemhm
          126 78 47.9109039307 134.136993408 9.95208740234 82 hintmask 10000100
          308 -156.5 rmoveto
          -9 callsubr
          hintmask 01011010
          -244 536.5 rmoveto
          -65 callsubr
          hintmask 01101010
          -64 callsubr
          endchar
        </CharString>
        <CharString name="nine">
          -232 32 227 21 346 22 hstem
          30 94 233 102 vstem
          357 188 rmoveto
          -90 -68 -50 -65 -63 -37 56 100 138 35 52 75 122 1 -117.976989746 -88.0230102539 vhcurveto
          -139 -161 rmoveto
          46 0 76 38 28 43 -11 -144 -29 -163 -180 -1 -65 0 -71 52 -29 50 rrcurveto
          -23 -26 rlineto
          31 -51 73 -57 63 0 rrcurveto
          209 123 179 218 193 -130 58 -91 -127 -81 -83 -128 -118 104 -60 84 hvcurveto
          endchar
        </CharString>
        <CharString name="ntilde">
          45 0 16 343 37 -32 16 49.3999938965 47 -47 105.199996948 -90.2659606934 91.8030090332 -42.1430358887 42.1430053711 hstemhm
          126 78 -32 12.1190948486 210.599899292 15.2810058594 -14 82 hintmask 1010000100100000
          64 380 rmoveto
          -65 callsubr
          hintmask 1100000100100000
          -64 callsubr
          hintmask 0000010011000000
          120.119140625 64.333984375 rmoveto
          hintmask 0000001011000000
          -32 callsubr
          hintmask 0000100011000000
          -31 callsubr
          hintmask 0001000011000000
          -30 callsubr
          hintmask 0000010011000000
          -29 callsubr
          endchar
        </CharString>
        <CharString name="numbersign">
          315 305 -29 20 hstemhm
          159 40 80 40 hintmask 00110000
          279 525 rmoveto
          0 -110 -80 -5 0 110 rlineto
          -112 11 rmoveto
          0 -20 72 6 0 -110 -72 -6 0 -20 72 6 rlineto
          hintmask 10110000
          0 -72 40 3 0 72 80 5 0 -71 40 3 0 71 72 6 0 20 -72 -6 0 110 72 6 0 20 -72 -6 0 72 rlineto
          -40 -3 0 -72 -80 -5 rlineto
          hintmask 01110000
          0 71 -40 -3 0 -71 rlineto
          endchar
        </CharString>
        <CharString name="o">
          8 -17 25 380 19 hstem
          50 90 229 86 vstem
          258 8 rmoveto
          -63 callsubr
          -11 399 rmoveto
          -62 callsubr
          endchar
        </CharString>
        <CharString name="oacute">
          -2 -17 25 380 19 39 159 hstem
          50 90 30 196 3 86 vstem
          258 8 rmoveto
          -63 callsubr
          -11 399 rmoveto
          -62 callsubr
          -77 57 rmoveto
          -34 callsubr
          endchar
        </CharString>
        <CharString name="obreve">
          -2 -17 25 380 19 hstem
          50 90 229 86 vstem
          258 8 rmoveto
          -63 callsubr
          -11 399 rmoveto
          -62 callsubr
          endchar
        </CharString>
        <CharString name="ocircumflex">
          -2 -17 25 380 19 27 156 hstemhm
          50 90 0 255 -26 86 hintmask 11010100
          258 8 rmoveto
          -63 callsubr
          -11 399 rmoveto
          -62 callsubr
          hintmask 00101000
          -107 35 rmoveto
          -96 callsubr
          endchar
        </CharString>
        <CharString name="odieresis">
          -2 -17 25 380 19 72 67 hstemhm
          50 90 23.5 61 87.5 61 -4 86 hintmask 11010010
          258 8 rmoveto
          -63 callsubr
          -11 399 rmoveto
          -62 callsubr
          hintmask 00101100
          -83.5 105 rmoveto
          -37 callsubr
          148.5 hmoveto
          -37 callsubr
          endchar
        </CharString>
        <CharString name="oe">
          -35 -17 25 204 15 152 18 -9 19 hstemhm
          40 90 229 76 177 88.2429962158 hintmask 11101110
          390 73 rmoveto
          36 -47 44 -43 62 0 106 0 48 75 13 32 rrcurveto
          -27 19 rlineto
          -11 -30 -37 -72 -88 0 -71 0 -30 101 0 82 rrcurveto
          0 22 264 1 rlineto
          0.879028320312 9.66499328613 0.363952636719 8.29299926758 0 7.24700927734 0 17.4960021973 -2.12200927734 11.3990020752 -2.12097167969 9.89999389648 -19 94 -80 26 -58 0 -51 0 -54 -37 -42 -52 rrcurveto
          hintmask 11011110
          -38 47 -49 52 -68 0 rrcurveto
          -95 -102 -79 -121 -149 69 -75 136 hvcurveto
          70 0 42 48 33 42 rrcurveto
          222 155 rmoveto
          -176 -1 rlineto
          hintmask 11101110
          5 91 28 61 49 0 48 0 32 -32 10 -39 3.80401611328 -13.9469909668 1.39196777344 -17.1629943848 0 -17.8300170898 0 -10.2949981689 -0.463989257812 -10.5160064697 -0.731994628906 -10.2489929199 rrcurveto
          -253 -31 rmoveto
          -123 -41 -66 -70 -76 -42 77 105 vhcurveto
          hintmask 11011110
          82 19 116 97 72 41 -96 -95 vhcurveto
          endchar
        </CharString>
        <CharString name="ograve">
          -2 -17 25 380 19 44 155 hstem
          50 90 19 181 29 86 vstem
          258 8 rmoveto
          -63 callsubr
          -11 399 rmoveto
          -62 callsubr
          -88 166 rmoveto
          -95 callsubr
          endchar
        </CharString>
        <CharString name="ohungarumlaut">
          -2 -17 25 380 19 14 202 hstemhm
          50 90 1 268 -40 86 hintmask 00101000
          141 434 rmoveto
          -7 callsubr
          9 -189 rmoveto
          -7 callsubr
          hintmask 11010100
          -106 -615 rmoveto
          -63 callsubr
          -11 399 rmoveto
          -62 callsubr
          endchar
        </CharString>
        <CharString name="omacron">
          -2 -17 25 380 19 hstem
          50 90 229 86 vstem
          258 8 rmoveto
          -63 callsubr
          -11 399 rmoveto
          -62 callsubr
          endchar
        </CharString>
        <CharString name="one">
          -2 420 -420 26 hstemhm
          88 377 -227 90 hintmask 01100000
          105 24 rmoveto
          hintmask 10100000
          3 -26 rlineto
          40.5709991455 4.5714263916 80.7350006104 2.2857208252 78.9159851074 0 59.1860046387 0 58.1630249023 -1.2857208252 39.4289855957 -2.5714263916 rrcurveto
          hintmask 01100000
          23 vlineto
          hintmask 10010000
          -40 5 -75 -3 -22 9 rrcurveto
          0 383 rlineto
          hintmask 01100000
          -240 -70 8 -36 rlineto
          hintmask 01010000
          142 48 0 -325 rlineto
          0 0 -79 -6 -54 -5 rrcurveto
          endchar
        </CharString>
        <CharString name="otilde">
          -2 -17 25 380 19 20.8999938965 47 -47 105.199996948 -90.2659606934 91.8030090332 -42.1430358887 42.1430053711 hstemhm
          50 90 32.5 12.1190948486 184.380905151 86 -59.7810058594 15.2810058594 hintmask 1100001010000000
          258 8 rmoveto
          -63 callsubr
          -11 399 rmoveto
          -62 callsubr
          hintmask 0000100101000000
          -62.380859375 35.833984375 rmoveto
          hintmask 0000010101000000
          -32 callsubr
          hintmask 0001000101000000
          -31 callsubr
          hintmask 0010000101000000
          -30 callsubr
          hintmask 0000100101000000
          -29 callsubr
          endchar
        </CharString>
        <CharString name="p">
          41 -214 14 194 27 341 44.03125 -32.03125 15 hstemhm
          105.467773438 78.5322265625 190 104 hintmask 11101100
          192 285 rmoveto
          22 45 30 32 52 0 rrcurveto
          50 28 -66.9814453125 -106.018554688 -103 -29 -65 -55 hvcurveto
          -50 0 -33 19 -22 25 rrcurveto
          -1 119 rlineto
          hintmask 11011100
          -154 205 rmoveto
          -15 vlineto
          26 -1 30 -11 17 -8 1.669921875 -53.84765625 0.7978515625 -79.287109375 0 -83.5615234375 0 -116.622070312 -1.5546875 -120.947265625 -2.9130859375 -75.734375 -1 -16 -36 -7 -32 -1 rrcurveto
          -14 vlineto
          25 2 43.25 1 45.125 0 45.125 0 47 -1 32.5 flex1
          1 14 rlineto
          -25 0 -50 8 -11 16 rrcurveto
          -1 215 rlineto
          26 -28 34 -17 40 0 rrcurveto
          135 59 110 103 hvcurveto
          hintmask 11101100
          105.879882812 -74.41796875 93.1513671875 -84.8857421875 vhcurveto
          -63.59375 0 -35.296875 -40.9560546875 -29.8056640625 -48.0751953125 rrcurveto
          -13 90 rlineto
          -47 -12 -38 -6 -62 0 rrcurveto
          endchar
        </CharString>
        <CharString name="parenleft">
          -170 49 86 vstem
          311 716 rmoveto
          -77 -71 -185 -169 0 -222 0 -217 146 -189 80 -54 rrcurveto
          28 37 rlineto
          -31 24 -71 66 -35 87 -26 65 -5 112 0 98 0 114 9 52 33 64 39 75 73 49 48 48 rrcurveto
          endchar
        </CharString>
        <CharString name="parenright">
          -170 162 86 vstem
          -14 716 rmoveto
          -26 -31 rlineto
          48 -48 73 -49 39 -75 33 -64 9 -52 0 -114 0 -98 -5 -112 -26 -65 -35 -87 -71 -66 -31 -24 rrcurveto
          28 -37 rlineto
          80 54 146 189 0 217 0 222 -185 169 -77 71 rrcurveto
          endchar
        </CharString>
        <CharString name="partialdiff">
          351 0 16 353 22 251 -20 28 15 hstemhm
          121 81 155 91 -87.2030029297 81.2030029297 194 79.8399963379 hintmask 11111101
          538 650 rmoveto
          32 0 53 -27 13 -39 2.10998535156 -72.2709960938 1.27502441406 -110.395996094 0 -108.29699707 0 -96.995010376 -1.02301025391 -95.31199646 -2.36199951172 -64.7290039062 -2 -16 -41 -3 -23 -1 rrcurveto
          -16 vlineto
          23.2680053711 2.83760070801 43.2379760742 2.51553344727 46.20703125 0 35.2119750977 0 36.9370117188 -1.46083068848 31.1380004883 flex1
          16 vlineto
          -23 4 -42 0 -3 16 0 166.800003052 -2.15997314453 119.63999939 0 108.119995117 0 72.0800170898 0.9599609375 66.9599609375 3.20001220703 72.4000244141 -21 -6 -24 -5 -25 -5 -27 24 -35 15 -47 0 -59 0 -46 -34 -23 -25 rrcurveto
          -32 39 -46 20 -34 0 -91 0 -44 -63 -17 -29 -15.8379974365 -27.0170288086 -12.3650054932 -65.2049560547 0 -73.4770202637 0 -5.39300537109 0.0660095214844 -5.43798828125 0.136993408203 -5.4700012207 rrcurveto
          -82 -22 82 hlineto
          -4 -325 rlineto
          -17 -44 -9 -40 vhcurveto
          -18 vlineto
          60.941192627 2.70849609375 78.6697998047 1.07827758789 80.3920135498 0 97.6970062256 0 100.240997314 -1.59243774414 74.0589904785 flex1
          18 vlineto
          -25.5 3 -51.0899963379 2.94259643555 -0.410003662109 22.0574035645 rrcurveto
          hintmask 11111011
          -6 323 123 0 0 22 -123 0 rlineto
          0 25 -2 13 0 20 0 6.79998779297 -0.0799865722656 8.20001220703 0 9.05599975586 0 36.2239990234 1.2799987793 49.9200134277 12.799987793 28.799987793 rrcurveto
          12 27 32 35 40 0 rrcurveto
          -136 -57 rmoveto
          -5 -7 -5 -7 -3 -6 -15.8380126953 -27.0170288086 -12.3649902344 -65.2049560547 0 -73.4770202637 0 -5.39300537109 0.0660095214844 -5.43798828125 0.136993408203 -5.4700012207 rrcurveto
          -159 hlineto
          0 25 -2 13 0 20 0 7.70001220703 -0.0800018310547 8.73999023438 0 9.34399414062 0 37.3759765625 1.2799987793 47.0400390625 12.8000030518 28.799987793 12 27 32 35 40 0 29 0 64 -27 11 -30 rrcurveto
          -41 -224 rmoveto
          hintmask 11111101
          -4 -326 rlineto
          -21.5 -64.5 -4.5 -19.5 vhcurveto
          -26.0769958496 0 -38.6090087891 10.0057983398 -0.313995361328 16.9942016602 rrcurveto
          -6 325 rlineto
          endchar
        </CharString>
        <CharString name="percent">
          -40 12 198 10 48 11 198 10 hstem
          8 49 132 48 24 49 132 48 vstem
          8 332 rmoveto
          -62 60 -42 55 57 57 44 60 81 -61 34 -52 -59 -57 -41 -74 vhcurveto
          116 105 rmoveto
          40 25 -29 -76 -55 -27 -38 -39 -37 -29 35 58 61 25 44 42 hvcurveto
          137 -372 rmoveto
          -62 60 -43 55 57 57 45 60 81 -61 34 -52 -59 -57 -41 -74 vhcurveto
          116 105 rmoveto
          40 25 -30 -75 -55 -27 -38 -39 -37 -29 35 58 61 25 44 42 hvcurveto
          45 304 rmoveto
          -386 -540 31 -22 386 540 rlineto
          endchar
        </CharString>
        <CharString name="period">
          -219 -4 132 hstem
          60 131 vstem
          124 128 rmoveto
          -27 -37 -21.9880065918 -43.0119934082 -35.6669921875 33 -31.3330078125 31 35.3329925537 31.6670074463 17.6669921875 49.3330078125 48.0419921875 -40 16.9580078125 -27 hvcurveto
          endchar
        </CharString>
        <CharString name="perthousand">
          103 endchar
        </CharString>
        <CharString name="pi">
          -31 24 65 18 110 16 123 19 69 24 hstem
          14 24 160.889007568 47.1109924316 88 47 77 24 vstem
          248 437 rmoveto
          -36 callsubr
          -24 vmoveto
          -35 callsubr
          133 -144 rmoveto
          55 -52 20 -37 vhcurveto
          -29 0 -47 1 -51 0 rrcurveto
          -15 vlineto
          0 0 32 -6 1 -10 0 -15.3330078125 0.889007568359 -86.8889923096 0 -61.5559997559 0 -30.7779998779 -0.22200012207 -19.4440002441 -0.667007446289 -6 -2 -12 -37 -4 0 0 rrcurveto
          -20 128 18 vlineto
          -27 -14.0299987793 11.4938049316 9.6623840332 hvcurveto
          0 9.88481140137 0.0299987792969 4.88400268555 0 79.0749969482 rrcurveto
          0 9 -5 26 63 37 37 46 vhcurveto
          -47 hmoveto
          -1 -31 -16 -36 -39 0 rrcurveto
          -23 -9 2 0 hvcurveto
          122 vlineto
          16 0 14.858001709 -1 14.141998291 0 37.5 0 5.5 -23 0 -33 rrcurveto
          endchar
        </CharString>
        <CharString name="plus">
          22 419 -240 60 hstemhm
          225 60 hintmask 10100000
          225 22 rmoveto
          60 hlineto
          hintmask 01100000
          179 179 60 -180 vlineto
          hintmask 10100000
          180 -60 vlineto
          hintmask 01100000
          -180 -179 -60 180 vlineto
          endchar
        </CharString>
        <CharString name="q">
          41 -213 14 185 37 360 21 hstemhm
          60 104 195 79 -29 33 hintmask 11111000
          354 302 rmoveto
          5 -86 0 -111 rlineto
          -8 -9 -32 -73 -73 0 rrcurveto
          -55 -27 67.98046875 101.01953125 106 32 85 54 hvcurveto
          50 0 32 -36 22 -45 rrcurveto
          hintmask 11110100
          88 94 rmoveto
          -33 -4 rlineto
          0 -23 -29 -40 -14 -10 -22 35 -48 50 -41 0 rrcurveto
          -136 -59 -132 -78 -124 66 -84 102 hvcurveto
          hintmask 11111000
          57 0 46 44 28 39 rrcurveto
          -1 -245 rlineto
          -4 -20 -37 -3 -21 0 rrcurveto
          -3 -14 rlineto
          31.3896484375 3.53125 29.5419921875 1.2216796875 28.3603515625 0 43.9169921875 0 41.080078125 -2.9296875 40.7109375 flex1
          14 vlineto
          -32 1 -38 6 0 16 rrcurveto
          1 179 3 214 0 179 rrcurveto
          endchar
        </CharString>
        <CharString name="question">
          -21 113 70 20 224 112 94 21 hstemhm
          61 128 -27 53 -9 115 13 94.0059967041 hintmask 11110101
          372 266 rmoveto
          -14 -42 -33 -42 -57 0 -35 0 -18 24.9880065918 0 40.0119934082 0 104.761993408 213.006011963 -24.8070068359 0 148.486999512 rrcurveto
          123.820037842 -128.272003174 33.7379760742 -68.7340087891 vhcurveto
          hintmask 11111001
          -105 -65 -103 -46 -30 17 -48 48 41 22 27 33 hvcurveto
          0 38 -33 12 -30 2 6 35 44 59 48 0 65 0 45 -50 0 -80 rrcurveto
          hintmask 11110101
          0 -76 -73 -36 -46 -29 -31 -19 -22 -24 0 -48 0 -48 64 -40 40 0 84 0 32 58 12 32 rrcurveto
          hintmask 11110011
          -188 -216 rmoveto
          -36 22 -21 34 34 25 21 36 36 -22 20 -34 vhcurveto
          -34 -25 -20 -36 hvcurveto
          endchar
        </CharString>
        <CharString name="questiondown">
          -21 21 94 112 224 20 70 113 hstemhm
          61 94 13 115 -9 53 -27 128 hintmask 11111010
          117 346 rmoveto
          14 42 33 42 57 0 35 0 18 -24.9880065918 0 -40.0119934082 0 -61 -101 -32 -20 -10 -48 -24 -44 -42 0 -58 rrcurveto
          -125.003997803 128 -33.9960021973 69 vhcurveto
          hintmask 11111001
          99 71 103 46 30 -17 48 -48 -41 -22 -27 -33 hvcurveto
          0 -38 33 -12 30 -2 -6 -35 -44 -59 -48 0 -65 0 -45 50 0 80 rrcurveto
          hintmask 11111010
          0 76 73 36 46 29 31 19 22 24 0 48 0 48 -64 40 -40 0 -84 0 -32 -58 -12 -32 rrcurveto
          hintmask 11111100
          188 216 rmoveto
          36 -22 21 -34 -34 -25 -21 -36 -36 22 -20 34 vhcurveto
          34 25 20 36 hvcurveto
          endchar
        </CharString>
        <CharString name="quotedbl">
          -249 430 200 hstem
          13 71 49 71 vstem
          51 630 rmoveto
          -16 -22 -6 -36 -42 33 -116 0 hvcurveto
          1 -1 7 -1 5 2 10 37 15 85 0 39 rrcurveto
          17 -9 22 -24 vhcurveto
          120 hmoveto
          -16 -22 -6 -36 -42 33 -116 0 hvcurveto
          2 -1 6 -1 4 2 10 36 16 84 0 41 rrcurveto
          17 -9 22 -24 vhcurveto
          endchar
        </CharString>
        <CharString name="quotedblbase">
          -11 -12 147 hstem
          52 149 52 149 vstem
          120 -12 rmoveto
          2 callsubr
          201 hmoveto
          19.1050109863 0 6.89498901367 5 16 10 -3 -36 -58 -39.5 -21 -8.5 0 0 4.5 -9 3.5 -6 47 6 66 59.5 0 82.5 rrcurveto
          54.0370025635 -46 28.9629974365 -30 -30 -43 -24.9580078125 -48.0419921875 -37 28 -37 40 vhcurveto
          endchar
        </CharString>
        <CharString name="quotedblleft">
          -11 415 147 hstem
          56 149 52 149 vstem
          338 562 rmoveto
          0 callsubr
          -201 hmoveto
          0 callsubr
          endchar
        </CharString>
        <CharString name="quotedblright">
          -11 499 147 hstem
          56 149 52 149 vstem
          124 499 rmoveto
          1 callsubr
          201 hmoveto
          19.1050109863 0 6.89498901367 5 16 10 -3 -36 -58 -39.5 -21 -8.5 0 0 4.5 -9 3.5 -6 47 6 66 59.5 0 82.5 rrcurveto
          54.0369873047 -46 28.9630126953 -30 -30 -43 -24.9580078125 -48.0419921875 -37 28 -37 40 vhcurveto
          endchar
        </CharString>
        <CharString name="quoteleft">
          -218 415 147 hstem
          56 149 vstem
          137 562 rmoveto
          0 callsubr
          endchar
        </CharString>
        <CharString name="quoteright">
          -218 499 147 hstem
          56 149 vstem
          124 499 rmoveto
          1 callsubr
          endchar
        </CharString>
        <CharString name="quotesinglbase">
          -218 -13 147 hstem
          56 149 vstem
          124 -13 rmoveto
          2 callsubr
          endchar
        </CharString>
        <CharString name="quotesingle">
          -267 428.25 201.75 hstem
          70 60 vstem
          103 630 rmoveto
          -16 -17 -5 -36 -42 11 -117 0 hvcurveto
          0.407196044922 1.22299194336 4.78810119629 -2.97299194336 1.80470275879 0 4.40328979492 0 3.0205078125 -0.174011230469 5.61520385742 0 3.37799072266 0 3.68600463867 1.93402099609 0.897003173828 2.98999023438 10 31 11 88 0 39 rrcurveto
          17 -4 22 -23 vhcurveto
          endchar
        </CharString>
        <CharString name="r">
          -45 0 16 353 37 -32 16 hstemhm
          124 78 102 104 hintmask 11011000
          331 406 rmoveto
          -61 callsubr
          hintmask 10111000
          -60 callsubr
          hintmask 11011000
          -59 callsubr
          endchar
        </CharString>
        <CharString name="racute">
          -45 0 16 353 37 -32 16 56 159 hstemhm
          124 78 -63 196 -31 104 hintmask 00010100
          139 464 rmoveto
          -34 callsubr
          hintmask 11001010
          27 -199 rmoveto
          -61 callsubr
          hintmask 10101010
          -60 callsubr
          hintmask 11001010
          -59 callsubr
          endchar
        </CharString>
        <CharString name="rcaron">
          -45 0 16 353 37 -32 16 49 156 hstemhm
          101 253 -230 78 102 104 hintmask 00011000
          354 582 rmoveto
          -15 callsubr
          hintmask 11000110
          107 -33 rmoveto
          -61 callsubr
          hintmask 10100110
          -60 callsubr
          hintmask 11000110
          -59 callsubr
          endchar
        </CharString>
        <CharString name="rcommaaccent">
          -45 -155.5 132 23.5 16 353 37 -32 16 hstemhm
          101.910903931 134.136993408 -112.047897339 78 102 104 hintmask 10001000
          158 -155.5 rmoveto
          -9 callsubr
          hintmask 01100110
          173 561.5 rmoveto
          -61 callsubr
          hintmask 01010110
          -60 callsubr
          hintmask 01100110
          -59 callsubr
          endchar
        </CharString>
        <CharString name="registered">
          -31 24 205 13 125 12 65 24 hstem
          14 24 133 47 85 48 107 24 vstem
          248 437 rmoveto
          -36 callsubr
          -24 vmoveto
          -35 callsubr
          130 -359 rmoveto
          18 vlineto
          -16.5 4.5 -3.8630065918 0.498001098633 -15.6369934082 43.0019989014 -15 40 -3 43 -51 4 44 2 33 36 1 29 0 48 -45 26 -35 0 -28 0 -55 2 -51 0 rrcurveto
          -13 vlineto
          0 0 32 -7 2 -8 rrcurveto
          -219 vlineto
          0 -11 -2 -3 0 -2 -2 -11 -36 -5 0 0 rrcurveto
          -17 vlineto
          15 1 23.25 0.5 23.25 0 23.25 0 23.25 -0.5 15 flex1
          1 17 -21 7 rlineto
          -15 5 -1 7 0 11 rrcurveto
          -1 97 31 -1 rlineto
          26.4890136719 -0.85400390625 15.5109863281 -38.1459960938 8 -32 6 -22 -1 -2 5 -48 rrcurveto
          -5 220 rmoveto
          -22 -11 -42 -43 vhcurveto
          -31 1 0 125 rlineto
          7 0 9 0.5 9.125 0 9.125 0 8.9880065918 -2.5 7.7619934082 0 rrcurveto
          23.5 10.5 -29.5 -30.5 hvcurveto
          endchar
        </CharString>
        <CharString name="ring">
          -255 478.5 25.1999969482 113.200012207 25.6000061035 hstem
          36.400390625 32 97.599609375 33.6000061035 vstem
          118 642.5 rmoveto
          -46.8066101074 -34.7929992676 -34.5859985352 -46.8140258789 -46.8069458008 34.7851104736 -35.7930297852 46.8144989014 46.8079986572 34.7920074463 36.7849731445 46.8150024414 46.8070068359 -34.7860107422 33.5930175781 -46.8139953613 hvcurveto
          -49.599609375 -82.4000244141 rmoveto
          0 36.4000244141 19.599609375 20.4000244141 28.8000030518 0 rrcurveto
          31.6999969482 17.5 -21.4000244141 -35.4000244141 -37.0999755859 -17.5 -19.299987793 -30.5 -26.5 -23.099609375 19.299987793 37.0999755859 hvcurveto
          endchar
        </CharString>
        <CharString name="s">
          -77 -13 19 388 16 hstemhm
          60 296 -296 16 -10 68 152 70 -50 17 hintmask 11100000
          194 -13 rmoveto
          -58 callsubr
          hintmask 11001010
          -57 callsubr
          hintmask 11010100
          -56 callsubr
          hintmask 11100000
          -55 callsubr
          endchar
        </CharString>
        <CharString name="sacute">
          -77 -13 19 388 16 36 159 hstemhm
          60 16 -16 296 -290 68 -18 196 -26 70 -50 17 hintmask 0010001000000000
          116 464 rmoveto
          -34 callsubr
          hintmask 1100100000000000
          -87 -618 rmoveto
          -58 callsubr
          hintmask 1100010010000000
          -57 callsubr
          hintmask 1101000100000000
          -56 callsubr
          hintmask 1100100000000000
          -55 callsubr
          endchar
        </CharString>
        <CharString name="scaron">
          -77 -13 19 388 16 29 156 hstemhm
          60 16 -16 296 -290 68 -59 253 -42 70 -50 17 hintmask 0010001000000000
          328 582 rmoveto
          -15 callsubr
          hintmask 1100100000000000
          -4 -452 rmoveto
          -58 callsubr
          hintmask 1100010010000000
          -57 callsubr
          hintmask 1101000100000000
          -56 callsubr
          hintmask 1100100000000000
          -55 callsubr
          endchar
        </CharString>
        <CharString name="scedilla">
          -77 -188 187 -187 21 82 33 39 19 388 16 hstemhm
          60 16 -16 296 -290 68 9 136 -43.8984375 43.8984375 7 70 -50 17 hintmask 1000100001000000
          188 -1 rmoveto
          hintmask 0110100001000000
          -16 callsubr
          hintmask 1000100010000000
          -2 -21 rlineto
          hintmask 0010100001000000
          -26 callsubr
          hintmask 0001101000000000
          -16 -11 rmoveto
          -58 callsubr
          hintmask 0001100100010000
          -57 callsubr
          hintmask 0001110000100000
          -56 callsubr
          hintmask 0001101000000000
          -55 callsubr
          endchar
        </CharString>
        <CharString name="scircumflex">
          -77 -13 19 388 16 hstemhm
          60 16 -16 296 -290 68 152 70 -50 17 hintmask 11010000
          194 -13 rmoveto
          -58 callsubr
          hintmask 11001010
          -57 callsubr
          hintmask 11100100
          -56 callsubr
          hintmask 11010000
          -55 callsubr
          endchar
        </CharString>
        <CharString name="section">
          -103 -234 20 628 16 hstemhm
          38 304 -304 23 -16 68 157 72 hintmask 11001100
          143 185 rmoveto
          -60 -14 -38 -43 0 -64 0 -62 46 -42 55 -16 55 -16 69 -24 0 -44 0 -46 -30 -28 -62 0 rrcurveto
          hintmask 11010000
          -77 0 -34 74 -6 53 rrcurveto
          hintmask 11100000
          -23 1 rlineto
          2.5 -53.5 1.5 -82.5 0 0 rrcurveto
          16 0 11 28 rlineto
          0 59 -40 45 112 57 45 94 vhcurveto
          0 56 -37 30 -58 24 63 17 32 43 0 70 0 66 -51 29 -74 26 rrcurveto
          hintmask 11001100
          -49 17 -55 2.99200439453 0 60.0079956055 0 46 24 22 44 0 93 0 5 -79 4 -37 rrcurveto
          22 0 8 123 -29 0 -3 -29 rlineto
          0 -28 38 -62 -87 -59 -46 -80 vhcurveto
          0 -61 45 -42 53 -16 rrcurveto
          127 -85 rmoveto
          0 -39 -20 -25 -45 -6 -45 14 -47 6.99090576172 0 55.0090942383 0 38 23 29 42 1 47 -16 45 -22 0 -36 rrcurveto
          endchar
        </CharString>
        <CharString name="semicolon">
          -218 -6 132 134 141 hstem
          58 134 vstem
          119 -6 rmoveto
          15 0 10 6 12 7 -2 -32 -36 -37 -31 -7 0 0 7.29000854492 -8.91000366211 0 -6.15600585938 0 -0.683990478516 -0.0900115966797 -0.649993896484 -0.199996948242 -0.600006103516 42 5 56 57 0 75 rrcurveto
          49.0410003662 -42 25.9589996338 -27 -27 -38 -22.9880065918 -43.0119934082 -26 30 -40 31 vhcurveto
          4 407 rmoveto
          -27 -43 -21.9540100098 -43.0459899902 -40 17 -36 49 49 24 32 46 49.0409851074 -42 13.9590148926 -27 hvcurveto
          endchar
        </CharString>
        <CharString name="seven">
          321 78 27 -20 hstem
          66 20 vstem
          434 396 rmoveto
          -358 3 -10 -171 20 -8 15 101 rlineto
          71 0 136 -2 75 -2 rrcurveto
          -303 -521 39 -18 363 648 -22 0 rlineto
          endchar
        </CharString>
        <CharString name="six">
          -22 18 313 37 200 18 hstem
          32 96 240 99 vstem
          132 256 rmoveto
          16 203 118 87 102 0 44 0 59 -16 33 -28 rrcurveto
          13 18 rlineto
          -25 24 -66 20 -40 0 rrcurveto
          -228 -126 -228 -116 -193 131 -49 91 124 89 74 105 126.984985352 -102.714996338 62.0620117188 -85.2409973145 hvcurveto
          -1.35299682617 0 -1.34802246094 -0.0159912109375 -1.34298706055 -0.031005859375 -66 -2 -38 -41 -39 -47 rrcurveto
          128 53 rmoveto
          63 45 -26 -127 -85 -39 -75 -70 -77 -54 76 78 hvcurveto
          1 90 42 69 89 0 rrcurveto
          endchar
        </CharString>
        <CharString name="slash">
          -165 13 276 vstem
          237 709 rmoveto
          -224 -837 52 -14 224 837 rlineto
          endchar
        </CharString>
        <CharString name="space">
          -267 endchar
        </CharString>
        <CharString name="sterling">
          -92 76 -45 39 93 31 33.1629943848 34.8500061035 41.7559967041 32.2310028076 177 31 hstemhm
          45 51 11 83 50 57 110 32 12.1359863281 34.1439971924 hintmask 0111111111100000
          130 71 rmoveto
          9.2380065918 0 9.47799682617 -4.76760864258 15.283996582 -12.2323913574 14.5399932861 -11.6367950439 18.2720031738 -21.737197876 12.18800354 -14.6260070801 -16 -21 -21 -7 -28 0 rrcurveto
          -28 -20 13 31 hvcurveto
          37.5 20.3999938965 11.5 13.6000061035 vhcurveto
          4.41200256348 140.768997192 rmoveto
          10.9889984131 -16.1499938965 13.1239929199 -13.8040008545 12.9869995117 -11.8020019531 rrcurveto
          -117.511993408 -1.01300048828 0 -32 159.839996338 -1.83700561523 rlineto
          17.9420013428 -15.6179962158 8.21800231934 -14.1159973145 0 -30.4290008545 0 -14 -1.09100341797 -10.6367034912 -8.90899658203 -13.3632965088 -25.5 33 -31.5 32 -42 0 rrcurveto
          -59.6641998291 -26.3358001709 -45.1952972412 -40.8047027588 -23 20.6194000244 -54 59.3805999756 hvcurveto
          21.5700073242 0 14.3379974365 6.412109375 14.0919952393 7.587890625 17.9199981689 9.64939880371 11.0800018311 9.35060119629 16 19 rrcurveto
          hintmask 1011111111100000
          38 -36 60 -47 48 0 69.7680053711 0 49.5119934082 44.2646026611 0 121.631896973 0 11.7431030273 -4.2799987793 10.3603973389 0 12 rrcurveto
          -31 -8 rlineto
          0.196990966797 -4.40328979492 0.938995361328 -11.0059204102 0 -6.59858703613 0 -62.9658050537 -45.8969726562 -31.0263977051 -56.2390136719 0 -38 0 -26 8 -32 26 22 27 22 15.8701019287 0 63.1298980713 0 3.43699645996 -0.290008544922 3.40400695801 -0.549987792969 3.37599182129 rrcurveto
          105.839996338 -1.21699523926 0 39 -121.255004883 -1.04499816895 rlineto
          -8.78698730469 13.6600036621 -11.4470214844 13.396987915 -11.7889862061 13.4280090332 rrcurveto
          153.277999878 -0.440002441406 0 39 -183.363998413 -3.1609954834 rlineto
          -16.2969970703 21.0279998779 -12.3390045166 21.7019958496 0 23.4309997559 0 71 38 37 59 0 54 0 52 -23 14 -78 rrcurveto
          32 5 rlineto
          -5 82 -63 45 -90 0 -77.5 0 -96.5 -44 0 -110 0 -19.5029907227 3.68499755859 -17.575012207 6.10101318359 -15.8390045166 rrcurveto
          -62.7860107422 -1.08299255371 0 -32 rlineto
          endchar
        </CharString>
</ttFont>
